<svg width="605" height="182" viewBox="0 0 605 182" fill="none" xmlns="http://www.w3.org/2000/svg">
<g clip-path="url(#clip0_1_180)">
<path d="M20.6922 81.1844C20.0135 82.166 19.1637 82.988 18.1438 83.6625C17.1239 84.3371 16.0071 84.6871 14.7707 84.7386C13.5335 84.778 12.3617 84.5303 11.2649 83.958C10.1568 83.3988 9.24231 82.6293 8.51019 81.6626C7.18992 79.854 6.0965 77.9555 5.24128 75.954C4.38605 73.9525 3.65558 71.8071 3.02456 69.5072C2.39354 67.2073 1.85414 64.8149 1.41767 62.3169C1.39753 61.3484 1.55454 60.797 1.90004 60.6495C2.24642 60.5142 2.72281 60.4801 3.35365 60.5455C3.97227 60.6118 4.55076 60.8037 5.08913 61.1212C5.61528 61.4397 6.00359 61.8907 6.25318 62.4622C6.49142 63.0468 6.65637 63.6366 6.74978 64.2561C6.86165 66.5071 7.25359 68.7259 7.9256 70.9124C8.5854 73.0997 9.2504 74.8447 9.89617 76.1491C10.5419 77.4535 11.3736 78.7814 12.4024 80.1197C13.076 80.9555 13.884 81.0942 14.8271 80.5479C15.5373 80.006 16.4577 79.1422 17.564 77.9581C18.6703 76.774 19.7477 75.5305 20.785 74.2409C21.8223 72.9512 22.8056 71.7636 23.7469 70.6773C24.4615 70.7121 24.9406 70.8866 25.2084 71.1989C25.4763 71.5113 25.5453 72.1325 25.4014 73.0391C25.2706 73.957 24.988 74.812 24.5527 75.5921C24.1173 76.3722 22.8393 78.2438 20.7044 81.1835L20.6922 81.1844ZM42.9896 72.6162C42.8631 73.2514 42.447 73.6127 41.7804 73.734C41.1007 73.844 40.6077 73.8179 40.2735 73.6085C39.5056 72.8285 38.9349 71.8871 38.5509 70.8096C37.6555 67.5587 36.9302 64.6271 36.3646 62.0401C35.7981 59.4409 35.4271 57.6872 35.2273 56.7806C35.1164 56.4325 35.1269 56.0634 35.2813 55.6472C35.427 55.2808 35.7079 55.0888 36.0988 55.0608C36.453 55.0355 36.8116 55.0713 37.1755 55.1803C37.7618 55.3102 38.3054 55.5292 38.8176 55.8241C39.3298 56.1189 39.691 56.5351 39.9014 57.0726C40.1117 57.61 40.2496 58.1649 40.2906 58.739C40.9934 63.0719 41.5651 66.26 42.0068 68.3156C42.4354 70.3599 42.7714 71.7969 43.0149 72.6267L42.9896 72.6162Z" fill="#AA9479"/>
<path d="M61.2217 61.6254C60.6066 62.2956 59.9881 62.5731 59.3563 62.4955C58.7238 62.4057 58.1112 62.0811 57.4952 61.5359C56.8791 60.9906 56.476 60.3319 56.2883 59.5964C56.1007 58.8608 56.4086 58.1881 57.2139 57.6026C58.9702 56.2369 61.6356 54.88 65.184 53.509C68.7333 52.1502 72.4222 51.1988 76.2386 50.6558C77.4662 50.4821 78.6232 50.3502 79.7347 50.2707C81.9335 50.1135 83.778 50.1535 85.2569 50.4038C87.4539 50.7378 89.2566 51.5665 90.6781 52.9014C92.0995 54.2362 92.9259 56.0065 93.1442 58.2008C93.3625 60.3952 92.8261 62.8522 91.5097 65.5615C90.5423 67.4846 89.074 69.6154 87.1171 71.9531C85.1594 74.2785 82.8998 76.6746 80.3243 79.1179C78.9885 80.1833 77.9939 80.6964 77.3378 80.6206C76.6947 80.5561 75.9522 79.9584 75.1214 78.8146C74.5664 77.9212 74.4102 77.2817 74.6519 76.8838C74.8935 76.4859 75.2312 76.2285 75.6892 76.1098C76.1473 75.9911 76.7615 75.6525 77.5432 75.0809C78.3258 74.5216 79.5176 73.5033 81.1072 72.0391C82.709 70.574 84.1137 68.9265 85.3324 67.0837C86.5521 65.2531 87.4585 63.5062 88.0543 61.8798C88.9614 59.1138 89.1471 57.2466 88.6105 56.266C88.0738 55.2853 86.4098 54.6799 83.5933 54.4393C80.8196 54.1097 77.0399 54.6501 72.256 56.0849C67.4712 57.5075 63.785 59.3549 61.1973 61.6272L61.2217 61.6254Z" fill="#AA9479"/>
<path d="M124.618 71.1622C125.297 71.3837 126.129 71.5207 127.104 71.586C129.695 69.3626 131.578 67.018 132.775 64.5382C133.973 62.0585 134.735 60.0027 135.06 58.3711C135.384 56.7273 135.548 55.586 135.537 54.9115C135.575 54.2458 135.054 53.8288 133.95 53.6622C132.857 53.4948 131.752 53.4879 130.657 53.6276C129.562 53.7673 128.086 54.2412 126.239 55.0362C125.522 56.8554 124.784 59.0569 123.986 61.6431C123.189 64.2293 122.26 67.0336 121.164 70.0832C120.081 73.1318 119.367 75.1718 119.049 76.2136C118.596 77.2651 118.169 77.8113 117.767 77.8645C117.366 77.9178 116.922 77.8882 116.399 77.7905C115.877 77.6928 115.413 77.3944 115.009 76.8954C114.593 76.3972 114.456 75.8545 114.598 75.2673C114.755 74.3721 115.259 72.6663 116.123 70.149C116.987 67.6317 117.684 65.5437 118.229 63.8842C118.773 62.2246 119.484 60.1479 120.374 57.6533C119.599 57.9789 118.643 58.5138 117.505 59.2581C116.367 60.0025 115.25 60.8559 114.164 61.8175C113.418 62.5339 112.69 62.8315 111.969 62.7111C111.248 62.5908 110.59 62.3064 109.981 61.8588C109.372 61.4113 109.009 60.9829 108.892 60.5371C108.775 60.1034 109.124 59.5014 109.953 58.73C111.676 57.4158 113.425 56.2841 115.186 55.3355C116.96 54.386 119.253 53.3135 122.088 52.0918C122.952 49.2429 123.72 46.7571 124.414 44.6202C124.548 44.0827 124.739 43.6639 124.952 43.3908C125.166 43.1177 125.509 42.9336 125.945 42.8533L126.006 42.8489C126.397 42.8209 126.806 42.8776 127.21 43.0329C127.617 43.2248 128.073 43.5851 128.552 44.1034C129.031 44.6216 129.271 45.0587 129.272 45.4147C129.272 45.7707 129.178 46.1703 128.99 46.6258C128.583 47.8089 128.1 49.1204 127.542 50.5845C129.453 50.0059 131.35 49.7597 133.272 49.8433C135.181 49.9278 136.718 50.6527 137.871 52.0067C139.036 53.3599 139.617 54.7917 139.639 56.3003C139.657 57.76 139.322 59.601 138.634 61.8234C137.946 64.0457 136.816 66.447 135.234 69.0402C133.651 71.6335 131.919 73.6849 130.026 75.1954C128.812 76.0802 127.733 76.2679 126.813 75.7567C125.892 75.2455 125.239 74.5309 124.866 73.6C124.493 72.6812 124.387 71.8785 124.559 71.2032L124.618 71.1622ZM143.962 44.4747C144.787 44.3298 145.593 44.444 146.382 44.8296C147.158 45.2161 147.799 45.7718 148.292 46.4855C150.172 48.561 151.865 50.429 153.369 52.0648C154.886 53.6998 156.264 55.1114 157.526 56.2857C158.789 57.46 160.128 58.5061 161.569 59.4221C162.095 59.9124 162.364 60.4088 162.398 60.8852C162.432 61.3616 162.204 61.7831 161.725 62.1243C161.234 62.4663 160.729 62.613 160.198 62.565C159.666 62.5171 159.183 62.2815 158.76 61.8697C157.054 60.8377 155.043 59.1644 152.754 56.848C150.464 54.5317 147.805 51.6892 144.777 48.3207C144.166 47.8365 143.728 47.217 143.453 46.451C143.178 45.6971 143.351 45.034 143.972 44.4494L143.962 44.4747Z" fill="#AA9479"/>
<path d="M200.375 58.5132C199.763 58.029 198.858 57.9095 197.662 58.1792C196.465 58.4367 194.621 59.0843 192.127 60.0975C189.634 61.1229 186.711 62.9894 183.369 65.7085C181.869 67.0557 180.597 66.9503 179.564 65.379C178.897 64.6286 178.487 63.7125 178.371 62.6036C178.475 59.76 178.844 56.5169 179.467 52.8627C180.09 49.2086 180.785 46.2245 181.553 43.9105C182.018 43.0423 182.593 42.6697 183.268 42.8302C183.941 42.9785 184.627 43.4696 185.339 44.315C186.037 45.1491 186.309 45.8663 186.154 46.4422C185.999 47.0303 185.756 47.5756 185.437 48.0896C184.657 50.2325 184.077 52.2629 183.688 54.1938C183.298 56.1247 182.972 58.1001 182.711 60.1078C185.448 58.7212 187.797 57.5832 189.774 56.7175C191.749 55.8396 193.448 55.2148 194.881 54.8299C196.315 54.445 197.764 54.2799 199.23 54.347C201.191 54.4768 202.761 55.31 203.965 56.8691C205.156 58.4168 205.518 60.2081 205.049 62.2428C204.31 64.9477 203.471 67.3035 202.533 69.2982C201.596 71.2928 199.943 73.7683 197.589 76.7237C196.031 78.468 194.672 78.3442 193.51 76.3523C192.992 75.2844 193.098 74.3683 193.842 73.603C196.298 70.8614 197.897 68.844 198.627 67.5517C199.357 66.2595 199.996 64.7159 200.556 62.9325C201.116 61.149 201.06 59.6797 200.4 58.5236L200.375 58.5132ZM189.628 28.9314C191.368 29.74 193.162 30.9623 195.01 32.5981C196.858 34.2339 198.087 35.4475 198.719 36.2126C199.351 36.99 199.664 37.7534 199.68 38.5012C199.514 39.262 199.12 39.9409 198.498 40.5133C197.619 40.5762 196.889 40.3215 196.319 39.7361C194.858 37.8515 193.251 36.3213 191.511 35.1688C189.77 34.0042 188.719 33.2198 188.383 32.8019C188.131 32.3779 187.911 31.8658 187.707 31.2541C187.505 30.6547 187.562 30.0859 187.882 29.5841C188.297 29.1985 188.773 28.9925 189.298 28.9549L189.628 28.9314Z" fill="#AA9479"/>
<path d="M246.179 42.1499C245.534 41.889 244.807 41.8551 243.973 42.0375C243.14 42.2321 241.411 42.7732 238.774 43.6739C236.137 44.5745 234.261 45.2858 233.146 45.8321C232.031 46.3784 231.215 46.8173 230.688 47.1742C230.16 47.5189 229.538 47.7476 228.844 47.834C228.185 47.8812 227.423 47.5305 226.583 46.768C225.73 46.0063 225.254 45.3528 225.153 44.8075C225.053 44.2622 225.265 43.7928 225.814 43.3975C227.791 42.544 231.103 41.4723 235.748 40.1579C240.394 38.8557 243.942 38.0004 246.394 37.604C247.487 37.4399 248.373 37.6344 249.065 38.2111C249.745 38.7887 250.357 39.457 250.904 40.2404C251.451 41.0239 251.582 41.9968 251.31 43.1703C250.525 44.5524 249.507 46.1108 248.255 47.8333C247.003 49.5557 245.545 51.9928 243.865 55.1209C242.186 58.249 241.099 60.3894 240.603 61.5298C240.108 62.6702 240.113 63.603 240.606 64.3166C241.099 65.0303 242.093 65.7082 243.574 66.3267C245.055 66.9452 245.95 67.274 246.271 67.3002C246.58 67.3272 247.676 67.1997 249.572 66.9291C249.969 66.9866 250.325 67.1576 250.64 67.4543C250.943 67.7396 251.142 68.1182 251.224 68.5789C251.306 69.0396 251.231 69.536 251.038 70.0901C250.831 70.6328 250.432 71.0665 249.84 71.3667C249.303 71.933 248.408 72.1198 247.154 71.9271C245.9 71.7343 244.701 71.4395 243.544 71.0557C242.387 70.6719 241.18 70.1075 239.935 69.3494C238.691 68.6035 237.631 67.697 236.759 66.6544C235.935 65.6083 235.433 64.7725 235.252 64.1347C235.073 63.5091 235.288 62.401 235.873 60.7999C237.89 56.8987 239.878 53.2697 241.799 49.9156C243.72 46.5615 245.205 43.9753 246.227 42.1342L246.179 42.1499ZM257.472 36.6277C257.142 37.6704 256.744 38.2881 256.278 38.4688C255.801 38.6625 255.35 38.5352 254.923 38.0623C254.131 37.456 253.428 36.7327 252.84 35.8908C252.022 34.4023 251.275 32.8842 250.587 31.3373C250.139 30.5713 250.176 29.8811 250.709 29.2659C251.492 28.5469 252.217 28.3846 252.86 28.7806C253.502 29.1767 253.959 29.5614 254.208 29.9488C255.355 32.4328 256.448 34.6628 257.471 36.6155L257.472 36.6277ZM261.71 33.7341C261.086 31.8757 260.636 30.2258 260.362 28.7844C260.079 27.9206 260.229 27.2714 260.823 26.8238C260.988 26.7261 261.192 26.6624 261.412 26.6466C261.937 26.6091 262.616 26.8306 263.447 27.2991C264.082 28.1009 264.547 29.1112 264.857 30.3537C265.167 31.5961 265.289 32.9625 265.213 34.478C265.093 35.1987 264.732 35.642 264.143 35.8192C263.554 35.9964 263.056 35.8969 262.624 35.5349C262.206 35.1719 261.892 34.5682 261.699 33.7472L261.71 33.7341Z" fill="#AA9479"/>
<path d="M295.512 33.2444L298.141 32.9214C299.106 32.8524 299.881 32.8706 300.466 32.9884C301.052 33.1061 301.563 33.3888 302.025 33.8346C302.475 34.2935 302.638 34.687 302.503 35.0282C302.368 35.3693 302.087 35.9051 301.661 36.6476C300.562 36.7262 299.372 36.9096 298.078 37.1985C296.798 37.4865 295.546 37.8339 294.334 38.2275C293.718 40.0886 293.294 41.715 293.086 43.0927C292.878 44.4827 292.601 46.2705 292.279 48.4666L296.319 47.4533C297.455 47.2002 299.179 46.9174 301.502 46.6161C302.252 47.1396 302.6 47.7163 302.561 48.3698C302.521 49.0111 302.287 49.5189 301.871 49.8802C301.454 50.2415 300.73 50.5879 299.687 50.9326C296.775 51.767 294.319 52.6179 292.297 53.5237C292.1 55.7478 292.109 57.4169 292.322 58.5067C292.535 59.5964 292.786 60.708 293.088 61.8405C293.895 65.0609 295.772 65.8966 298.707 64.3608C299.812 63.6679 300.921 62.8642 302.059 61.9602C303.186 61.057 304.802 59.6277 306.896 57.6609C308.99 55.6941 310.439 54.3259 311.254 53.5309C312.057 52.7491 312.803 52.1924 313.493 51.873C313.981 51.838 314.277 52.0256 314.392 52.4348C314.508 52.844 314.575 53.2689 314.582 53.7104C314.589 54.1519 314.285 55.0576 313.683 56.4266C310.869 59.8201 307.928 62.9893 304.874 65.9578C303.847 67.0503 302.684 67.9439 301.382 68.6263C300.08 69.3087 298.714 69.6028 297.293 69.4834C295.867 69.2785 294.552 68.7464 293.362 67.9106C292.172 67.0626 291.168 66.0663 290.361 64.9085C289.554 63.7507 289.017 62.4263 288.787 60.9326C288.511 58.9633 288.212 57.008 287.903 55.0903C287.082 55.284 286.19 55.5197 285.229 55.8094C284.667 56.0215 284.075 56.162 283.428 56.2083C282.78 56.2546 282.213 56.0496 281.691 55.6082C281.167 55.1545 280.822 54.6267 280.644 54.0255C280.466 53.4244 280.385 52.804 280.378 52.1906C282.887 51.3973 285.418 50.5656 287.973 49.7199C288.303 48.1494 288.566 46.5099 288.752 44.8146C288.938 43.1192 289.3 41.3253 289.827 39.4214C287.401 40.172 285.213 40.8196 283.262 41.352C282.749 41.5605 282.156 41.6889 281.495 41.7116C280.834 41.7343 280.243 41.5433 279.723 41.1385C279.203 40.7337 278.884 40.2285 278.754 39.6117C278.625 39.007 278.505 38.3649 278.422 37.7079C280.632 37.0219 282.676 36.4214 284.567 35.9056C286.457 35.3898 288.525 34.7754 290.768 34.0379C291.1 33.1793 291.398 32.0285 291.651 30.5862C291.905 29.1561 292.32 27.2357 292.898 24.8493C293.23 23.9907 293.661 23.4933 294.191 23.3572L294.46 23.338C294.9 23.3065 295.326 23.4356 295.751 23.7122C296.219 24.0716 296.598 24.5602 296.886 25.1535C297.175 25.759 297.138 26.621 296.777 27.7518C296.365 29.3774 295.943 31.2001 295.51 33.22L295.512 33.2444Z" fill="#AA9479"/>
<path d="M344.177 65.2959C344.407 66.1143 344.358 66.8054 344.03 67.3691C343.689 67.9214 343.084 68.2102 342.202 68.2365C341.319 68.2505 340.55 67.8021 339.919 66.8773C339.52 66.2796 338.615 65.1289 337.18 63.4267C335.756 61.7114 334.436 60.4185 333.217 59.5234C332.626 58.6326 332.264 57.8604 332.155 57.2052C332.047 56.5499 332.077 56.1058 332.256 55.872C332.436 55.6381 332.675 55.3755 332.962 55.0971C333.124 54.9505 333.364 54.872 333.681 54.8493C333.95 54.83 334.259 54.8571 334.619 54.9172C335.867 55.712 337.231 56.9282 338.699 58.5789C340.167 60.2173 341.28 61.5252 342.036 62.4901C342.793 63.455 343.511 64.3982 344.203 65.3186L344.177 65.2959Z" fill="#AA9479"/>
<path d="M164.265 159.452C164.036 158.142 164.016 156.83 164.182 155.541C164.905 150.713 165.669 145.944 166.474 141.233C166.629 139.626 166.799 137.883 166.994 135.978C167.19 134.085 167.341 132.073 167.458 129.929C167.625 129.168 168.033 128.697 168.683 128.515C169.333 128.334 169.981 128.471 170.638 128.903C171.342 129.479 171.768 129.94 171.905 130.311C172.042 130.681 172.14 131.362 172.212 132.376C174.317 130.899 176.559 129.118 178.94 127.045C181.321 124.972 183.305 122.841 184.928 120.638C184.086 120.035 182.658 119.805 180.63 119.95C178.603 120.095 175.913 120.595 172.574 121.46C169.222 122.326 165.79 123.43 162.253 124.788C158.716 126.146 156.182 127.457 154.627 128.722C153.085 129.987 152.01 130.751 151.403 131.015C150.527 131.127 149.739 130.926 149.04 130.423C148.341 129.921 147.949 129.421 147.864 128.911C147.779 128.414 147.923 127.851 148.273 127.249C149.062 126.616 150.355 125.811 152.113 124.814C153.871 123.816 156.057 122.788 158.631 121.696C161.205 120.603 164.072 119.661 167.231 118.858C170.378 118.056 173.75 117.312 177.335 116.613C178.076 116.511 178.833 116.445 179.578 116.392C181.251 116.272 182.934 116.287 184.626 116.423C186.273 116.613 187.456 117.363 188.175 118.662C188.882 119.962 189.001 121.292 188.522 122.652C188.052 124.147 187.378 125.374 186.488 126.321C185.598 127.269 184.398 128.337 182.863 129.539C181.328 130.73 179.612 131.982 177.681 133.298C175.761 134.614 173.816 135.736 171.845 136.675C171.669 137.313 171.354 138.736 170.886 140.955C170.419 143.173 169.96 145.858 169.508 148.984C169.044 152.112 168.695 154.776 168.446 156.967C168.39 158.076 168.469 159.175 168.682 160.265C168.884 160.693 168.803 161.104 168.439 161.51C168.063 161.918 167.474 162.083 166.646 162.007C165.818 161.931 165.232 161.641 164.889 161.138C164.546 160.635 164.322 160.074 164.241 159.453L164.265 159.452Z" fill="#AA9479"/>
<path d="M228.972 120.361C230.646 120.241 232.792 120.039 235.4 119.766C238.02 119.493 241.032 119.204 244.474 118.921C245.406 118.904 246.306 119.122 247.174 119.587C248.33 120.303 248.696 121.136 248.286 122.098C248.095 122.505 247.758 122.775 247.275 122.895C246.793 123.016 246.295 123.1 245.77 123.138C243.947 123.047 241 123.221 236.944 123.671C232.875 124.121 229.957 124.514 228.165 124.863C227.564 126.416 226.786 128.94 225.821 132.434C224.855 135.929 223.749 139.863 222.514 144.224C221.279 148.585 220.806 151.934 221.108 154.257C221.24 154.911 221.197 155.503 221 156.021C220.792 156.539 220.447 156.871 219.977 156.99C219.366 157.206 218.846 157.145 218.405 156.808C217.962 156.459 217.591 156.08 217.291 155.66C216.697 154.732 216.378 153.711 216.336 152.609C216.724 149.439 217.392 146.076 218.34 142.509C219.276 138.943 220.165 135.749 221.006 132.926C221.848 130.103 222.44 127.741 222.797 125.861C220.434 126.3 218.4 126.691 216.67 127.06C214.953 127.429 213.192 127.862 211.423 128.369C209.642 128.877 208.155 129.364 206.95 129.855C205.961 130.282 204.974 130.389 203.991 130.202C203.008 130.014 202.277 129.416 201.802 128.431C201.5 127.298 201.888 126.546 202.966 126.162C206.775 125.006 210.608 124.007 214.477 123.178C218.335 122.35 221.48 121.695 223.938 121.212C224.562 118.773 224.93 117.053 225.028 116.027C225.127 115.001 225.166 114.003 225.146 113.035C224.715 111.997 224.902 111.174 225.704 110.539C225.967 110.435 226.195 110.369 226.415 110.354C227.075 110.306 227.697 110.593 228.269 111.215C229.74 112.043 230.327 113.376 230.015 115.204C229.802 116.508 229.458 118.227 228.998 120.384L228.972 120.361Z" fill="#AA9479"/>
<path d="M289.112 112.34C286.697 112.562 284.014 113.159 281.076 114.143C278.138 115.126 275.72 116.331 273.833 117.755C272.08 119.169 270.598 120.773 269.402 122.59C268.206 124.406 267.027 126.283 265.888 128.219C265.447 128.913 265.089 129.405 264.803 129.696C264.517 129.986 263.95 129.953 263.103 129.621C262.257 129.289 261.7 128.886 261.424 128.452C261.146 128.005 261.054 127.57 261.134 127.147C261.214 126.723 261.485 126.053 261.947 125.124C262.327 124.262 263.343 122.495 264.996 119.86C266.648 117.213 268.451 114.432 270.402 111.505C272.354 108.579 274.382 105.867 276.463 103.374C276.92 102.899 277.405 102.643 277.93 102.606C278.321 102.578 278.732 102.659 279.139 102.851C280.344 103.563 280.992 104.216 281.107 104.797C281.223 105.378 280.84 106.204 279.993 107.234C278.709 108.517 277.514 110.002 276.394 111.678C277.965 110.817 279.72 110.114 281.657 109.571C283.584 109.04 285.325 108.67 286.858 108.462C288.371 107.998 289.844 108.163 291.275 108.944C293.11 109.881 293.857 111.399 293.528 113.498C292.594 116.573 291.422 119.75 289.997 123.008C288.574 126.277 287.131 129.29 285.659 132.047C284.199 134.804 282.839 137.258 281.567 139.375C280.307 141.503 279.228 143.25 278.356 144.614C277.484 145.978 276.48 147.732 275.344 149.875C274.208 152.019 273.049 154.361 271.87 156.926C271.627 157.827 271.257 158.308 270.782 158.366C270.295 158.426 269.697 158.297 268.963 157.993C267.828 157.583 267.354 156.954 267.539 156.106C267.723 155.245 267.946 154.591 268.232 154.129C269.515 151.643 270.817 149.241 272.136 146.913C273.455 144.584 274.655 142.472 275.735 140.578C276.815 138.683 277.979 136.587 279.238 134.287C278.347 134.179 277.429 134.048 276.486 133.919C275.544 133.79 274.618 133.549 273.711 133.221C272.803 132.893 272.117 132.402 271.643 131.773C271.18 131.143 271.007 130.443 271.125 129.686C271.243 128.928 271.727 128.489 272.555 128.392C274.6 129.179 276.216 129.629 277.403 129.74C278.59 129.852 279.826 129.972 281.112 130.101C282.809 127.905 284.525 124.774 286.25 120.734C287.974 116.694 288.94 113.887 289.135 112.326L289.112 112.34Z" fill="#AA9479"/>
<path d="M325.16 144.299C325.897 144.64 326.376 145.158 326.595 145.818C326.814 146.477 326.743 147.207 326.358 147.995C325.465 149.078 324.383 149.573 323.15 149.489L320.735 149.196C318.954 149.016 317.313 147.537 315.839 144.77C314.37 142.088 313.418 138.73 312.993 134.684C312.569 130.639 312.5 126.58 312.786 122.52C313.072 118.448 313.31 114.907 313.486 111.874C313.577 111.254 313.743 110.837 314 110.647C314.256 110.456 314.518 110.339 314.811 110.318C315.105 110.297 315.631 110.444 316.403 110.769C317.175 111.095 317.669 111.649 317.886 112.456C318.104 113.263 318.146 114.021 318.013 114.743C317.705 117.822 317.446 120.726 317.249 123.465C317.04 126.206 316.965 128.765 317.001 131.157C317.037 133.548 317.271 135.79 317.716 137.883C318.148 139.976 318.761 141.86 319.544 143.535C319.805 144.093 320.109 144.575 320.446 144.993C320.783 145.411 321.31 145.569 322.004 145.483C322.709 145.383 323.286 145.219 323.759 144.964C324.232 144.71 324.696 144.505 325.175 144.335L325.16 144.299ZM344.189 128.132C344.35 123.516 344.324 118.865 344.125 114.189C342.657 114.785 341.547 115.221 340.768 115.497C339.99 115.774 337.831 116.481 334.278 117.619C333.716 117.831 333.207 117.929 332.739 117.901C332.27 117.873 331.769 117.393 331.238 116.486C330.706 115.578 330.449 114.897 330.466 114.454C330.484 114.011 330.631 113.668 330.921 113.427C331.211 113.185 331.726 113.013 332.481 112.922C334.652 112.374 336.725 111.833 338.677 111.313C340.628 110.793 342.435 110.307 344.083 109.834C344.077 108.545 344.108 107.082 344.175 105.444C344.723 105.049 345.236 104.84 345.725 104.805C345.945 104.789 346.144 104.824 346.333 104.897C346.96 105.073 347.443 105.48 347.747 106.122C348.063 106.762 348.361 107.674 348.678 108.842C348.977 108.735 349.37 108.559 349.869 108.327C350.356 108.096 350.872 107.936 351.394 107.85C351.916 107.763 352.44 107.885 352.942 108.206C353.456 108.525 353.833 109.161 354.073 110.114C353.375 110.827 352.613 111.335 351.788 111.64C350.963 111.944 350.018 112.307 348.944 112.739C348.778 113.5 348.682 114.563 348.668 115.915C348.654 117.266 348.593 118.989 348.472 121.073C348.352 123.169 348.342 125.085 348.419 126.859C349.601 126.726 350.887 126.511 352.252 126.193C353.616 125.874 354.813 125.617 355.817 125.41C356.822 125.203 357.77 125.245 358.687 125.536C359.009 126.262 359.198 126.838 359.276 127.249C359.355 127.661 359.133 127.996 358.624 128.254C358.114 128.511 357.481 128.753 356.749 128.99C356.016 129.214 355.149 129.46 354.172 129.702C353.195 129.943 351.41 130.562 348.828 131.545C348.553 133.197 348.388 134.486 348.343 135.398C348.297 136.31 347.961 137.623 347.336 139.35C346.383 142.168 344.423 143.254 341.456 142.631C339.571 142.189 338.032 141.267 336.839 139.867C335.658 138.466 334.957 136.908 334.75 135.204C334.632 132.867 335.662 131.308 337.866 130.536C340.109 129.627 342.213 128.826 344.203 128.156L344.189 128.132ZM343.93 132.926C343.414 133.098 342.794 133.351 342.093 133.684C341.394 134.029 340.81 134.451 340.356 134.975C339.331 135.576 338.965 136.29 339.245 137.117C339.623 138.109 340.301 138.662 341.29 138.763C342.308 138.739 342.997 138.248 343.382 137.287C343.559 135.986 343.738 134.536 343.93 132.926Z" fill="#AA9479"/>
<path d="M375.561 126.281C374.892 126.194 374.348 125.975 373.916 125.601C373.497 125.238 373.229 124.754 373.15 124.158C373.058 123.563 373.113 122.957 373.289 122.319C374.314 120.514 375.44 118.923 376.667 117.534C377.893 116.145 378.983 114.901 379.924 113.815C380.72 113.267 381.47 113.115 382.151 113.361C382.831 113.594 383.384 114.12 383.786 114.938C384.509 115.77 384.318 116.717 383.19 117.768C380.973 119.559 378.427 122.405 375.561 126.281ZM400.739 91.2085C400.689 92.403 400.593 93.6376 400.439 94.9132C400.285 96.1889 400.02 97.632 399.657 99.2541C403.485 98.3664 406.948 97.6891 410.035 97.2473C413.122 96.8056 416.425 96.4589 419.955 96.2065C421.759 96.0283 422.807 96.776 423.098 98.4373C422.978 99.8577 422.474 100.704 421.584 100.964C420.694 101.224 419.793 101.154 418.878 100.728C417.54 100.554 415.907 100.56 413.991 100.709C412.074 100.871 409.657 101.228 406.726 101.793C407.645 102.796 408.072 103.956 408.044 105.284C408.016 106.612 407.978 108.653 407.954 111.405C407.989 111.894 407.997 112.359 407.992 112.802C407.936 115.114 407.75 117.485 407.435 119.95C407.038 121.268 406.134 121.848 404.7 121.705C403.266 121.562 401.954 121.251 400.753 120.76C399.539 120.27 398.746 119.823 398.36 119.408C397.968 118.909 397.673 118.218 397.488 117.347C398.6 117.439 399.69 117.57 400.768 117.714L400.902 117.704C402.017 117.845 402.841 117.516 403.35 116.731C403.413 116.42 403.466 116.121 403.484 115.862C403.903 113.131 404.036 110.531 403.859 108.064C403.713 105.324 403.585 103.54 403.477 102.713C399.862 103.5 396.671 104.379 393.903 105.326C394.846 106.67 395.105 107.879 394.688 108.916C394.222 112.362 393.824 115.043 393.471 116.971C393.118 118.899 393.156 120.64 393.575 122.206L393.542 122.601L392.906 122.978L392.256 123.16C391.297 123.314 390.459 122.576 389.777 120.943C389.646 119.798 389.679 118.2 389.865 116.161C390.05 114.109 390.27 110.84 390.526 106.353C388.704 106.79 386.428 107.591 383.723 108.73C381.018 109.881 379.285 110.717 378.526 111.263C377.721 111.848 377.121 112.038 376.7 111.823C376.292 111.606 375.83 111.161 375.341 110.496C374.85 109.819 374.618 108.976 374.631 107.956C377.481 106.426 381.178 104.909 385.699 103.408C390.221 101.906 393.862 100.798 396.646 100.071C396.244 99.4367 396.013 98.6061 395.941 97.5922C396.186 95.5366 396.4 93.2008 396.568 90.5737C396.622 90.1278 396.839 89.7317 397.209 89.3983C397.37 89.2517 397.573 89.1758 397.793 89.1601C398.098 89.1382 398.461 89.2229 398.879 89.4139C399.616 89.7541 400.224 90.3613 400.739 91.2085ZM395.868 134.516C396.416 134.121 396.972 133.823 397.536 133.636C398.099 133.436 398.632 133.508 399.145 133.815C399.659 134.135 400.124 134.458 400.54 134.784C400.956 135.11 401.362 135.462 401.744 135.827C402.979 134.548 404.147 133.028 405.238 131.292C406.33 129.557 407.043 128.204 407.369 127.26C406.831 127.127 405.825 127.137 404.351 127.304C402.878 127.471 401.24 127.92 399.436 128.613C397.501 129.378 395.832 130.59 394.417 132.263C393.014 133.935 391.858 135.626 390.961 137.323C389.992 138.718 388.886 138.871 387.603 137.759C386.343 136.781 386.15 135.629 387.023 134.277C390.026 130.428 393.042 126.591 396.094 122.738C397.212 121.725 398.386 121.666 399.604 122.549C400.176 123.171 400.62 123.716 400.912 124.186C401.702 124.081 402.877 123.849 404.445 123.467C406.014 123.085 408.103 122.935 410.724 123.018C411.35 123.194 411.937 123.496 412.483 123.923C413.017 124.352 413.277 124.898 413.226 125.565C413.188 126.23 412.988 126.871 412.638 127.461C411.704 129.344 410.518 131.296 409.067 133.327C407.616 135.358 406.356 137.143 405.263 138.682C407.656 140.549 409.88 141.949 411.936 142.882C413.991 143.816 415.812 144.557 417.409 145.082C418.994 145.607 419.984 146.064 420.366 146.429C421.456 147.42 421.675 148.595 421.012 149.968C420.702 150.604 419.852 150.739 418.449 150.348C417.02 149.603 415.112 148.671 412.699 147.542C410.285 146.414 407.041 144.485 402.955 141.769C400.386 144.826 398.551 146.97 397.433 148.168C396.316 149.365 394.813 150.847 392.899 152.58C391.866 153.587 390.976 154.019 390.231 153.901C389.498 153.781 388.899 153.48 388.438 153.034C387.988 152.575 387.71 151.957 387.604 151.166C388.752 150.556 390.067 149.542 391.538 148.135C393.008 146.728 394.117 145.581 394.877 144.704C395.637 143.827 397.071 142.079 399.179 139.448C398.558 138.83 397.846 138.144 397.045 137.416C396.244 136.687 395.842 135.709 395.843 134.518L395.868 134.516ZM423.386 115.347C422.711 115.175 421.985 114.981 421.221 114.778C419.269 113.407 417.266 111.832 415.234 110.025C414.845 109.562 414.528 109.081 414.27 108.571C414.019 108.147 413.827 107.695 413.707 107.212C413.482 106.479 413.665 105.938 414.255 105.614C414.846 105.289 415.495 105.267 416.18 105.574C416.458 105.689 416.871 105.967 417.431 106.418L418.217 107.098C419.208 107.911 420.591 109.053 422.378 110.521C423.134 111.13 423.632 111.745 423.874 112.378C424.114 112.999 423.953 114.006 423.388 115.372L423.386 115.347Z" fill="#AA9479"/>
<path d="M463.755 117.58C463.626 120.07 463.65 122.634 463.839 125.273C464.027 127.911 464.32 130.112 464.702 131.853C465.097 133.593 465.553 134.825 466.095 135.535C466.72 136.202 466.858 136.77 466.513 137.261C466.168 137.752 465.612 138.05 464.82 138.143C464.032 138.285 463.278 137.86 462.53 136.846C461.782 135.831 461.183 134.143 460.705 131.758C460.228 129.386 459.913 127.211 459.774 125.256C459.634 123.302 459.554 121.847 459.525 120.928C457.028 123.095 455.099 125.124 453.746 126.989C452.394 128.853 451.429 130.985 450.851 133.371C450.721 133.958 450.469 134.381 450.108 134.652C449.746 134.924 449.299 135.017 448.766 134.945C448.233 134.872 447.64 134.657 446.989 134.311C446.351 133.963 445.935 133.477 445.757 132.876C447.134 129.807 448.1 127.184 448.644 124.996C449.199 122.808 449.532 120.599 449.667 118.355C449.789 116.111 449.575 114.494 449.026 113.514C447.936 113.727 447.108 113.651 446.555 113.298C445.998 112.896 445.532 112.389 445.156 111.765C444.781 111.153 444.69 110.57 444.897 110.028C445.104 109.485 446.171 109.139 448.114 109C449.137 109.062 450.092 109.362 451.001 109.886C451.91 110.41 452.523 111.25 452.874 112.379C453.217 114.086 453.424 115.618 453.498 116.988C453.571 118.358 453.599 119.436 453.57 120.236C455.146 118.749 456.393 117.64 457.323 116.911C458.241 116.182 458.99 115.503 459.573 114.896C459.49 108.751 459.626 103.45 459.995 98.9909C460.364 94.5446 460.628 91.53 460.774 89.9726C460.795 89.5782 460.892 89.2152 461.101 88.881C461.256 88.6489 461.468 88.5232 461.737 88.504L462.006 88.4848C462.366 88.545 463.021 88.7683 463.981 89.1417C464.94 89.515 465.333 90.3709 465.159 91.7094C464.593 96.8451 464.239 100.996 464.086 104.174C463.932 107.353 463.881 110.07 463.907 112.327C465.104 111.714 466.732 110.971 468.796 110.124C470.81 109.267 473.512 108.595 476.888 108.084C480.302 107.57 483.393 108.22 486.161 110.011C488.928 111.802 490.306 114.589 490.305 118.346C489.944 120.68 489.21 122.783 488.106 124.679C487.001 126.575 485.751 128.322 484.368 129.931C483.759 130.687 483.319 131.222 483.06 131.547C482.788 131.873 482.278 132.119 481.515 132.259C480.751 132.4 479.97 132.296 479.17 131.923C478.371 131.563 478.229 130.959 478.747 130.124C479.725 128.863 480.733 127.514 481.773 126.09C482.825 124.664 483.773 123.147 484.64 121.538C485.495 119.93 486.046 118.54 486.27 117.37C486.46 116.252 486.362 115.227 485.989 114.309C485.617 113.39 484.655 112.648 483.105 112.096C481.556 111.544 479.141 111.594 475.848 112.247C472.555 112.9 468.533 114.685 463.78 117.591L463.755 117.58Z" fill="#AA9479"/>
<path d="M526.952 107.684C529.211 105.791 531.254 104.135 533.067 102.704C534.892 101.272 536.531 99.9882 538.01 98.8634C539.016 97.9934 540.064 97.8817 541.176 98.5019C541.818 98.898 542.359 99.4119 542.784 100.044C543.21 100.677 543.397 101.4 543.368 102.2C543.239 104.69 543.247 107.538 543.414 110.73C543.58 113.923 543.919 116.256 544.439 117.692C544.96 119.14 545.437 120.137 545.843 120.673C546.263 121.22 546.753 121.541 547.336 121.634C547.923 121.764 549.059 121.511 550.729 120.827C552.412 120.154 554.358 119.217 556.605 118.013C558.839 116.809 560.336 116.113 561.073 115.938C561.386 116.541 561.433 117.029 561.241 117.423C561.048 117.818 560.707 118.37 560.23 119.092C559.754 119.813 558.704 120.76 557.082 121.944C555.461 123.128 553.615 124.108 551.547 124.894C549.48 125.68 547.639 125.689 546.037 124.92C544.245 124.078 542.693 122.286 541.367 119.544C540.042 116.803 539.301 113.823 539.132 110.607C538.963 107.39 538.84 105.495 538.763 104.924C538.673 104.353 538.53 103.897 538.333 103.555C536.887 104.456 535.314 105.625 533.601 107.085C531.887 108.534 529.61 110.686 526.758 113.554C526.661 116.483 526.662 118.902 526.775 120.821C526.887 122.741 527.013 124.672 527.151 126.602C527.289 128.532 527.482 130.544 527.715 132.602C527.838 133.121 527.839 133.649 527.728 134.16C527.605 134.672 527.009 134.911 525.924 134.854C524.84 134.796 524.13 134.319 523.795 133.41C523.669 132.842 523.47 131.273 523.188 128.702C522.918 126.131 522.771 122.519 522.746 117.88C521.387 119.303 520.054 120.933 518.75 122.782C517.445 124.619 516.024 126.55 514.486 128.563C513.728 129.808 512.795 129.986 511.663 129.097C509.997 128.111 509.392 126.693 509.837 124.844C510.353 122.106 511.012 118.965 511.814 115.408C512.076 114.101 511.941 113.41 511.394 113.314C510.865 113.303 510.312 113.294 509.769 113.259C509.215 113.237 508.676 113.079 508.178 112.808C507.625 112.454 507.189 112.031 506.896 111.537C506.592 111.055 506.389 110.627 506.279 110.292C506.208 109.99 506.491 109.65 507.103 109.275C507.714 108.9 508.609 108.701 509.787 108.69C510.964 108.667 512.375 109.18 514.045 110.215C515.437 111.135 516.166 112.396 516.245 114.011C516.311 115.627 516.341 117.246 516.323 118.892C517.219 117.858 518.238 116.643 519.353 115.25C520.47 113.869 521.64 112.373 522.853 110.788C522.8 104.555 522.825 100.097 522.929 97.4372C523.022 94.7786 523.113 92.1078 523.193 89.4501C523.178 88.0393 523.151 86.9731 523.1 86.2646C523.063 85.7393 523.237 85.4322 523.638 85.3667L523.772 85.3571C524.126 85.3318 524.635 85.4059 525.31 85.5786C526.075 85.7941 526.658 86.2311 527.063 86.9143C527.468 87.5974 527.605 88.312 527.488 89.0694C527.266 94.0454 527.112 98.0712 527.026 101.159C526.94 104.247 526.911 106.422 526.966 107.707L526.952 107.684Z" fill="#AA9479"/>
<path d="M587.242 105.374C588.631 105.053 590.346 104.992 592.374 105.203C594.403 105.414 596.542 106.305 598.777 107.864C600.937 109.563 602.083 112.035 602.228 115.254C602.284 117.239 602.098 118.934 601.658 120.341C601.979 120.539 602.292 120.786 602.57 121.073C602.959 121.537 603.025 122.109 602.754 122.791C602.329 123.706 601.775 124.2 601.068 124.275C600.361 124.35 599.77 124.331 599.272 124.231C598.187 125.193 597.226 126.011 596.391 126.696C595.086 127.674 593.405 128.543 591.334 129.28C589.262 130.018 587.117 130.061 584.894 129.372C582.568 128.434 581.779 126.673 582.528 124.09C582.965 122.819 583.779 121.84 584.971 121.166C586.162 120.491 587.463 119.968 588.875 119.622C590.287 119.275 591.722 119.087 593.18 119.044C594.638 119.001 595.913 119.143 596.992 119.471C597.896 117.859 598.322 116.27 598.284 114.701C598.233 113.133 597.687 111.846 596.607 110.831C595.541 109.826 594.27 109.217 592.794 109.016C590.286 108.618 587.899 108.899 585.648 109.859C583.396 110.818 581.858 111.812 581.048 112.839C580.502 113.271 579.994 113.553 579.512 113.686C579.03 113.806 578.621 113.75 578.274 113.541C577.927 113.32 577.615 113.085 577.328 112.848C577.04 112.598 576.807 112.259 576.628 111.805C576.436 111.352 576.334 110.967 576.311 110.637C576.287 110.307 576.425 110.002 576.748 109.709C577.059 109.417 577.36 109.162 577.649 108.92C577.939 108.679 578.19 108.415 578.392 108.143C580.904 106.195 583.467 103.225 586.054 99.2339C587.485 96.9216 588.568 95.0639 589.304 93.6853C590.04 92.3066 590.417 91.3957 590.434 90.9525C590.189 90.614 589.332 90.6385 587.85 91.0391C586.369 91.4397 584.844 92.1012 583.28 93.0602C582.938 93.2565 582.58 93.4049 582.182 93.507C581.784 93.5969 581.385 93.5149 580.971 93.2253C580.552 92.8623 580.112 92.3659 579.675 91.7587C579.239 91.1514 579.066 90.6114 579.167 90.1376C579.268 89.6638 579.573 89.2982 580.083 89.0407C582.807 87.4709 585.697 86.5152 588.778 86.1599C589.877 86.0813 590.948 86.2871 591.978 86.7904C593.009 87.2938 593.729 88.0895 594.139 89.1897C594.549 90.2899 594.626 91.5367 594.37 92.9301C594.028 94.3297 593.277 96.0163 592.105 98.0031C590.946 99.9891 589.976 101.544 589.221 102.654C588.454 103.777 587.794 104.683 587.219 105.388L587.242 105.374ZM586.664 126.127C587.944 126.171 589.274 125.892 590.618 125.28C591.975 124.679 593.311 123.798 594.64 122.635C592.538 122.257 590.979 122.258 589.987 122.636C588.995 123.014 588.182 123.49 587.533 124.039C586.886 124.601 586.592 125.298 586.651 126.128L586.664 126.127Z" fill="#AA9479"/>
</g>
<defs>
<clipPath id="clip0_1_180">
<rect width="595.724" height="139.021" fill="white" transform="translate(0 42.4917) rotate(-4.09025)"/>
</clipPath>
</defs>
</svg>
