<svg width="204" height="110" viewBox="0 0 204 110" fill="none" xmlns="http://www.w3.org/2000/svg">
<g clip-path="url(#clip0_1_116)">
<path d="M98.9523 52.3169C102.7 72.6746 84.8823 93.5172 64.1101 99.9061C53.3291 103.242 41.94 103.38 32.8044 103.104C21.864 109.935 13.8712 109.272 13.0345 104.727C12.285 100.656 18.9199 100.961 27.582 101.325L33.1006 101.523C39.8248 96.9954 47.8061 89.2999 56.1004 77.4548C39.8534 82.5799 25.9915 73.5408 24.1125 63.3336C20.7966 45.1088 38.1729 31.1219 54.6674 28.0854C63.7574 26.412 72.5171 27.3056 79.821 30.288C81.0931 26.882 82.2686 23.3763 83.4302 19.7948L84.8798 20.3307C83.7252 23.95 82.4775 27.4886 81.2053 30.8946C90.458 35.1042 97.1554 42.6623 98.9368 52.3393L98.9523 52.3169ZM30.7856 102.986L27.532 102.861C16.7185 102.404 14.2841 102.794 14.5874 104.441C15.2288 107.926 21.6215 108.511 30.7856 102.986ZM57.5374 75.3694C59.5974 72.3078 61.6689 68.9896 63.6985 65.4442C69.4326 55.5388 74.6107 44.2086 79.316 31.6927C72.2708 28.8389 63.8055 27.9499 54.9618 29.5779C38.865 32.5412 22.5064 45.6751 25.6997 63.0218C27.5369 73.0018 41.3325 81.681 57.5339 75.3505L57.5374 75.3694ZM97.4373 52.5958C95.7534 43.4491 89.4463 36.3086 80.7332 32.3717C76.0384 44.9443 70.8035 56.2849 65.0798 66.2471C63.4619 69.0511 61.8195 71.7225 60.2026 74.2131C64.2285 72.258 68.4503 69.3467 72.566 65.2214L73.6364 66.3558C68.6354 71.3097 63.5549 74.5553 58.6181 76.5606C50.3931 88.5692 42.2368 96.5905 35.1054 101.565C43.7223 101.682 53.8984 101.336 63.6728 98.3811C84.0492 92.1826 101.039 72.1582 97.4338 52.5769L97.4373 52.5958Z" fill="#AA9479" stroke="#AA9479" stroke-width="0.2" stroke-miterlimit="10"/>
<path d="M137.757 68.9033C131.557 72.9815 122.835 78.2484 118.821 78.9875C116.226 79.4651 114.476 78.5734 114.096 76.5092C113.89 75.3919 114.056 73.9517 114.36 72.6232C112.072 75.7266 108.839 79.4349 106.491 79.8671C105.317 80.0833 104.36 78.928 104.088 77.4509C103.436 73.9096 106.634 69.0526 110.176 68.4007C111.88 68.087 113.521 68.7051 114.366 69.9984L115.911 67.756L116.744 68.3467L117.273 68.5625C116.814 69.6847 115.222 74.0111 115.633 76.2458C115.85 77.4199 116.705 77.8107 118.542 77.4725C121.496 76.9287 128.267 73.2935 136.916 67.6289L137.764 68.9411L137.757 68.9033ZM106.205 78.3143C108.156 77.9552 111.153 74.349 113.348 71.3802C112.972 70.2942 111.758 69.6562 110.451 69.8968C107.8 70.3848 105.127 74.4794 105.615 77.1306C105.734 77.7745 106.069 78.3197 106.202 78.2953L106.205 78.3143Z" fill="#AA9479" stroke="#AA9479" stroke-width="0.2" stroke-miterlimit="10"/>
<path d="M167.303 61.9957L168.265 63.287C168.265 63.287 150.172 76.9948 143.392 78.2428C133.431 80.0766 133.035 70.6928 142.27 55.8746C143.501 53.9447 144.785 51.9854 146.186 50.024L145.125 50.2193C141.47 50.8921 139.392 50.237 139.002 48.1161L140.535 47.8337C140.731 48.8942 142.002 49.2083 144.843 48.6853C145.733 48.5215 146.669 48.2904 147.663 48.0488C149.857 45.0799 152.266 42.2088 154.683 39.4926L155.846 40.4924C153.925 42.6081 152.02 44.9167 150.258 47.2577L152.73 46.4308C155.504 45.548 158.263 44.6877 160.497 44.2763C163.793 43.6697 165.68 44.2426 166.025 46.1174L164.491 46.3997C164.338 45.5665 163.204 45.364 160.78 45.8103C158.659 46.2007 156.017 47.0591 153.239 47.9229C151.69 48.4429 150.134 48.9252 148.632 49.378C146.824 51.7863 145.15 54.2872 143.636 56.7C136.62 67.9378 133.676 78.4261 143.107 76.69C149.526 75.5082 167.284 61.9992 167.284 61.9992L167.303 61.9957Z" fill="#AA9479" stroke="#AA9479" stroke-width="0.2" stroke-miterlimit="10"/>
<path d="M199.796 57.4825C193.596 61.5607 184.874 66.8277 180.86 67.5667C178.265 68.0443 176.515 67.1526 176.135 65.0884C175.929 63.9711 176.095 62.5309 176.399 61.2024C174.111 64.3058 170.878 68.0141 168.53 68.4464C167.356 68.6625 166.399 67.5072 166.127 66.0301C165.475 62.4888 168.673 57.6319 172.215 56.9799C173.919 56.6662 175.56 57.2843 176.405 58.5776L177.95 56.3353L178.783 56.9259L179.312 57.1417C178.853 58.2639 177.261 62.5904 177.672 64.825C177.889 65.9991 178.744 66.3899 180.581 66.0517C183.535 65.5079 190.306 61.8728 198.955 56.2081L199.803 57.5204L199.796 57.4825ZM168.244 66.8935C170.195 66.5344 173.192 62.9283 175.387 59.9594C175.01 58.8735 173.797 58.2354 172.49 58.476C169.839 58.9641 167.166 63.0586 167.654 65.7099C167.773 66.3537 168.108 66.899 168.241 66.8746L168.244 66.8935Z" fill="#AA9479" stroke="#AA9479" stroke-width="0.2" stroke-miterlimit="10"/>
</g>
<defs>
<clipPath id="clip0_1_116">
<rect width="192.652" height="76.1945" fill="white" transform="translate(0 34.8794) rotate(-10.4308)"/>
</clipPath>
</defs>
</svg>
