<svg width="339" height="100" viewBox="0 0 339 100" fill="none" xmlns="http://www.w3.org/2000/svg">
<g clip-path="url(#clip0_1_37)">
<path d="M220.192 42.4299C220.25 42.4365 220.305 42.4456 220.363 42.4522C220.409 42.6624 220.488 42.8746 220.492 43.0855C220.509 44.1301 220.526 45.1772 220.503 46.2225C220.474 47.4789 220.351 48.7242 220.045 49.9525C219.838 50.7823 219.681 51.6263 219.532 52.4702C219.302 53.7675 219.105 55.0693 218.88 56.3666C218.646 57.7268 218.423 59.0894 218.149 60.4427C217.868 61.8338 217.536 63.2132 217.225 64.5973C217.211 64.6578 217.177 64.7136 217.16 64.7742C216.834 66.0078 216.483 67.2318 216.476 68.528C216.472 69.49 217.283 70.6898 218.309 70.8839C218.533 70.9254 218.753 71.0071 218.963 71.0991C220.362 71.714 221.431 70.767 221.717 69.6646C222.019 68.4917 222.319 67.3187 222.608 66.1435C222.733 65.6366 222.795 65.1106 222.95 64.6132C223.439 63.0529 223.905 61.4929 223.981 59.8465C223.99 59.6404 224.047 59.4335 224.099 59.2317C224.339 58.2582 224.592 57.287 224.825 56.3136C224.975 55.6832 225.12 55.0503 225.225 54.4106C225.451 53.0079 225.714 51.6045 225.836 50.1909C225.954 48.8326 226.083 47.4766 226.47 46.1716C226.977 44.4628 227.245 42.7504 226.997 40.9737C226.957 40.6855 226.965 40.389 226.963 40.0951C226.962 39.2738 227.26 38.6359 228.048 38.2738C228.312 38.1539 228.543 37.9592 228.789 37.8044C229.293 37.4896 229.827 37.2623 230.438 37.2698C230.892 37.2774 231.11 37.3943 231.233 37.8268C231.345 38.2243 231.415 38.6477 231.429 39.0593C231.471 40.2291 231.506 41.4015 231.49 42.5748C231.47 43.9741 231.503 45.3777 231.227 46.7637C231.13 47.2526 231.158 47.762 231.119 48.2625C231.047 49.2005 230.969 50.1362 230.887 51.0744C230.827 51.741 230.745 52.4055 230.686 53.0721C230.595 54.0933 230.564 55.1211 230.415 56.1333C230.056 58.5581 230.409 60.9384 230.88 63.2942C231.176 64.7662 232.063 66.0049 232.817 67.2834C232.9 67.4252 233.033 67.5411 233.147 67.6598C233.692 68.2134 234.297 68.6681 235.001 69.0307C235.7 69.3909 236.393 69.6808 237.176 69.7784C237.841 69.8604 238.496 70.0028 239.161 70.0897C240.477 70.2614 241.78 70.2298 243.084 69.922C245.498 69.3496 247.852 68.4542 250.381 68.4551C250.424 68.4544 250.464 68.4462 250.506 68.438C251.398 68.2951 251.748 67.9025 251.769 67.013C251.775 66.7618 251.761 66.5108 251.756 66.2597C251.738 64.9615 251.714 63.6658 251.705 62.3674C251.701 61.9932 251.7 61.6089 251.771 61.241C252.029 59.9357 252.025 58.6221 252.008 57.3012C251.993 56.1184 251.417 55.1408 250.911 54.137C250.856 54.0299 250.749 53.9437 250.65 53.8725C250.208 53.5583 249.763 53.2492 249.309 52.9503C248.681 52.5361 248.097 52.6086 247.658 53.2136C247.378 53.5975 247.136 54.0285 246.96 54.471C246.521 55.5708 246.352 56.724 246.331 57.9074C246.322 58.4074 246.242 58.906 246.19 59.4042C246.101 60.2346 246.019 61.0673 245.915 61.8954C245.862 62.3283 245.789 62.764 245.693 63.1901C245.578 63.6994 245.25 64.0388 244.752 64.1978C244.375 64.317 243.987 64.4088 243.607 64.5206C242.605 64.8134 241.605 65.1238 240.598 65.3967C239.737 65.6294 238.856 65.6314 237.982 65.4851C237.289 65.3685 236.818 64.9493 236.546 64.3032C236.284 63.6796 236.115 63.0369 236.094 62.3565C236.057 61.1867 235.993 60.0148 235.986 58.8444C235.978 57.7569 235.962 56.6646 236.073 55.5852C236.185 54.4631 236.46 53.361 236.63 52.2429C236.726 51.626 236.778 50.9997 236.808 50.3738C236.874 49.0591 236.86 47.7356 236.979 46.425C237.098 45.1119 237.239 43.8035 237.192 42.4806C237.163 41.6446 237.17 40.8056 237.141 39.9697C237.127 39.5731 237.095 39.1742 237.026 38.7835C236.859 37.8368 236.693 36.8876 236.474 35.9519C236.182 34.7058 235.686 33.5611 234.564 32.8211C233.291 31.9832 231.941 31.4403 230.367 31.7753C229.1 32.0449 227.81 32.2244 226.624 32.7916C226.474 32.8619 226.304 32.8898 226.144 32.9427C225.532 33.1437 224.948 33.0855 224.385 32.7733C224.221 32.6806 224.058 32.5853 223.889 32.5052C223.177 32.1653 222.431 31.9868 221.638 32.0627C220.841 32.1411 220.43 32.5372 220.341 33.3374C220.303 33.6671 220.319 34.0084 220.352 34.3394C220.421 35.0165 220.392 35.665 220.134 36.3123C219.902 36.8988 219.95 37.4807 220.283 38.058C220.521 38.4685 220.684 38.938 220.803 39.3982C220.87 39.6633 220.832 39.9854 220.749 40.2531C220.622 40.657 220.35 40.7319 219.962 40.5398C219.55 40.3357 219.147 40.1138 218.729 39.9222C218.099 39.6312 217.457 39.5665 216.778 39.8063C215.969 40.0909 215.144 40.3306 214.327 40.5928C211.933 41.3632 209.497 41.951 207 42.2811C205.903 42.4274 205.578 42.0861 205.377 40.9943C205.043 39.1788 205.202 37.3903 205.315 35.5675C205.458 33.2769 205.359 30.9652 205.273 28.6659C205.228 27.4083 204.405 26.5729 203.288 26.1493C202.107 25.7016 200.864 25.7121 199.656 26.144C198.947 26.3968 198.25 26.6796 197.544 26.9399C197.035 27.1292 196.512 27.286 196.011 27.4877C194.965 27.9094 193.933 28.3685 192.882 28.7777C191.442 29.3415 189.995 29.8904 188.539 30.4092C188.052 30.583 187.528 30.6645 187.015 30.7408C186.601 30.8029 186.249 30.6028 186.085 30.2313C185.664 29.2787 185.382 27.8366 186.643 26.9542C187.433 26.4012 188.117 25.7243 188.761 25.0053C190.1 23.5088 191.46 22.032 192.817 20.5528C193.086 20.2595 193.375 19.9885 193.67 19.7199C194.427 19.0292 195.189 18.346 195.951 17.6602C196.206 17.43 196.398 17.1681 196.445 16.8132C196.572 15.8616 196.146 15.0122 195.273 14.582C194.824 14.3609 194.345 14.2005 193.887 13.9971C193.388 13.7767 192.87 13.7652 192.347 13.8392C191.888 13.9045 189.799 15.0191 189.491 15.3607C188.958 15.9497 188.423 16.5388 187.895 17.1302C187.742 17.3011 187.589 17.4769 187.472 17.6722C186.993 18.4638 186.412 19.1717 185.767 19.8379C184.997 20.6343 184.254 21.4578 183.509 22.2789C183.3 22.511 183.126 22.7726 182.936 23.0218C182.354 23.785 181.822 24.595 181.181 25.3039C180.332 26.2372 179.468 27.1406 179.021 28.3536C178.977 28.4699 178.891 28.5668 178.825 28.6759C178.309 29.5409 178.449 29.9179 179.412 30.1431C180.153 30.3142 180.593 30.7641 180.738 31.4825C180.858 32.0959 180.931 32.7201 180.994 33.342C181.108 34.4654 181.167 35.5947 181.311 36.7151C181.588 38.8831 181.634 41.05 181.391 43.2242C181.308 43.9715 181.296 44.7278 181.2 45.4728C180.986 47.109 180.752 48.743 180.495 50.3748C180.392 51.017 179.983 51.4608 179.382 51.7169C179.209 51.7901 179.03 51.8508 178.86 51.934C177.512 52.6018 176.162 53.2621 174.824 53.9523C173.99 54.383 173.187 54.876 172.358 55.3142C171.489 55.7732 170.591 56.1823 169.864 56.8675C169.56 57.1538 169.256 57.4402 168.939 57.7117C167.908 58.5952 166.868 59.4689 165.84 60.355C165.397 60.739 165.265 61.2335 165.492 61.7748C165.808 62.5256 166.298 63.143 167.043 63.5175C167.491 63.7411 167.947 63.9521 168.405 64.1581C169.235 64.5312 169.856 64.4154 170.524 63.784C170.674 63.6408 170.843 63.5175 171.007 63.3867C171.56 62.9455 172.186 62.571 172.655 62.0533C173.972 60.5974 175.591 59.5885 177.314 58.7111C177.444 58.6462 177.584 58.5911 177.726 58.5636C178.119 58.4868 178.386 58.6708 178.428 59.0745C178.452 59.3202 178.414 59.5745 178.385 59.8212C178.28 60.7648 177.966 61.6466 177.611 62.524C177.119 63.7453 176.718 65.0028 176.205 66.2119C175.888 66.9581 175.43 67.6438 175.047 68.3635C174.577 69.2504 174.914 70.3022 175.815 70.7545C176.841 71.2701 177.936 71.3876 179.056 71.2485C179.307 71.2168 179.583 71.0766 179.771 70.9027C180.12 70.5779 180.418 70.1937 180.726 69.827C181.425 68.9941 181.765 67.9687 182.201 67.002C183.131 64.937 183.703 62.7474 184.303 60.5699C184.48 59.9264 184.686 59.2775 184.758 58.6157C184.871 57.5916 185.081 56.601 185.401 55.6212C185.679 54.7701 186.18 54.2268 187.014 53.9292C187.78 53.6554 188.528 53.329 189.282 53.0152C190.344 52.5731 191.389 52.0837 192.467 51.6916C194.02 51.1284 195.592 50.6177 197.166 50.1195C197.698 49.9499 198.264 49.8552 198.821 49.7907C199.395 49.7235 199.756 49.9938 199.853 50.5649C200.109 52.0476 200.45 53.5113 200.46 55.0333C200.476 57.3966 200.56 59.7562 201.033 62.0893C201.249 63.1507 201.308 64.2449 201.436 65.3253C201.521 66.0523 201.613 66.7767 201.683 67.5065C201.759 68.319 201.768 69.1402 201.889 69.9445C202.064 71.102 202.301 72.246 202.363 73.4229C202.396 74.0453 202.552 74.6606 202.645 75.2795C202.724 75.7956 202.803 76.3117 202.859 76.8307C202.937 77.5804 202.997 78.3305 203.057 79.0805C203.076 79.3087 203.105 79.5418 203.081 79.7683C203.027 80.2992 202.707 80.538 202.171 80.464C202.027 80.4438 201.881 80.4035 201.752 80.3403C200.942 79.9493 200.131 79.5633 199.333 79.1495C198.852 78.8988 198.422 78.5467 197.928 78.3288C196.453 77.6825 194.966 77.0666 193.472 76.4684C192.812 76.203 192.564 75.9358 192.53 75.2281C192.518 74.9997 192.522 74.7635 192.576 74.5416C192.829 73.4624 193.095 72.3855 193.372 71.3134C193.643 70.2616 193.95 69.2191 194.206 68.1625C194.3 67.7791 194.334 67.3742 194.332 66.9799C194.326 65.2218 194.312 63.4638 194.263 61.7089C194.245 61.0863 194.174 60.4495 194.021 59.8467C193.873 59.2664 193.69 58.649 193.348 58.1724C192.61 57.1447 191.642 56.4424 190.261 56.6435C190.095 56.6664 189.927 56.6541 189.759 56.6669C188.873 56.7343 188.429 57.2138 188.471 58.1023C188.49 58.4762 188.559 58.8518 188.643 59.2172C188.933 60.521 189 61.821 188.69 63.1347C188.592 63.5583 188.609 64.0076 188.571 64.4453C188.544 64.7572 188.539 65.0737 188.484 65.3811C188.1 67.5199 187.723 69.6611 187.301 71.793C187.106 72.7758 186.801 73.7353 186.578 74.7135C186.436 75.3438 186.293 75.9842 186.256 76.6253C186.212 77.3318 186.525 77.7411 187.209 77.9181C188.362 78.2181 189.53 78.5354 190.706 77.9834C190.799 77.9392 190.906 77.9224 191.009 77.9006C191.515 77.7943 191.924 77.9307 192.185 78.3961C192.695 79.3044 193.403 80.0488 194.173 80.7268C194.925 81.3875 195.733 81.9694 196.652 82.4139C197.662 82.902 198.707 83.3545 199.544 84.1494C199.787 84.379 200.054 84.5906 200.34 84.7592C201.459 85.4063 202.592 86.0331 203.718 86.6676C204.027 86.8433 204.329 87.0292 204.638 87.2049C205.145 87.498 205.636 87.8264 206.169 88.0663C206.969 88.4248 207.783 88.7605 208.701 88.675C209.419 88.6079 209.968 88.1115 210.014 87.4C210.034 87.0882 210.026 86.7693 209.971 86.4613C209.619 84.4853 209.253 82.5121 208.891 80.5363C208.813 80.1056 208.728 79.6725 208.674 79.2389C208.449 77.5195 208.237 75.7974 208.016 74.0781C207.981 73.8099 207.919 73.5421 207.847 73.2796C207.566 72.262 207.524 71.2203 207.489 70.1709C207.464 69.4229 207.344 68.6764 207.258 67.9293C207.147 66.934 207.015 65.939 206.918 64.9409C206.839 64.151 206.856 63.347 206.728 62.5654C206.513 61.2629 206.288 59.968 206.254 58.6449C206.242 58.2281 206.147 57.8153 206.085 57.4019C206.009 56.9058 205.88 56.4131 205.857 55.9137C205.754 53.6347 205.678 51.3553 205.601 49.0759C205.592 48.8676 205.604 48.6539 205.646 48.4522C205.767 47.8826 206.069 47.4556 206.659 47.2876C206.799 47.2477 206.939 47.2052 207.081 47.1676C208.717 46.7287 210.355 46.2922 211.99 45.8533C212.455 45.7275 212.915 45.5893 213.38 45.4661C214.776 45.0964 216.19 44.7943 217.559 44.3472C218.466 44.0509 219.335 43.5919 219.878 42.7239C219.949 42.6097 220.078 42.5297 220.18 42.4351L220.192 42.4299ZM83.6087 37.7189C83.5886 37.7192 83.5685 37.7196 83.5459 37.7199C83.5615 38.6616 83.577 39.6032 83.5926 40.5449C83.6157 41.946 83.6088 43.3502 84.0131 44.715C84.0902 44.9724 84.0873 45.2538 84.1269 45.5219C84.234 46.2234 84.2935 46.9382 84.4631 47.6262C84.762 48.8419 85.3126 49.938 86.1991 50.8452C87.1649 51.8314 88.6406 51.91 89.7011 51.0309C89.7977 50.9515 89.8943 50.867 90.0038 50.8074C90.7628 50.3804 91.8659 50.7088 91.8212 51.8072C91.7931 52.5386 91.8454 53.2712 91.8249 54.0024C91.792 55.2086 91.1673 56.0126 90.1064 56.5601C88.7889 57.24 87.4898 57.9647 86.206 58.7068C85.778 58.955 85.3995 59.3028 85.0308 59.6405C84.6473 59.9934 84.3124 60.3983 83.9391 60.7612C83.3533 61.331 83.2883 61.96 83.8088 62.5994C84.2471 63.1347 84.7543 63.5784 85.368 63.935C86.4459 64.5627 87.451 64.5863 88.4815 63.8685C88.8242 63.6318 89.1977 63.4347 89.5714 63.2477C90.1567 62.9517 90.6027 63.1854 90.7214 63.834C90.7435 63.9567 90.7557 64.0846 90.7451 64.2079C90.697 64.7914 90.659 65.3772 90.5806 65.9562C90.4621 66.8423 89.9693 67.4181 89.1363 67.7735C88.2733 68.1419 87.4495 68.6026 86.6048 69.0159C85.8922 69.3643 85.1745 69.7027 84.4618 70.051C84.0308 70.2616 83.5972 70.4722 83.1766 70.7077C82.6018 71.0312 82.3816 71.5422 82.5079 72.1906C82.6644 72.9993 83.0844 73.6354 83.8239 74.0025C84.9154 74.5445 86.0586 74.8698 87.2781 74.4955C88.0953 74.2433 88.9199 73.9836 89.7003 73.6391C91.1141 73.013 92.5176 72.3643 93.8846 71.646C95.4932 70.8006 97.0188 69.7908 98.6534 69.0027C100.458 68.134 102.246 67.2002 104.207 66.6981C104.327 66.6685 104.436 66.5989 104.553 66.5543C105.123 66.3464 105.684 66.1211 106.261 65.9383C106.878 65.7397 107.509 65.5861 108.131 65.4C108.603 65.2591 108.824 64.9063 108.929 64.4424C109.325 62.7254 107.477 60.945 105.889 61.3505C104.271 61.7665 102.576 61.8297 100.972 62.341C100.438 62.5105 99.9055 62.6926 99.3708 62.8597C98.8735 63.0161 98.3793 63.2026 97.8711 63.3065C97.1077 63.4648 96.6736 63.0349 96.6707 62.4045C96.6683 62.2588 96.6433 62.1136 96.6358 61.9655C96.5445 60.2415 97.1516 59.4327 98.8441 59.1058C100.176 58.8477 101.467 58.3868 102.845 58.349C103.398 58.3348 103.654 58.0192 103.76 57.4774C103.973 56.3888 103.334 55.2414 102.283 54.8594C101.335 54.5159 100.369 54.2531 99.3467 54.2599C99.0982 54.264 98.844 54.2381 98.5973 54.1995C98.1415 54.1291 97.8355 53.8529 97.6928 53.4257C97.6136 53.1909 97.5868 52.9377 97.5651 52.6894C97.4593 51.4553 97.8193 50.2865 98.0684 49.0993C98.1896 48.5272 98.484 48.1028 98.9943 47.8256C99.6366 47.4785 100.279 47.1313 100.929 46.7915C101.713 46.3817 102.449 45.9174 102.972 45.1703C103.536 44.3623 104.326 44.1232 105.283 44.2731C106.215 44.421 106.466 44.8639 106.083 45.7117C105.828 46.2735 105.474 46.749 105.06 47.2005C104.423 47.8917 104.392 48.5754 105.001 49.2736C105.367 49.6946 105.805 50.0666 106.256 50.3983C107.156 51.0565 109.214 51.1531 110.075 50.0589C110.176 49.9316 110.33 49.8437 110.459 49.7385C111.029 49.2795 111.679 48.8895 112.152 48.3467C113.017 47.3528 114.132 46.7492 115.253 46.1479C116.871 45.2773 118.512 44.4439 120.157 43.6205C121.108 43.1426 122.075 42.6896 123.053 42.264C123.838 41.922 124.65 41.6423 125.449 41.3277C126.362 40.9685 127.265 40.5794 128.191 40.2476C129.824 39.663 131.47 39.1234 133.164 38.7212C134.24 38.4673 135.278 38.0583 136.341 37.7444C137.403 37.4304 138.47 37.1315 139.546 36.8676C139.924 36.7759 140.338 36.7565 140.725 36.7928C141.352 36.8528 141.558 37.3216 141.172 37.8128C140.643 38.4846 140.091 39.1417 139.501 39.7593C138.634 40.6653 137.717 41.5244 136.832 42.4131C135.461 43.7896 134.11 45.1858 132.731 46.5549C131.723 47.5562 130.679 48.5204 129.401 49.192C129.132 49.3321 128.877 49.5548 128.703 49.8013C128.364 50.2816 128.588 50.7652 129.163 50.8738C129.266 50.8922 129.372 50.903 129.475 50.9038C130.397 50.9011 131.316 50.9085 132.237 50.8858C132.526 50.881 132.816 50.8034 133.099 50.7309C133.809 50.5534 134.517 50.3709 135.22 50.1709C136.337 49.851 137.377 49.3943 138.227 48.5614C139.122 47.6851 140.063 46.8683 141.106 46.1503C142.045 45.5018 142.873 44.6819 143.709 43.892C144.997 42.6726 146.288 41.4632 147.441 40.1004C148.412 38.9515 149.454 37.8718 150.31 36.6194C150.737 35.9945 151.04 35.3515 151.201 34.6355C151.428 33.617 151.057 32.754 150.293 32.1111C149.274 31.2589 148.105 30.7306 146.727 30.8036C145.809 30.8515 144.888 30.8968 143.969 30.902C142.665 30.9084 141.375 30.9599 140.137 31.4299C140.06 31.4588 139.974 31.4728 139.892 31.4842C137.958 31.7799 136.146 32.5131 134.271 33.0188C132.778 33.4203 131.272 33.7717 129.77 34.1305C129.55 34.1844 129.305 34.2111 129.085 34.172C128.617 34.0868 128.119 34.0322 127.706 33.818C126.908 33.4092 126.176 32.8763 125.39 32.4372C124.68 32.042 123.958 31.6545 123.204 31.3581C122.332 31.0158 121.421 30.7671 120.522 30.4956C119.313 30.1288 118.081 30.2195 116.851 30.3604C116.768 30.3693 116.685 30.3932 116.605 30.4172C115.828 30.6536 115.572 31.2757 115.966 31.985C116.129 32.2787 116.319 32.5569 116.465 32.8559C116.86 33.6657 117.555 34.1038 118.357 34.407C118.647 34.5178 118.965 34.5602 119.265 34.6557C119.942 34.8731 120.626 35.0728 121.281 35.3408C121.554 35.4518 121.796 35.694 121.991 35.9294C122.288 36.2887 122.235 36.5608 121.84 36.816C121.507 37.03 121.156 37.2241 120.797 37.3908C119.621 37.9352 118.436 38.4597 117.257 38.9966C116.878 39.1686 116.515 39.3906 116.125 39.5327C114.782 40.0195 113.53 40.6883 112.291 41.3869C111.036 42.0933 109.792 42.8146 108.541 43.5235C108.434 43.5831 108.309 43.6228 108.186 43.6475C107.78 43.7245 107.517 43.5631 107.482 43.1492C107.451 42.778 107.497 42.4005 107.534 42.0281C107.569 41.696 107.626 41.366 107.693 41.0384C107.837 40.3227 107.936 39.5926 108.155 38.9008C108.456 37.9614 108.715 37.0203 108.844 36.0411C108.94 35.3186 109.089 34.6003 109.228 33.8847C109.404 32.9826 109.595 32.0852 109.779 31.183C109.911 30.5278 109.947 29.8339 110.193 29.2245C110.685 28.0007 110.793 26.7481 110.671 25.4666C110.565 24.3506 110.155 23.3904 108.995 22.9549C108.878 22.9117 108.774 22.8355 108.66 22.7821C107.058 22.0325 105.411 21.492 103.61 21.4464C101.258 21.3873 99.0182 22.0623 96.7308 22.4116C95.3378 22.623 94.0539 23.2093 92.8168 23.8878C91.2212 24.7632 89.6022 25.5886 88.0041 26.459C87.0407 26.9823 86.0582 27.413 84.9554 27.5593C84.1384 27.6682 83.8483 28.0523 83.7927 28.9398C83.7035 30.3805 83.584 31.8192 83.5551 33.2615C83.5269 34.7464 83.5917 36.2322 83.6162 37.7163L83.6087 37.7189ZM291.238 58.1702C291.273 60.2619 291.295 62.3563 291.349 64.4477C291.369 65.1983 291.402 65.9589 291.535 66.6976C291.72 67.7344 291.737 68.7765 291.797 69.8204C291.882 71.3009 291.999 72.7809 292.124 74.2608C292.202 75.1964 292.316 76.1314 292.419 77.064C292.458 77.4176 292.491 77.7737 292.562 78.1216C292.86 79.576 293.158 81.0304 293.483 82.4793C293.565 82.8397 293.699 83.2092 293.895 83.5174C294.81 84.9616 296.16 85.6326 297.853 85.6347C298.697 85.6359 299.155 85.2591 299.24 84.4213C299.348 83.3746 299.29 82.3357 299.002 81.3106C298.063 77.9705 297.575 74.5626 297.477 71.098C297.426 69.2351 297.416 67.3741 297.365 65.5112C297.35 64.9488 297.311 64.3793 297.219 63.8257C297.021 62.641 296.976 61.4612 297.115 60.2633C297.181 59.7096 297.111 59.1356 297.079 58.5735C297.034 57.7805 296.955 56.9906 296.912 56.1976C296.879 55.5702 296.904 54.9419 296.856 54.3148C296.753 52.9526 296.813 51.6003 296.997 50.2459C297.071 49.6946 296.999 49.1231 296.989 48.5607C296.978 47.8726 296.939 47.1851 296.945 46.4967C296.948 45.9341 297.022 45.3702 297.023 44.8051C297.022 43.5718 296.987 42.3366 296.987 41.1008C296.988 40.7065 297.036 40.3088 297.095 39.916C297.195 39.2513 297.574 38.8029 298.224 38.6264C298.992 38.4203 299.762 38.2243 300.541 38.0732C301.3 37.9251 302.066 37.7969 302.836 37.7339C305.003 37.5524 307.174 37.4086 309.341 37.2421C310.194 37.1753 311.046 37.0859 311.899 37.0065C312.483 36.9516 313.065 36.8591 313.65 36.852C316.977 36.8121 320.302 36.7898 323.63 36.7649C323.838 36.7615 324.05 36.7781 324.256 36.8099C326.137 37.0953 328.018 37.3781 329.897 37.6787C330.33 37.7469 330.752 37.8831 331.178 37.984C332.623 38.3244 334.063 38.6823 335.514 38.9874C335.958 39.0805 336.433 39.0827 336.887 39.0426C337.559 38.9812 337.923 38.5382 337.95 37.8646C337.982 37.0653 337.709 36.3716 337.123 35.8387C336.314 35.1036 335.424 34.4326 334.391 34.0855C332.83 33.5561 331.257 33.0396 329.592 32.8913C327.843 32.7368 326.09 32.5724 324.353 32.3198C322.333 32.0266 320.306 31.9797 318.279 32.0032C314.723 32.0469 311.166 32.191 307.611 32.2698C306.391 32.2975 305.189 32.3852 304.009 32.7187C303.769 32.7854 303.513 32.7922 303.265 32.8239C302.292 32.948 301.32 33.0972 300.342 33.1912C299.575 33.2642 298.799 33.3071 298.028 33.2947C297.413 33.2848 297.09 32.9008 297.064 32.2783C297.056 32.0499 297.097 31.8181 297.098 31.5895C297.108 30.8007 297.524 30.294 298.217 30.0012C299.098 29.63 299.881 29.1122 300.563 28.4554C301.755 27.3105 302.934 26.1532 304.09 24.9737C304.45 24.606 304.722 24.1494 305.036 23.7373C305.403 23.2565 305.72 22.7288 306.148 22.3124C307.718 20.7819 308.992 19.0403 310 17.0971C310.657 15.8279 310.434 14.6159 309.373 13.6564C308.264 12.6499 307.107 12.5284 305.809 13.2255C305.264 13.5183 304.91 13.9587 304.589 14.4538C304.305 14.8905 304.031 15.3371 303.729 15.7615C303.042 16.7324 302.344 17.6933 301.649 18.6593C301.406 18.9973 301.179 19.3502 300.915 19.6686C300.287 20.4249 299.649 21.1714 299 21.9105C298.754 22.1909 298.495 22.479 298.195 22.6949C297.214 23.4019 296.752 23.2211 296.508 22.0421C296.306 21.0609 296.162 20.0661 295.955 19.0849C295.799 18.349 295.666 17.5927 295.374 16.9068C294.611 15.1134 293.656 13.4263 292.348 11.9509C291.606 11.1142 291.823 10.2415 292.842 9.77759C293.298 9.56911 293.773 9.40303 294.234 9.20452C295.733 8.56186 297.238 7.94173 298.831 7.54366C299.496 7.37694 300.132 7.09015 300.781 6.86341C301.156 6.73163 301.525 6.57734 301.911 6.4906C303.152 6.20385 304.395 5.9271 305.647 5.68288C306.383 5.53759 307.133 5.46241 307.875 5.34467C308.163 5.29972 308.458 5.25716 308.723 5.14479C308.922 5.06111 309.123 4.89956 309.241 4.71928C309.687 4.04128 309.586 2.96289 309.034 2.37674C308.318 1.61746 307.426 1.12232 306.399 1.04131C304.938 0.924798 303.457 0.944253 302.025 1.2894C300.097 1.7558 298.171 2.27237 296.285 2.88626C293.939 3.6484 291.628 4.523 289.311 5.37257C288.095 5.81714 286.892 6.3042 285.69 6.78874C284.467 7.28114 283.257 7.80348 282.04 8.30082C281.034 8.71178 280.034 9.14525 279.008 9.5038C278.394 9.71991 277.792 9.92577 277.225 10.2566C276.759 10.5306 276.232 10.6975 275.749 10.9441C275.139 11.2606 274.531 11.5922 273.95 11.9559C273.629 12.1572 273.378 12.4476 273.359 12.8699C273.315 13.9783 273.748 14.9332 274.607 15.5444C275.58 16.2391 276.705 16.5245 277.942 16.1047C279.096 15.7114 280.19 15.206 281.276 14.6631C282.529 14.0396 283.824 13.5058 285.103 12.9321C285.218 12.88 285.332 12.8329 285.45 12.7857C286.31 12.4399 287.056 12.5457 287.735 13.2428C288.844 14.3798 289.518 15.7602 290.062 17.2181C290.277 17.7947 291.058 22.205 291.071 22.8277C291.131 26.0091 291.189 29.188 291.234 32.3696C291.241 32.7865 291.207 33.209 291.126 33.6172C290.996 34.2674 290.619 34.7006 289.92 34.8051C289.592 34.8558 289.27 34.959 288.944 35.0297C288.168 35.1932 287.392 35.3492 286.616 35.5077C285.88 35.658 285.123 35.7409 284.411 35.9636C282.612 36.5258 280.78 36.9354 278.927 37.2699C278.476 37.3502 278.026 37.4581 277.588 37.601C276.574 37.9267 275.568 38.2774 274.561 38.6255C272.743 39.2534 270.922 39.8712 269.112 40.5265C268.405 40.7819 267.725 41.1096 267.047 41.4322C266.235 41.8199 265.459 42.2823 264.631 42.6301C262.575 43.4929 260.657 44.5846 258.87 45.9126C258.585 46.1233 258.297 46.3416 257.983 46.5025C257.318 46.84 256.768 47.3137 256.257 47.8446C255.62 48.5032 255.568 49.3304 256.123 50.0547C256.762 50.8855 257.6 51.4092 258.628 51.6007C259.338 51.7321 260.042 51.7532 260.685 51.3155C261.1 51.0349 261.538 50.7891 261.953 50.5084C262.506 50.1326 263.035 49.722 263.596 49.3585C264.421 48.8275 265.265 48.3187 266.105 47.81C266.695 47.4537 267.271 47.0599 267.896 46.7732C269.36 46.1035 270.823 45.4188 272.331 44.8664C274.076 44.2272 275.871 43.7153 277.645 43.156C278.382 42.9228 279.135 42.732 279.867 42.4813C282.07 41.7241 284.34 41.2495 286.618 40.805C287.272 40.6786 287.933 40.5421 288.56 40.3258C289.089 40.1437 289.613 40.0673 290.16 40.0833C290.826 40.1025 291.155 40.3859 291.257 41.0498C291.301 41.3379 291.311 41.6342 291.316 41.9254C291.342 43.9545 291.366 45.9861 291.384 48.0153C291.389 48.3066 291.356 48.601 291.336 48.8927C291.268 49.8307 291.138 50.7697 291.139 51.7066C291.137 53.8617 291.197 56.0183 291.233 58.1727L291.238 58.1702ZM22.7822 87.6048C22.4716 87.9591 22.5171 88.2798 22.6523 88.5589C23.0739 89.4461 23.4532 90.3642 23.9842 91.1843C25.0178 92.7798 26.3829 94.0734 27.9358 95.173C28.2712 95.411 28.5478 95.733 28.8514 96.0143C29.1091 96.2562 29.3303 96.5716 29.6342 96.7223C30.6446 97.223 31.6555 97.7463 32.7213 98.1004C33.6835 98.4211 34.6958 98.5727 35.6638 98.9385C36.7658 99.3523 37.6721 98.7219 37.8565 97.566C37.9247 97.1328 37.9173 96.6884 37.973 96.2555C38.1953 94.5111 38.3926 92.7698 38.3233 91.0052C38.1902 87.6642 38.3131 84.3065 37.7509 80.9903C37.6646 80.4768 37.6734 79.9492 37.6046 79.4304C37.5297 78.8514 37.4448 78.2726 37.3148 77.7046C37.0442 76.5235 36.7409 75.348 36.4527 74.1722C36.3827 73.8871 36.3102 73.6044 36.2352 73.3218C35.8685 71.954 35.1578 70.745 34.5168 69.4972C33.4347 67.3952 31.7686 65.8303 29.9714 64.378C29.6201 64.095 29.1893 63.8685 28.7576 63.7325C27.0432 63.1907 25.3168 62.6892 23.5906 62.1902C23.1287 62.0572 23.0272 61.8429 23.3807 61.5005C23.7096 61.1836 24.0687 60.8788 24.4618 60.6512C26.1286 59.6793 27.936 59.0039 29.6966 58.2364C31.0582 57.6437 32.4487 57.1259 33.8182 56.5532C34.3395 56.3361 34.8164 56.0093 35.3458 55.8247C37.5359 55.0526 39.7312 54.2979 41.9346 53.5733C43.0063 53.2215 44.1255 53.0046 45.1868 52.6279C46.1781 52.2775 47.2029 52.2781 48.2186 52.1835C48.8581 52.1227 49.1554 52.6327 48.8001 53.171C48.3639 53.8313 47.8999 54.4795 47.3848 55.0782C46.6776 55.9012 45.8913 56.6577 45.1764 57.4732C44.5576 58.1792 44.0077 58.9468 43.3991 59.6627C42.6846 60.5059 42.0136 61.3961 41.0874 62.0393C40.8863 62.1808 40.7061 62.3721 40.5586 62.5705C40.2122 63.0384 40.2913 63.5671 40.7786 63.8755C41.0731 64.0615 41.4154 64.2568 41.7473 64.2814C42.9344 64.3749 44.1257 64.418 45.3166 64.4385C45.8568 64.4471 46.3148 64.1959 46.7128 63.8126C47.1035 63.4369 47.5504 63.1206 47.9461 62.7499C49.0443 61.722 50.1782 60.7237 51.2101 59.6316C52.5431 58.2181 53.7944 56.728 55.0764 55.2651C55.3525 54.9516 55.6184 54.6282 55.8665 54.2901C56.3848 53.5832 56.8828 52.8642 57.3909 52.15C57.5358 51.9467 57.7034 51.7555 57.8305 51.5399C58.3338 50.6877 58.3122 49.834 57.8059 48.9884C57.3539 48.2348 56.6692 47.8392 55.8551 47.5161C53.567 46.6095 51.2096 46.5254 48.8119 46.7383C48.6037 46.7568 48.3958 46.7929 48.1931 46.8364C46.7213 47.1446 45.2524 47.4778 43.7752 47.7659C41.6747 48.1774 39.6248 48.7714 37.6542 49.5976C35.9405 50.3142 34.146 50.703 32.3463 51.0818C32.2237 51.1065 32.0981 51.1111 31.9729 51.1307C31.2238 51.2461 30.6193 50.9923 30.1301 50.4227C29.8843 50.1379 29.6409 49.8481 29.3802 49.5786C28.4015 48.565 27.3957 47.5894 25.9462 47.2718C25.8857 47.2577 25.8251 47.2336 25.7694 47.2069C24.7206 46.6691 24.6477 45.9068 25.5345 45.1562C25.6138 45.0896 25.7111 45.0478 25.8058 45.001C26.1646 44.8293 26.5416 44.6924 26.8824 44.4884C27.9419 43.853 28.8978 43.9427 29.7814 44.8223C30.1823 45.22 30.6904 45.4126 31.2536 45.451C31.7138 45.4811 32.1757 45.4659 32.6312 45.5212C34.335 45.7241 35.6222 44.884 36.7725 43.8126C37.7817 42.8716 38.7015 41.8391 39.6519 40.8338C39.8938 40.5761 40.1203 40.2961 40.3139 40.0015C41.0246 38.9324 40.6825 37.5314 39.5302 36.9627C38.5527 36.479 37.5319 36.1141 36.3979 36.1906C35.6251 36.2436 34.8515 36.2438 34.078 36.2515C33.3146 36.2591 32.5783 36.3919 31.8696 36.6673C31.1483 36.948 30.4483 37.3011 29.7083 37.5093C28.2908 37.912 26.9591 38.4941 25.6412 39.1438C24.2186 39.848 22.6737 40.293 21.3085 41.1243C21.0399 41.287 20.7687 41.4422 20.4923 41.5899C18.1468 42.8343 15.7987 44.0737 13.4584 45.3255C12.816 45.6702 12.5886 46.1939 12.751 46.9046C13.0026 47.9905 13.7389 48.7746 14.7018 49.1304C15.8238 49.5439 17.029 49.5189 18.1615 48.8924C18.9281 48.4678 19.7308 48.1004 20.5469 47.7804C21.3679 47.4579 21.869 47.6833 22.3978 48.3753C22.8522 48.9706 23.3439 49.5427 23.8578 50.0893C24.3461 50.6062 24.8962 51.0618 25.3944 51.571C25.6703 51.8527 25.9216 52.1676 26.1356 52.4981C26.4809 53.0274 26.4104 53.4731 25.935 53.8854C25.7641 54.0339 25.555 54.1479 25.3479 54.2342C24.4799 54.5976 23.6014 54.9387 22.7358 55.3046C22.1971 55.532 21.661 55.772 21.1405 56.0393C19.24 57.0076 17.3396 57.9784 15.4495 58.964C14.2267 59.6021 13.0066 60.2452 11.8098 60.9331C10.4538 61.714 9.13152 62.5572 7.7833 63.3531C7.12665 63.7432 6.9114 64.0934 7.05689 64.842C7.27105 65.9462 8.07353 66.6287 8.89814 67.2832C8.94396 67.3201 9.01214 67.3416 9.07253 67.3481C10.2376 67.4745 11.406 67.6562 12.5034 67.0352C13.668 66.3755 14.8353 65.7257 15.9922 65.0561C16.8257 64.5751 17.6721 64.1166 18.4644 63.5735C19.3336 62.9789 20.3214 62.7165 21.2934 62.4065C21.958 62.1946 22.2264 62.474 22.0663 63.1247C21.7883 64.2395 21.5381 65.3588 21.0582 66.4141C20.5493 67.5378 20.1239 68.6977 19.5795 69.8043C18.9623 71.0578 18.2767 72.2823 17.5784 73.4945C17.0168 74.4708 16.3969 75.4128 15.7948 76.3672C15.4056 76.9865 15.0293 77.6181 14.6045 78.2104C13.3131 80.01 11.9988 81.795 10.6972 83.5873C10.5498 83.7907 10.4355 84.0186 10.2729 84.2072C9.33857 85.275 8.68157 86.5568 7.67349 87.5681C7.43876 87.8031 7.22955 88.0627 6.99741 88.3027C6.57763 88.7391 6.1375 89.1608 5.73048 89.6096C5.5677 89.7906 5.43332 90.0189 5.35428 90.2513C5.16733 90.7944 5.41217 91.3228 5.94071 91.5402C6.67661 91.842 7.41017 92.1539 8.1627 92.3976C9.03646 92.6821 9.85708 92.6384 10.6456 92.02C11.987 90.9656 13.1395 89.7233 14.2614 88.4564C15.006 87.6127 15.6665 86.6951 16.3525 85.8021C16.7214 85.3238 17.0648 84.8259 17.4235 84.3402C17.5463 84.1724 17.6869 84.0143 17.8148 83.8515C18.1345 83.4393 18.4542 83.0271 18.7689 82.6125C18.9213 82.4141 19.038 82.181 19.216 82.0098C20.2641 80.9878 20.9437 79.7056 21.7301 78.4996C22.0731 77.9765 22.3729 77.4265 22.6956 76.8887C23.3092 75.8688 23.7859 74.7708 24.544 73.8315C24.8639 73.4344 25.0615 72.9288 25.2722 72.4556C25.7956 71.294 26.2759 70.1131 26.8068 68.954C27.1269 68.258 27.7415 68.0619 28.4257 68.4274C28.6944 68.5711 28.9689 68.7726 29.1388 69.0184C29.9391 70.1807 30.5652 71.4363 30.9243 72.8017C31.3986 74.5999 31.8379 76.4061 32.0018 78.2721C32.1068 79.4559 32.4024 80.6265 32.4747 81.8109C32.6008 83.8131 32.6665 85.8164 32.9281 87.814C33.1092 89.1975 33.0949 90.6143 32.7812 91.9984C32.6243 92.6867 32.2371 92.9694 31.5512 92.8024C30.8375 92.6283 30.1446 92.3459 29.6013 91.8425C28.8258 91.1194 27.9131 90.612 27.025 90.0641C25.8526 89.3425 24.6533 88.6615 23.4614 87.9679C23.2483 87.8433 23.028 87.7339 22.7771 87.5999L22.7822 87.6048ZM36.342 10.3106C36.3571 10.3103 36.3722 10.3101 36.3872 10.3098C36.4001 10.4779 36.4279 10.6432 36.4206 10.8116C36.387 11.6662 36.3786 12.5253 36.2897 13.3758C36.216 14.0853 35.8179 14.6143 35.1497 14.9192C34.731 15.112 34.3251 15.3272 33.9063 15.52C32.5377 16.1479 31.1927 16.8307 29.7926 17.3738C28.7344 17.7856 27.7226 18.2695 26.7242 18.7984C26.5051 18.9151 26.2681 19.0144 26.0254 19.0712C24.7218 19.374 24.3153 19.2476 23.9592 17.9147C23.7344 17.077 23.34 16.3149 22.8486 15.6097C22.4885 15.0958 22.0586 14.6206 21.4544 14.3794C20.8728 14.1454 20.2839 13.924 19.6807 13.7481C18.8503 13.5056 18.091 14.0658 18.0751 14.9275C18.0687 15.2994 18.1102 15.683 18.2065 16.0406C18.4958 17.1309 18.8501 18.2051 19.1244 19.3007C19.2615 19.8435 19.2859 20.4133 19.3504 20.9698C19.4411 21.7495 19.052 22.2155 18.3716 22.5382C16.5199 23.4153 14.6785 24.3097 12.8423 25.2167C11.3625 25.9494 9.9007 26.7146 8.42602 27.4573C7.15559 28.0962 5.88252 28.7275 4.60686 29.3539C3.44333 29.9258 2.2746 30.4876 1.10584 31.0469C0.58254 31.2992 0.415956 31.7064 0.440399 32.2736C0.508684 33.8222 2.20476 35.0777 3.5198 35.0108C5.26905 34.9241 6.90193 34.4827 8.43283 33.6461C8.92821 33.3767 9.38983 33.04 9.89823 32.798C11.4433 32.0567 13.0117 31.3651 14.5542 30.6188C15.4936 30.1637 16.3939 29.6264 17.3256 29.1589C17.9957 28.8238 18.6677 28.4485 19.3829 28.2558C20.3681 27.9884 20.9736 28.4581 21.2061 29.4565C21.2818 29.7792 21.395 30.0963 21.5306 30.398C21.7288 30.8368 21.9593 31.26 22.1799 31.6884C22.3719 32.0595 22.5664 32.4305 22.7634 32.799C23.4347 34.0563 24.6187 34.5692 25.8974 34.8872C26.5683 35.0544 27.0541 34.6646 27.128 33.9677C27.178 33.4971 27.1547 33.0002 27.0642 32.537C26.9518 31.9662 26.7042 31.4227 26.5692 30.8548C26.2667 29.5738 25.9943 28.2873 25.7143 27.0008C25.6926 26.9007 25.6983 26.7926 25.6966 26.6872C25.6776 25.5371 25.9862 25.0598 27.0412 24.6078C27.7919 24.2865 28.5453 23.9752 29.2882 23.6389C30.0486 23.2948 30.8218 22.9655 31.5485 22.5566C32.1258 22.2306 32.725 22.0097 33.3636 21.8937C34.1825 21.7445 34.5875 22.0895 34.5008 22.9198C34.4248 23.6444 34.3038 24.3748 34.1069 25.0763C33.7082 26.4845 33.2565 27.8784 32.7947 29.2675C32.5387 30.0378 32.2372 30.7963 31.918 31.5451C31.4804 32.5721 31.8446 33.3321 32.9313 33.5804C33.0119 33.5992 33.0952 33.6204 33.178 33.619C33.7206 33.6176 34.2686 33.6462 34.8078 33.5946C35.5802 33.5241 36.1948 33.1698 36.562 32.4429C36.798 31.9768 37.0643 31.5279 37.3078 31.0642C38.1967 29.3717 38.8099 27.5682 39.3877 25.7527C39.8701 24.2402 40.36 22.7275 40.6177 21.1484C40.7135 20.5566 40.935 19.9777 41.1593 19.4189C41.3813 18.8702 41.7351 18.3896 42.2831 18.1093C43.0651 17.7096 43.8418 17.2874 44.6552 16.9599C46.6139 16.1716 48.5961 15.438 50.5653 14.6746C50.8773 14.5539 51.1735 14.3958 51.4777 14.2576C52.2555 13.9032 53.0174 13.4988 53.8189 13.2067C56.3756 12.2803 58.9508 11.4089 61.5128 10.4975C63.855 9.66512 66.1656 8.73779 68.571 8.07765C68.7835 8.01888 69.005 7.89717 69.1556 7.73895C69.6199 7.25656 69.6891 5.97192 69.2783 5.43366C68.8265 4.84333 68.2424 4.45613 67.4663 4.46141C65.324 4.4742 63.2172 4.6572 61.1643 5.36678C57.4306 6.65922 53.6705 7.87925 49.9264 9.14675C48.9947 9.46104 48.0841 9.83526 47.1656 10.1845C46.5815 10.4076 45.9948 10.6258 45.4135 10.859C45.0092 11.0214 44.6156 11.2163 44.2062 11.3712C43.8568 11.5051 43.4999 11.6416 43.1342 11.7054C42.4304 11.8275 42.0926 11.5995 41.8527 10.9103C41.6944 10.4557 41.5537 9.9959 41.4055 9.5387C41.1674 8.81172 40.7685 8.23056 40.0227 7.93394C39.6535 7.78682 39.2891 7.62204 38.9492 7.41919C38.419 7.10393 37.8526 7.02789 37.2557 7.08296C36.5008 7.15069 36.3059 7.36239 36.3083 8.11587C36.3103 8.84675 36.3325 9.57981 36.3446 10.313L36.342 10.3106ZM132.641 74.5723C132.616 74.5728 132.591 74.5732 132.566 74.5736C132.554 73.8429 132.529 73.1099 132.532 72.3789C132.536 71.2033 132.413 70.0424 132.183 68.8883C132.082 68.3776 132.061 67.8505 131.992 67.3342C131.868 66.4019 131.765 65.4667 131.602 64.5426C131.366 63.2052 131.098 61.8734 130.812 60.5444C130.485 59.0126 130.224 57.4571 129.539 56.0242C128.918 54.7233 128.281 53.4302 127.642 52.1372C126.961 50.7544 125.947 49.7263 124.49 49.145C123.618 48.7953 122.764 48.6787 121.871 49.0276C121.167 49.3029 120.881 49.7874 121.104 50.5096C121.2 50.817 121.418 51.0922 121.608 51.3603C121.775 51.5987 122.025 51.7829 122.167 52.0317C122.808 53.1564 123.437 54.2889 124.046 55.4317C124.223 55.7604 124.337 56.1277 124.438 56.4902C125.247 59.3754 125.778 62.3154 126.221 65.2745C126.317 65.9134 126.333 66.5662 126.426 67.2051C126.61 68.468 126.792 69.7259 126.78 71.0096C126.77 72.3686 126.835 73.7289 127.124 75.0679C127.477 76.6997 127.412 78.3535 127.396 80.0065C127.394 80.1698 127.349 80.3388 127.294 80.4955C127.174 80.8416 126.931 81.054 126.558 81.0828C126.369 81.0985 126.179 81.1167 125.995 81.0921C124.339 80.8834 122.671 80.7251 121.028 80.4307C119.404 80.1411 117.807 79.7103 116.196 79.3476C115.971 79.2986 115.739 79.2522 115.513 79.2584C114.687 79.2771 113.891 79.132 113.097 78.9266C112.529 78.7802 111.957 78.6566 111.385 78.5329C110.762 78.3975 110.139 78.3727 109.527 78.5962C108.621 78.9277 108.433 79.5713 108.994 80.3658C109.4 80.9443 109.952 81.3321 110.545 81.7015C111.893 82.5433 113.315 83.1804 114.898 83.3828C115.716 83.4873 116.486 83.7258 117.269 83.9565C118.45 84.3062 119.615 84.7039 120.846 84.887C121.959 85.052 123.061 85.3176 124.155 85.5859C125.52 85.92 126.881 86.2291 128.306 86.1126C128.805 86.0717 129.308 86.1211 129.811 86.1229C130.479 86.1269 131.15 86.151 131.817 86.1224C132.741 86.082 133.135 85.7264 133.303 84.8169C133.351 84.5523 133.369 84.2732 133.355 84.0047C133.296 83.0035 133.234 81.9998 133.137 81.0017C133.034 79.9611 132.857 78.9292 132.774 77.8882C132.688 76.7844 132.677 75.6744 132.634 74.5674L132.641 74.5723ZM212.977 29.5559C214.229 29.6733 215.315 29.1229 216.413 28.6828C218.527 27.8366 220.617 26.933 222.775 26.2016C222.932 26.1487 223.084 26.0759 223.239 26.0131C224.382 25.5496 225.503 25.0337 226.67 24.6402C228.511 24.017 230.375 23.4713 232.235 22.9056C233.054 22.656 233.882 22.4413 234.707 22.2067C236.232 21.7721 237.757 21.3274 239.285 20.9028C239.72 20.7826 240.04 20.5437 240.224 20.1438C240.535 19.4731 240.354 18.2905 239.804 17.7947C238.995 17.0696 238.079 16.4945 236.938 16.5762C235.688 16.6671 234.445 16.8309 233.202 16.9921C232.834 17.0408 232.474 17.1774 232.114 17.2838C230.635 17.7227 229.158 18.1816 227.673 18.6055C225.925 19.1041 224.122 19.4026 222.428 20.0887C221.906 20.3008 221.361 20.458 220.832 20.6551C219.209 21.2621 217.584 21.8717 215.967 22.4912C214.699 22.9768 213.441 23.4849 212.171 23.9655C211.332 24.2808 210.473 24.5486 209.634 24.8639C208.887 25.145 208.611 25.5967 208.732 26.3758C208.867 27.2552 209.296 27.9916 209.979 28.5605C210.845 29.2822 211.816 29.7207 212.977 29.5559ZM131.426 16.7973C131.115 16.8577 130.819 16.8852 130.544 16.9726C129.847 17.1926 129.158 17.4351 128.469 17.6775C127.642 17.9675 126.805 18.2325 125.997 18.5623C124.567 19.1435 123.153 19.7572 121.739 20.3783C120.899 20.7464 120.064 21.1319 119.242 21.5448C118.494 21.9189 117.773 22.3477 117.033 22.7342C116.608 22.9573 116.156 23.128 115.735 23.361C115.073 23.7286 114.828 24.4033 115.196 25.0678C115.535 25.6852 115.969 26.2582 116.415 26.8059C116.723 27.1826 117.168 27.3762 117.657 27.4862C118.529 27.6853 119.388 27.7942 120.246 27.4484C120.341 27.4092 120.449 27.3974 120.549 27.3706C121.164 27.2147 121.707 27.2736 122.101 27.8548C122.305 28.1554 122.616 28.2783 122.97 28.2725C123.304 28.267 123.659 28.3113 123.966 28.2133C124.641 27.9962 125.272 28.0536 125.931 28.2612C126.529 28.4498 127.134 28.4247 127.678 28.0565C128.163 27.727 128.67 27.4223 129.108 27.0408C130.386 25.9321 131.653 24.811 132.717 23.4773C133.327 22.7112 133.97 21.9521 134.7 21.302C135.891 20.245 135.168 18.1646 134.121 17.7198C133.468 17.4417 132.808 17.1763 132.144 16.9286C131.914 16.8445 131.655 16.8337 131.423 16.7923L131.426 16.7973ZM283.29 30.3207C283.285 29.6953 283.134 29.2432 282.816 28.8164C282.474 28.3599 282.023 28.0811 281.534 27.8405C280.372 27.2669 279.372 26.4998 278.596 25.4476C278.087 24.7577 277.536 24.1012 277.013 23.4242C276.443 22.6876 275.662 22.2434 274.827 21.898C274.172 21.6275 273.489 21.6112 272.799 21.8084C271.856 22.0777 271.375 22.8894 271.724 23.7954C272 24.5142 272.338 25.2169 272.88 25.7932C273.266 26.2038 273.667 26.6091 273.993 27.0658C274.569 27.8752 275.249 28.5748 275.991 29.2256C276.368 29.5559 276.755 29.8786 277.108 30.2344C277.626 30.7584 278.264 31.0492 278.946 31.2716C279.244 31.3696 279.534 31.4854 279.835 31.5708C280.622 31.7939 281.417 31.9893 282.243 31.8149C282.886 31.6787 283.174 31.3625 283.262 30.713C283.284 30.5468 283.289 30.381 283.293 30.3231L283.29 30.3207ZM222.497 6.78037C222.206 6.80276 221.995 6.80624 221.789 6.83978C220.757 7.01256 220.32 7.44678 220.234 8.49057C220.119 9.88397 220.062 11.284 219.962 12.6796C219.925 13.1776 219.827 13.6715 219.773 14.1672C219.716 14.683 219.624 15.2045 219.65 15.719C219.688 16.4744 220.071 17.0307 220.846 17.2213C221.39 17.3555 221.945 17.4644 222.499 17.5632C223.459 17.7358 224.096 17.2254 224.604 16.5062C224.781 16.2546 224.881 15.9465 225.009 15.6606C225.094 15.4708 225.169 15.2736 225.233 15.0766C225.384 14.6245 225.6 14.1814 225.663 13.7182C225.844 12.3514 225.967 10.9779 226.107 9.6067C226.123 9.46077 226.143 9.30471 226.103 9.16974C226.031 8.91473 225.98 8.60913 225.809 8.43111C224.887 7.46929 223.806 6.80144 222.497 6.77786L222.497 6.78037Z" fill="white"/>
<path d="M220.193 42.4296C220.091 42.5242 219.965 42.6041 219.891 42.7184C219.345 43.5889 218.479 44.0478 217.572 44.3416C216.203 44.7887 214.786 45.0909 213.393 45.4606C212.928 45.5838 212.468 45.722 212.003 45.8477C210.368 46.2867 208.732 46.7256 207.094 47.1621C206.952 47.1996 206.812 47.2421 206.672 47.2821C206.082 47.4501 205.78 47.8745 205.659 48.4467C205.617 48.6483 205.605 48.8645 205.614 49.0704C205.694 51.3497 205.767 53.6291 205.87 55.9081C205.893 56.4076 206.022 56.9002 206.098 57.3963C206.16 57.8097 206.255 58.2226 206.267 58.6393C206.301 59.9625 206.526 61.2573 206.741 62.5599C206.869 63.3414 206.853 64.1454 206.931 64.9354C207.03 65.9334 207.16 66.9259 207.272 67.9237C207.357 68.6708 207.477 69.4173 207.502 70.1654C207.537 71.2147 207.579 72.2564 207.86 73.274C207.932 73.5366 207.994 73.8043 208.029 74.0725C208.253 75.7919 208.462 77.514 208.687 79.2333C208.744 79.6669 208.827 80.1001 208.904 80.5308C209.263 82.5066 209.632 84.4798 209.984 86.4557C210.039 86.7612 210.047 87.0826 210.027 87.3944C209.981 88.106 209.432 88.6049 208.715 88.6695C207.797 88.7549 206.982 88.4193 206.183 88.0607C205.651 87.8234 205.161 87.4924 204.651 87.1994C204.342 87.0212 204.04 86.8352 203.731 86.662C202.605 86.0251 201.472 85.4008 200.354 84.7536C200.067 84.5876 199.8 84.3735 199.557 84.1439C198.72 83.3489 197.675 82.8965 196.665 82.4083C195.749 81.9638 194.938 81.3819 194.186 80.7212C193.419 80.0432 192.708 79.2989 192.198 78.3905C191.937 77.9251 191.528 77.7887 191.022 77.895C190.92 77.9168 190.814 77.9336 190.72 77.9779C189.543 78.5298 188.375 78.2126 187.222 77.9126C186.539 77.7355 186.225 77.3263 186.269 76.6197C186.309 75.9786 186.449 75.3383 186.592 74.708C186.814 73.7298 187.12 72.7703 187.314 71.7875C187.736 69.6556 188.11 67.5144 188.497 65.3755C188.552 65.0682 188.559 64.7516 188.584 64.4397C188.622 64.0021 188.602 63.5528 188.703 63.1291C189.013 61.8129 188.947 60.5154 188.656 59.2116C188.575 58.8462 188.503 58.4707 188.485 58.0967C188.442 57.2058 188.887 56.7287 189.772 56.6613C189.938 56.6486 190.109 56.6608 190.274 56.638C191.655 56.4394 192.623 57.1392 193.361 58.1669C193.703 58.6435 193.887 59.2608 194.034 59.8411C194.187 60.4439 194.258 61.0807 194.276 61.7033C194.325 63.4608 194.337 65.2188 194.346 66.9743C194.347 67.3687 194.314 67.7736 194.219 68.1569C193.961 69.2111 193.656 70.256 193.385 71.3079C193.109 72.3799 192.843 73.4569 192.589 74.5361C192.538 74.7554 192.531 74.9942 192.543 75.2225C192.577 75.9328 192.825 76.1974 193.485 76.4628C194.979 77.0636 196.467 77.677 197.942 78.3233C198.435 78.5386 198.865 78.8932 199.347 79.144C200.142 79.5603 200.955 79.9463 201.765 80.3348C201.894 80.3979 202.04 80.4382 202.184 80.4585C202.72 80.5325 203.038 80.2962 203.094 79.7627C203.118 79.5363 203.087 79.3032 203.07 79.0749C203.008 78.3249 202.95 77.5749 202.872 76.8252C202.819 76.3061 202.737 75.79 202.658 75.2739C202.565 74.6551 202.407 74.0398 202.377 73.4174C202.317 72.2429 202.077 71.0965 201.902 69.9389C201.781 69.1347 201.775 68.3134 201.696 67.5009C201.626 66.7737 201.534 66.0468 201.449 65.3198C201.321 64.2394 201.262 63.1452 201.046 62.0838C200.573 59.7507 200.489 57.391 200.473 55.0277C200.463 53.5058 200.122 52.0395 199.866 50.5593C199.769 49.9883 199.408 49.7204 198.834 49.7852C198.277 49.8496 197.714 49.9444 197.179 50.1139C195.605 50.6122 194.033 51.1229 192.48 51.6861C191.399 52.0782 190.358 52.5701 189.295 53.0096C188.541 53.321 187.793 53.6498 187.027 53.9237C186.19 54.2213 185.692 54.7646 185.415 55.6156C185.094 56.598 184.884 57.586 184.771 58.6102C184.699 59.2695 184.494 59.9184 184.316 60.5643C183.714 62.7419 183.145 64.929 182.214 66.9964C181.778 67.9656 181.438 68.991 180.739 69.8214C180.431 70.1882 180.133 70.5724 179.785 70.8971C179.599 71.071 179.323 71.2112 179.069 71.243C177.949 71.3821 176.854 71.262 175.829 70.749C174.927 70.2967 174.591 69.2473 175.061 68.3579C175.443 67.6383 175.902 66.9525 176.218 66.2063C176.731 64.9948 177.132 63.7373 177.624 62.5185C177.979 61.6411 178.293 60.7593 178.398 59.8156C178.427 59.5665 178.465 59.3147 178.441 59.0689C178.399 58.6652 178.133 58.4813 177.74 58.5581C177.597 58.5856 177.457 58.6406 177.328 58.7055C175.606 59.5829 173.985 60.5893 172.668 62.0478C172.2 62.5654 171.573 62.94 171.02 63.3811C170.856 63.5119 170.688 63.6353 170.537 63.7784C169.869 64.4099 169.248 64.5256 168.418 64.1525C167.96 63.9466 167.504 63.7381 167.056 63.5119C166.311 63.1374 165.822 62.5201 165.505 61.7693C165.278 61.228 165.41 60.7335 165.853 60.3494C166.881 59.4634 167.922 58.5897 168.952 57.7061C169.269 57.4346 169.573 57.1458 169.877 56.8619C170.605 56.1768 171.502 55.7701 172.371 55.3087C173.2 54.8705 174.003 54.3775 174.838 53.9467C176.175 53.2565 177.526 52.5962 178.873 51.9284C179.043 51.8453 179.223 51.7845 179.395 51.7114C179.996 51.4553 180.405 51.0115 180.508 50.3693C180.765 48.7399 180.999 47.1034 181.213 45.4673C181.311 44.7222 181.321 43.966 181.404 43.2186C181.647 41.0445 181.601 38.8776 181.325 36.7095C181.18 35.5891 181.124 34.4598 181.008 33.3365C180.945 32.7146 180.871 32.0879 180.751 31.477C180.608 30.756 180.166 30.3086 179.425 30.1375C178.459 29.9124 178.323 29.5353 178.838 28.6703C178.902 28.5613 178.991 28.4643 179.034 28.3481C179.481 27.1376 180.345 26.2316 181.194 25.2983C181.838 24.5894 182.369 23.7819 182.949 23.0163C183.139 22.767 183.313 22.5029 183.522 22.2734C184.267 21.4523 185.01 20.6287 185.78 19.8323C186.425 19.1661 187.003 18.4583 187.485 17.6667C187.603 17.4714 187.755 17.2955 187.908 17.1247C188.436 16.5307 188.969 15.9417 189.504 15.3552C189.815 15.0135 191.904 13.8964 192.36 13.8336C192.884 13.7597 193.401 13.7712 193.9 13.9915C194.358 14.195 194.838 14.3553 195.286 14.5765C196.16 15.0091 196.585 15.8561 196.458 16.8076C196.411 17.1626 196.22 17.4244 195.965 17.6547C195.205 18.3404 194.44 19.0237 193.683 19.7143C193.388 19.9829 193.099 20.254 192.83 20.5473C191.473 22.0265 190.113 23.5033 188.774 24.9998C188.131 25.7212 187.446 26.3956 186.656 26.9487C185.395 27.8311 185.678 29.2732 186.098 30.2257C186.262 30.5972 186.612 30.7974 187.028 30.7353C187.542 30.6565 188.065 30.575 188.552 30.4037C190.01 29.8848 191.456 29.3359 192.896 28.7721C193.946 28.3604 194.976 27.9013 196.024 27.4822C196.528 27.2804 197.048 27.1211 197.557 26.9344C198.264 26.674 198.96 26.3913 199.669 26.1384C200.878 25.7065 202.121 25.696 203.301 26.1437C204.418 26.5673 205.241 27.4027 205.287 28.6603C205.37 30.9597 205.471 33.2689 205.328 35.5619C205.212 37.3823 205.053 39.1733 205.39 40.9888C205.591 42.0806 205.916 42.4218 207.014 42.2756C209.51 41.9455 211.947 41.3577 214.34 40.5872C215.157 40.325 215.982 40.0879 216.791 39.8007C217.468 39.561 218.109 39.6282 218.742 39.9167C219.16 40.1082 219.565 40.3301 219.976 40.5343C220.363 40.7263 220.636 40.6515 220.762 40.2475C220.846 39.9799 220.883 39.6578 220.816 39.3926C220.698 38.9299 220.534 38.4629 220.296 38.0524C219.963 37.4752 219.913 36.8933 220.147 36.3067C220.402 35.6595 220.434 35.0109 220.365 34.3339C220.332 34.0029 220.317 33.6616 220.354 33.3319C220.444 32.5317 220.854 32.1356 221.652 32.0571C222.441 31.9813 223.19 32.1598 223.902 32.4997C224.071 32.5798 224.234 32.6775 224.399 32.7678C224.959 33.08 225.545 33.1381 226.157 32.9371C226.317 32.8843 226.487 32.8563 226.637 32.786C227.823 32.2214 229.114 32.0393 230.38 31.7697C231.954 31.4348 233.305 31.9776 234.577 32.8156C235.699 33.5556 236.195 34.7003 236.487 35.9463C236.706 36.8821 236.87 37.8313 237.039 38.778C237.108 39.1687 237.14 39.5675 237.154 39.9641C237.183 40.8001 237.177 41.6391 237.206 42.475C237.253 43.7979 237.111 45.1039 236.992 46.4195C236.873 47.7301 236.887 49.051 236.821 50.3682C236.789 50.9917 236.736 51.6205 236.643 52.2374C236.471 53.3529 236.198 54.4576 236.086 55.5797C235.978 56.659 235.991 57.7514 235.999 58.8388C236.006 60.0092 236.07 61.1811 236.107 62.351C236.129 63.0288 236.297 63.674 236.559 64.2977C236.831 64.9437 237.302 65.3629 237.995 65.4796C238.869 65.6259 239.751 65.6239 240.611 65.3911C241.619 65.1183 242.618 64.8054 243.62 64.515C244 64.4033 244.388 64.3115 244.766 64.1922C245.263 64.0333 245.591 63.6938 245.706 63.1845C245.802 62.7585 245.875 62.3252 245.928 61.8898C246.03 61.0618 246.114 60.229 246.203 59.3987C246.255 58.9005 246.335 58.4018 246.344 57.9018C246.365 56.7185 246.534 55.5653 246.973 54.4654C247.149 54.023 247.391 53.5945 247.671 53.2081C248.111 52.603 248.695 52.5306 249.322 52.9447C249.774 53.2437 250.219 53.5528 250.663 53.867C250.765 53.9381 250.872 54.0268 250.924 54.1314C251.43 55.1378 252.006 56.1129 252.021 57.2957C252.038 58.6166 252.039 59.9302 251.785 61.2355C251.713 61.6009 251.714 61.9851 251.718 62.3618C251.727 63.6602 251.751 64.9559 251.77 66.2542C251.774 66.5053 251.785 66.7563 251.782 67.0075C251.762 67.897 251.411 68.2921 250.52 68.4324C250.48 68.4381 250.437 68.4488 250.394 68.4495C247.865 68.4511 245.511 69.344 243.097 69.9164C241.793 70.2268 240.49 70.2584 239.174 70.0842C238.509 69.9972 237.854 69.8548 237.189 69.7729C236.407 69.6753 235.714 69.3853 235.014 69.0251C234.31 68.6625 233.707 68.2078 233.161 67.6542C233.043 67.5356 232.913 67.4197 232.83 67.2779C232.076 65.9993 231.186 64.7607 230.893 63.2886C230.422 60.9328 230.069 58.5525 230.428 56.1278C230.577 55.1156 230.608 54.0878 230.699 53.0665C230.759 52.3999 230.841 51.7355 230.9 51.0689C230.985 50.1331 231.06 49.195 231.132 48.2569C231.172 47.7564 231.143 47.2445 231.241 46.7581C231.517 45.3696 231.483 43.9686 231.503 42.5692C231.519 41.3985 231.484 40.2261 231.442 39.0538C231.428 38.6396 231.358 38.2188 231.246 37.8213C231.123 37.3888 230.906 37.2718 230.451 37.2642C229.84 37.2542 229.307 37.4841 228.802 37.7989C228.553 37.9537 228.323 38.1459 228.061 38.2682C227.273 38.6304 226.975 39.2683 226.976 40.0896C226.976 40.3835 226.968 40.6775 227.011 40.9681C227.258 42.7449 226.99 44.4598 226.484 46.1661C226.096 47.4711 225.967 48.827 225.849 50.1853C225.727 51.5989 225.464 52.9998 225.238 54.4051C225.136 55.0448 224.988 55.6776 224.838 56.3081C224.605 57.2839 224.352 58.2526 224.112 59.2261C224.063 59.4279 224.006 59.6348 223.994 59.8409C223.919 61.4899 223.45 63.0499 222.963 64.6077C222.808 65.1051 222.746 65.631 222.622 66.138C222.332 67.3132 222.032 68.4861 221.73 69.6591C221.445 70.7614 220.375 71.7109 218.976 71.0936C218.766 71.0016 218.546 70.9198 218.322 70.8783C217.296 70.6843 216.485 69.4845 216.49 68.5224C216.496 67.2263 216.85 66.0022 217.174 64.7686C217.19 64.7081 217.224 64.6523 217.238 64.5917C217.55 63.2077 217.883 61.8282 218.162 60.4371C218.433 59.0839 218.66 57.7213 218.893 56.3611C219.116 55.0638 219.315 53.7595 219.545 52.4646C219.694 51.6207 219.851 50.7767 220.058 49.9469C220.365 48.7212 220.487 47.4733 220.517 46.217C220.542 45.1717 220.522 44.1246 220.505 43.08C220.501 42.8691 220.42 42.6569 220.376 42.4466C220.319 42.4401 220.263 42.4309 220.205 42.4243L220.193 42.4296ZM199.224 38.28C199.199 38.2804 199.171 38.2809 199.146 38.2813C199.166 36.7136 199.187 35.146 199.207 33.5783C199.209 33.4326 199.212 33.2844 199.192 33.139C199.129 32.6854 198.839 32.429 198.377 32.4517C198.173 32.4626 197.961 32.5163 197.771 32.5948C197.29 32.7962 196.824 33.035 196.343 33.2388C194.978 33.819 193.598 34.3642 192.247 34.9743C190.761 35.6443 189.309 36.3842 187.826 37.0643C187.265 37.3222 187.04 37.7077 187.1 38.3045C187.217 39.4278 187.303 40.5542 187.44 41.6747C187.53 42.4217 188.046 42.6643 188.632 42.2101C189.274 41.7122 190.018 41.4437 190.739 41.1304C191.636 40.7388 192.602 40.6424 193.565 40.8451C194.051 40.9475 194.531 41.128 194.989 41.3289C195.746 41.658 196.349 42.1403 196.489 43.0347C196.537 43.3403 196.65 43.6424 196.783 43.9265C197.082 44.5671 197.633 44.779 198.293 44.5371C198.992 44.2819 199.306 43.8346 199.298 43.0486C199.282 41.4589 199.248 39.8721 199.222 38.2826L199.224 38.28ZM188.272 47.7896C188.889 47.6211 189.639 47.3751 190.289 46.9047C190.56 46.7094 190.559 46.521 190.344 46.2709C190.249 46.1619 190.142 46.0582 190.023 45.9748C189.491 45.6043 189.005 45.1878 188.6 44.6771C188.458 44.4986 188.285 44.3432 188.114 44.1928C187.747 43.8699 187.474 43.9271 187.424 44.3951C187.329 45.2833 187.278 46.1784 187.275 47.0701C187.273 47.5599 187.621 47.8028 188.272 47.7896Z" fill="#727171"/>
<path d="M83.6094 37.7186C83.5849 36.2346 83.5202 34.7487 83.5484 33.2638C83.5773 31.8216 83.6942 30.3829 83.7859 28.9422C83.8416 28.0546 84.1316 27.6705 84.9486 27.5616C86.0514 27.4128 87.0339 26.9846 87.9973 26.4613C89.5955 25.591 91.2144 24.7655 92.81 23.8902C94.0471 23.2116 95.3335 22.6252 96.724 22.4139C99.0115 22.0646 101.251 21.3897 103.603 21.4488C105.404 21.4943 107.051 22.0348 108.653 22.7845C108.767 22.8378 108.872 22.914 108.988 22.9573C110.148 23.3927 110.558 24.3504 110.664 25.4689C110.786 26.7479 110.679 28.003 110.186 29.2269C109.94 29.8362 109.904 30.5301 109.772 31.1853C109.588 32.0851 109.397 32.9849 109.221 33.887C109.082 34.6051 108.931 35.321 108.837 36.0434C108.708 37.0226 108.45 37.9638 108.149 38.9031C107.929 39.5949 107.83 40.325 107.687 41.0407C107.622 41.3683 107.562 41.6983 107.527 42.0304C107.491 42.4028 107.444 42.7828 107.475 43.1515C107.51 43.5679 107.774 43.7293 108.179 43.6498C108.302 43.6277 108.427 43.5879 108.534 43.5259C109.786 42.817 111.03 42.0956 112.284 41.3892C113.523 40.6906 114.775 40.0218 116.119 39.535C116.508 39.3929 116.871 39.1709 117.25 38.9989C118.429 38.462 119.614 37.9375 120.79 37.3931C121.149 37.2265 121.5 37.0323 121.833 36.8183C122.228 36.5631 122.284 36.2909 121.984 35.9317C121.79 35.6963 121.547 35.4541 121.274 35.3431C120.619 35.0751 119.935 34.8729 119.258 34.6581C118.96 34.5625 118.643 34.52 118.35 34.4093C117.549 34.1061 116.853 33.6655 116.458 32.8582C116.312 32.5592 116.119 32.2811 115.959 31.9873C115.565 31.278 115.821 30.6534 116.599 30.4195C116.679 30.3956 116.761 30.3716 116.844 30.3627C118.075 30.2218 119.307 30.1336 120.516 30.4979C121.414 30.7694 122.325 31.0181 123.197 31.3604C123.951 31.6569 124.673 32.0443 125.383 32.4395C126.169 32.8761 126.901 33.409 127.699 33.8203C128.112 34.032 128.61 34.0891 129.079 34.1743C129.298 34.2134 129.544 34.1867 129.764 34.1328C131.267 33.7714 132.774 33.4225 134.264 33.0211C136.139 32.5154 137.951 31.7822 139.885 31.4865C139.968 31.4751 140.053 31.4612 140.13 31.4323C141.366 30.9597 142.658 30.9082 143.962 30.9043C144.881 30.9016 145.802 30.8538 146.721 30.8059C148.098 30.733 149.268 31.2612 150.286 32.1134C151.053 32.7563 151.424 33.6193 151.195 34.6378C151.036 35.3512 150.73 35.9968 150.303 36.6217C149.447 37.8716 148.408 38.9538 147.434 40.1027C146.281 41.4655 144.99 42.6749 143.702 43.8943C142.866 44.6842 142.041 45.5041 141.099 46.1526C140.059 46.8706 139.118 47.6874 138.221 48.5637C137.37 49.3966 136.328 49.8534 135.213 50.1732C134.51 50.3732 133.8 50.5557 133.092 50.7332C132.81 50.8032 132.519 50.8808 132.231 50.8881C131.312 50.9108 130.39 50.9034 129.468 50.9061C129.365 50.9078 129.259 50.897 129.156 50.8761C128.582 50.765 128.355 50.284 128.696 49.8036C128.871 49.5571 129.128 49.3369 129.395 49.1943C130.672 48.5227 131.716 47.561 132.724 46.5572C134.103 45.1882 135.454 43.7919 136.825 42.4154C137.71 41.5267 138.628 40.6676 139.494 39.7616C140.084 39.1441 140.636 38.4869 141.165 37.8151C141.551 37.3239 141.345 36.8551 140.719 36.7951C140.331 36.7588 139.917 36.7757 139.539 36.8699C138.464 37.1338 137.396 37.4328 136.334 37.7467C135.272 38.0606 134.233 38.4696 133.158 38.7235C131.464 39.1232 129.817 39.6628 128.184 40.2499C127.261 40.5817 126.358 40.9708 125.442 41.3301C124.643 41.6421 123.832 41.9243 123.046 42.2663C122.068 42.6919 121.101 43.1449 120.15 43.6228C118.506 44.4487 116.864 45.2796 115.246 46.1503C114.126 46.7515 113.01 47.3551 112.145 48.349C111.672 48.8918 111.023 49.2818 110.453 49.7409C110.321 49.846 110.169 49.9339 110.069 50.0612C109.208 51.1554 107.149 51.0614 106.249 50.4006C105.796 50.069 105.361 49.6969 104.994 49.2759C104.385 48.5777 104.416 47.894 105.053 47.2028C105.468 46.7514 105.824 46.2758 106.076 45.714C106.459 44.8662 106.208 44.4233 105.276 44.2754C104.317 44.123 103.529 44.3621 102.965 45.1726C102.442 45.9197 101.709 46.384 100.922 46.7938C100.275 47.1335 99.6323 47.4807 98.9875 47.828C98.4772 48.1051 98.1828 48.5295 98.0616 49.1016C97.8125 50.2863 97.4525 51.4577 97.5583 52.6917C97.58 52.94 97.6093 53.1932 97.686 53.428C97.8287 53.8552 98.1347 54.1314 98.5905 54.2018C98.8373 54.2404 99.0888 54.2639 99.34 54.2622C100.362 54.2529 101.328 54.5157 102.276 54.8618C103.327 55.2437 103.967 56.3911 103.754 57.4797C103.647 58.024 103.391 58.3372 102.839 58.3513C101.46 58.3892 100.169 58.85 98.8373 59.1081C97.1448 59.435 96.5377 60.2438 96.629 61.9678C96.6365 62.1134 96.664 62.2586 96.6639 62.4068C96.6667 63.0347 97.1008 63.4646 97.8643 63.3088C98.3725 63.2049 98.8668 63.0184 99.364 62.862C99.8987 62.6924 100.431 62.5129 100.965 62.3433C102.567 61.832 104.264 61.7688 105.882 61.3528C107.473 60.9447 109.321 62.7252 108.922 64.4447C108.814 64.9087 108.594 65.2615 108.124 65.4023C107.502 65.5885 106.872 65.7445 106.254 65.9406C105.68 66.1259 105.116 66.3487 104.546 66.5566C104.429 66.5987 104.32 66.6683 104.2 66.7005C102.239 67.2025 100.451 68.1363 98.6467 69.005C97.012 69.7931 95.4865 70.8029 93.8779 71.6483C92.5108 72.3666 91.1049 73.0153 89.6936 73.6414C88.9131 73.9859 88.091 74.2456 87.2713 74.4978C86.0518 74.8721 84.9086 74.5469 83.8171 74.0048C83.0776 73.6377 82.6601 72.9991 82.5011 72.1929C82.3749 71.547 82.595 71.0335 83.1699 70.71C83.588 70.4745 84.0215 70.2639 84.4551 70.0533C85.1677 69.705 85.8855 69.3666 86.5981 69.0182C87.4427 68.6049 88.2665 68.1442 89.1295 67.7758C89.9625 67.4204 90.4554 66.8446 90.5739 65.9585C90.6522 65.3796 90.6902 64.7937 90.7384 64.2102C90.7489 64.0869 90.7367 63.959 90.7146 63.8363C90.5984 63.1877 90.1525 62.9564 89.5646 63.25C89.1909 63.437 88.8174 63.6341 88.4747 63.8708C87.4442 64.5886 86.4391 64.5625 85.3613 63.9373C84.7475 63.5807 84.2404 63.137 83.802 62.6017C83.2816 61.9623 83.344 61.3333 83.9324 60.7635C84.3082 60.4006 84.6406 59.9958 85.0241 59.6428C85.3927 59.3052 85.7713 58.9573 86.1992 58.7091C87.4829 57.9645 88.7796 57.2423 90.0996 56.5624C91.1606 56.0149 91.7853 55.2134 91.8181 54.0047C91.8387 53.2735 91.7838 52.5384 91.8145 51.8095C91.8591 50.7112 90.7536 50.3828 89.997 50.8097C89.8875 50.8718 89.7909 50.9538 89.6943 51.0333C88.6338 51.9123 87.1581 51.8337 86.1924 50.8475C85.3058 49.9403 84.7527 48.8443 84.4563 47.6285C84.2867 46.9406 84.2272 46.2282 84.1202 45.5242C84.0806 45.2561 84.0834 44.9747 84.0064 44.7173C83.602 43.3525 83.6115 41.9483 83.5858 40.5472C83.5703 39.6056 83.5547 38.6639 83.5391 37.7223C83.5592 37.7219 83.5793 37.7216 83.6019 37.7212L83.6094 37.7186ZM88.9916 34.0404C88.9916 34.0404 88.9966 34.0403 89.0016 34.0402C89.0086 34.4596 88.9954 34.8792 89.0274 35.2957C89.0656 35.7823 89.3248 36.1171 89.6754 36.2043C90.0587 36.2984 90.5572 36.0641 90.7944 35.6759C91.0511 35.2522 91.0414 34.8178 90.9056 34.3479C90.7964 33.9729 90.7195 33.5723 90.7231 33.1829C90.7308 32.4318 91.19 31.9545 91.9385 31.9497C92.4106 31.9469 92.9089 32.0014 93.3485 32.16C94.0737 32.4217 94.7702 32.7694 95.4616 33.1172C96.0568 33.4163 96.6605 33.4666 97.2909 33.3105C97.5961 33.2351 97.8879 33.1123 98.1932 33.0444C98.5786 32.9577 98.9666 32.8809 99.3603 32.8393C100.253 32.7467 101.101 33.0014 101.961 33.1881C102.878 33.389 103.3 33.0806 103.441 32.159C103.513 31.6831 103.558 31.2026 103.676 30.7385C103.924 29.7674 104.237 28.8128 104.474 27.8393C104.571 27.4434 104.589 27.0085 104.549 26.5998C104.492 26.0155 104.187 25.812 103.603 25.8669C103.167 25.9068 102.725 25.9241 102.291 25.9891C101.858 26.054 101.412 26.1066 101.007 26.2589C99.0153 27.0102 96.9475 27.5794 95.1151 28.7148C94.1007 29.3419 93.045 29.9044 92.0614 30.5737C91.5075 30.9496 90.9594 31.2224 90.2978 31.3137C89.4709 31.4278 89.0391 31.8971 88.9825 32.7294C88.952 33.167 88.9895 33.6084 88.9967 34.0453L88.9916 34.0404ZM100.452 41.2984C100.455 41.3159 100.458 41.3334 100.46 41.351C100.566 41.3492 100.669 41.3475 100.774 41.3458C101.595 41.3222 101.9 41.071 102.025 40.2476C102.095 39.7943 102.135 39.334 102.143 38.8767C102.152 38.2135 101.861 37.9294 101.195 37.9003C100.358 37.8639 99.5831 38.1178 98.8324 38.4366C98.3884 38.6248 98.0853 38.9814 98.051 39.4894C98.0249 39.8842 97.9964 40.2865 98.0505 40.6749C98.1584 41.4292 98.6124 41.6904 99.3477 41.505C99.708 41.4161 100.081 41.3648 100.447 41.2959L100.452 41.2984ZM89.1411 42.7838C89.1462 43.0977 89.1314 43.4144 89.1616 43.7254C89.1915 44.0137 89.2341 44.3119 89.3316 44.5841C89.5925 45.3283 90.2048 45.597 90.9333 45.3011C91.6519 45.0079 92.0956 44.4982 92.135 43.6938C92.1481 43.4223 92.1461 43.1511 92.1618 42.8796C92.2041 42.0952 91.7894 41.6273 91.1017 41.3549C90.811 41.2391 90.5105 41.1461 90.2197 41.0279C89.5825 40.7696 89.1991 40.9744 89.13 41.6587C89.0909 42.0311 89.1349 42.4097 89.1411 42.7863L89.1411 42.7838Z" fill="#727171"/>
<path d="M291.239 58.1698C291.203 56.0153 291.142 53.8587 291.144 51.7036C291.144 50.7643 291.274 49.8277 291.342 48.8897C291.362 48.5981 291.392 48.3062 291.39 48.0124C291.371 45.9832 291.35 43.9515 291.322 41.9225C291.317 41.6312 291.307 41.335 291.262 41.0469C291.158 40.383 290.832 40.0995 290.166 40.0804C289.618 40.0643 289.095 40.1408 288.565 40.3229C287.936 40.5392 287.277 40.6732 286.624 40.802C284.346 41.2466 282.075 41.7211 279.873 42.4784C279.141 42.7291 278.39 42.9198 277.651 43.1531C275.877 43.7124 274.082 44.2218 272.337 44.8635C270.829 45.4158 269.365 46.1006 267.902 46.7703C267.279 47.0569 266.703 47.4507 266.111 47.8071C265.27 48.3158 264.427 48.822 263.602 49.3556C263.04 49.7165 262.512 50.1296 261.958 50.5055C261.543 50.7861 261.105 51.032 260.691 51.3126C260.047 51.7502 259.344 51.7292 258.633 51.5978C257.605 51.4063 256.768 50.8851 256.129 50.0517C255.572 49.3275 255.626 48.5003 256.263 47.8417C256.774 47.3133 257.324 46.8396 257.989 46.4995C258.303 46.3386 258.59 46.1229 258.876 45.9097C260.662 44.5816 262.583 43.4899 264.636 42.6271C265.464 42.2794 266.24 41.8145 267.053 41.4293C267.731 41.1066 268.414 40.7789 269.118 40.5236C270.925 39.8683 272.749 39.2504 274.567 38.6226C275.573 38.2744 276.58 37.9237 277.594 37.598C278.031 37.4577 278.482 37.3498 278.932 37.267C280.786 36.9324 282.617 36.5229 284.417 35.9607C285.129 35.7379 285.886 35.6551 286.622 35.5048C287.398 35.3463 288.174 35.1903 288.95 35.0268C289.278 34.9586 289.598 34.8528 289.926 34.8022C290.625 34.6977 291.002 34.2645 291.132 33.6143C291.213 33.2061 291.246 32.7835 291.239 32.3667C291.194 29.1851 291.134 26.0062 291.077 22.8248C291.066 22.202 290.283 17.7918 290.067 17.2152C289.523 15.7573 288.85 14.3769 287.741 13.2398C287.061 12.5428 286.316 12.437 285.455 12.7828C285.338 12.8299 285.223 12.8796 285.109 12.9292C283.832 13.5003 282.535 14.0342 281.282 14.6602C280.193 15.2031 279.101 15.7084 277.947 16.1018C276.711 16.5216 275.586 16.2362 274.612 15.5415C273.753 14.9277 273.321 13.9754 273.365 12.867C273.383 12.4447 273.635 12.1542 273.955 11.953C274.54 11.5892 275.145 11.2577 275.755 10.9412C276.238 10.6921 276.765 10.5251 277.23 10.2537C277.797 9.92284 278.399 9.71447 279.014 9.50087C280.04 9.14232 281.04 8.70885 282.046 8.29789C283.266 7.79799 284.475 7.27817 285.695 6.78581C286.895 6.30131 288.098 5.81676 289.316 5.36964C291.633 4.52007 293.945 3.64798 296.291 2.88333C298.177 2.26945 300.102 1.75287 302.031 1.28647C303.46 0.941365 304.944 0.921868 306.405 1.03838C307.431 1.11939 308.324 1.61453 309.039 2.37381C309.592 2.95996 309.69 4.03839 309.246 4.71635C309.129 4.89663 308.928 5.05818 308.728 5.14186C308.464 5.25423 308.166 5.29683 307.88 5.34174C307.139 5.45948 306.389 5.53466 305.653 5.67995C304.404 5.92664 303.16 6.20339 301.916 6.48767C301.531 6.57692 301.162 6.73122 300.787 6.86048C300.138 7.08722 299.502 7.37401 298.837 7.54073C297.246 7.93876 295.741 8.55889 294.24 9.20159C293.779 9.4001 293.304 9.56618 292.848 9.77466C291.828 10.2386 291.612 11.1112 292.354 11.9479C293.659 13.4234 294.614 15.1106 295.379 16.9038C295.672 17.5872 295.803 18.3461 295.96 19.082C296.168 20.0632 296.312 21.0579 296.514 22.0392C296.757 23.2182 297.22 23.3989 298.2 22.692C298.501 22.4761 298.76 22.188 299.006 21.9076C299.655 21.1685 300.293 20.422 300.921 19.6656C301.187 19.3448 301.412 18.9944 301.655 18.6563C302.35 17.6904 303.05 16.7294 303.735 15.7586C304.037 15.3316 304.311 14.8876 304.595 14.4508C304.916 13.9558 305.272 13.5153 305.815 13.2225C307.115 12.5254 308.27 12.647 309.379 13.6534C310.437 14.6155 310.663 15.825 310.006 17.0942C309.001 19.0373 307.723 20.7765 306.154 22.3094C305.726 22.7259 305.406 23.2562 305.042 23.7344C304.727 24.1465 304.456 24.6031 304.095 24.9707C302.939 26.1502 301.758 27.3076 300.569 28.4525C299.886 29.1093 299.104 29.6271 298.223 29.9983C297.53 30.2911 297.114 30.7978 297.104 31.5866C297.1 31.8152 297.061 32.047 297.07 32.2754C297.093 32.8979 297.416 33.2819 298.034 33.2918C298.805 33.3042 299.581 33.2612 300.348 33.1883C301.323 33.0943 302.296 32.9476 303.271 32.821C303.519 32.7892 303.777 32.7825 304.015 32.7157C305.192 32.3823 306.396 32.2921 307.617 32.2669C311.172 32.1881 314.729 32.0439 318.285 32.0002C320.311 31.9743 322.339 32.0212 324.358 32.3168C326.096 32.5695 327.847 32.7339 329.597 32.8884C331.262 33.0367 332.836 33.5557 334.397 34.0825C335.427 34.4322 336.318 35.1007 337.128 35.8358C337.715 36.3686 337.988 37.0624 337.956 37.8617C337.929 38.5352 337.565 38.9783 336.892 39.0397C336.438 39.0798 335.964 39.0776 335.52 38.9845C334.068 38.6769 332.628 38.3189 331.183 37.9811C330.755 37.8802 330.336 37.7439 329.902 37.6757C328.024 37.3752 326.143 37.0923 324.262 36.8069C324.055 36.7752 323.844 36.7611 323.636 36.762C320.308 36.7868 316.983 36.8066 313.655 36.849C313.073 36.8587 312.489 36.9512 311.905 37.0035C311.052 37.0829 310.2 37.1724 309.347 37.2392C307.179 37.4056 305.009 37.547 302.842 37.731C302.072 37.7964 301.305 37.9246 300.547 38.0703C299.768 38.2213 298.995 38.4174 298.23 38.6235C297.58 38.7975 297.2 39.2483 297.101 39.9131C297.042 40.3059 296.993 40.7035 296.992 41.0979C296.993 42.3312 297.028 43.5664 297.028 44.8021C297.028 45.3648 296.954 45.9286 296.951 46.4938C296.947 47.1821 296.981 47.8697 296.995 48.5577C297.004 49.1202 297.079 49.6916 297.003 50.243C296.819 51.5973 296.759 52.9496 296.861 54.3118C296.909 54.9364 296.882 55.5673 296.918 56.1947C296.961 56.9877 297.039 57.7776 297.085 58.5705C297.117 59.1326 297.184 59.7067 297.121 60.2604C296.98 61.4583 297.027 62.638 297.225 63.8228C297.317 64.3789 297.356 64.9459 297.371 65.5083C297.419 67.3712 297.432 69.2322 297.483 71.095C297.578 74.5597 298.069 77.97 299.008 81.3077C299.296 82.3327 299.354 83.3717 299.245 84.4183C299.159 85.2562 298.703 85.6329 297.859 85.6318C296.166 85.6296 294.816 84.9587 293.9 83.5145C293.704 83.2038 293.568 82.8368 293.489 82.4764C293.164 81.0275 292.863 79.5731 292.568 78.1187C292.497 77.7707 292.463 77.4146 292.425 77.0611C292.322 76.1259 292.208 75.1934 292.13 74.2579C292.005 72.778 291.888 71.3005 291.803 69.8175C291.743 68.7736 291.726 67.7315 291.54 66.6947C291.408 65.9584 291.375 65.1979 291.355 64.4447C291.303 62.3533 291.278 60.2589 291.244 58.1672L291.239 58.1698Z" fill="#727171"/>
<path d="M22.7829 87.6045C23.0338 87.7385 23.2542 87.8479 23.4672 87.9725C24.6567 88.6662 25.856 89.3471 27.0308 90.0687C27.9189 90.6141 28.8316 91.124 29.6071 91.8471C30.148 92.3531 30.8434 92.6355 31.557 92.807C32.243 92.974 32.6301 92.6888 32.787 92.0031C33.1007 90.6189 33.115 89.2021 32.9339 87.8186C32.6723 85.821 32.6066 83.8178 32.4806 81.8155C32.4057 80.6312 32.1101 79.4606 32.0077 78.2767C31.8437 76.4107 31.402 74.6045 30.9302 72.8064C30.571 71.4409 29.9449 70.1828 29.1446 69.023C28.9748 68.7772 28.7002 68.5758 28.4316 68.432C27.7474 68.0691 27.1327 68.2626 26.8127 68.9586C26.2817 70.1177 25.7989 71.2987 25.2781 72.4602C25.0649 72.9334 24.8698 73.439 24.5498 73.8361C23.7917 74.7755 23.315 75.8734 22.7014 76.8933C22.3787 77.4286 22.0789 77.9811 21.7359 78.5042C20.947 79.7078 20.2675 80.9925 19.2219 82.0144C19.0439 82.1882 18.9271 82.4187 18.7747 82.6171C18.46 83.0317 18.1403 83.4439 17.8206 83.8561C17.6927 84.0215 17.5546 84.177 17.4293 84.3448C17.0706 84.8305 16.7247 85.3285 16.3584 85.8068C15.6723 86.6997 15.0119 87.6199 14.2672 88.461C13.1454 89.7304 11.9954 90.9701 10.6514 92.0247C9.86542 92.643 9.0423 92.6867 8.16853 92.4023C7.41346 92.156 6.67994 91.8466 5.94655 91.5448C5.41549 91.3275 5.17317 90.799 5.36011 90.2559C5.4392 90.026 5.57353 89.7952 5.73632 89.6142C6.1433 89.1629 6.58095 88.7438 7.00325 88.3073C7.23288 88.0674 7.4446 87.8077 7.67933 87.5727C8.68741 86.5614 9.3444 85.2796 10.2787 84.2118C10.4414 84.0232 10.5557 83.7953 10.703 83.5919C12.0071 81.7996 13.3189 80.0147 14.6103 78.215C15.0376 77.6202 15.4115 76.9911 15.8006 76.3718C16.4002 75.4175 17.0226 74.4754 17.5842 73.4991C18.2825 72.2869 18.9681 71.0624 19.5854 69.8089C20.1297 68.7048 20.5551 67.5424 21.064 66.4187C21.5414 65.3635 21.7942 64.2441 22.0721 63.1293C22.2347 62.4761 21.9638 62.1992 21.2992 62.4111C20.3273 62.7211 19.337 62.9836 18.4702 63.5781C17.6779 64.1212 16.8315 64.5797 15.998 65.0607C14.8386 65.7279 13.6713 66.3801 12.5093 67.0398C11.4118 67.6608 10.2434 67.4791 9.07836 67.3527C9.01797 67.3462 8.9498 67.3247 8.90398 67.2878C8.07932 66.6308 7.27689 65.9508 7.06273 64.8466C6.91724 64.098 7.13249 63.7479 7.78914 63.3577C9.13731 62.5593 10.4572 61.7187 11.8157 60.9377C13.0099 60.2499 14.2326 59.6067 15.4553 58.9687C17.3454 57.9805 19.2458 57.0097 21.1463 56.0439C21.6669 55.7791 22.2029 55.5367 22.7417 55.3092C23.6097 54.9432 24.4857 54.6022 25.3538 54.2388C25.5633 54.1499 25.7724 54.0359 25.9408 53.89C26.4162 53.4777 26.4867 53.032 26.1414 52.5027C25.925 52.1722 25.6761 51.8573 25.4002 51.5756C24.902 51.0689 24.3519 50.6108 23.8637 50.0939C23.3498 49.5498 22.8581 48.9777 22.4036 48.3799C21.8748 47.6879 21.3763 47.4625 20.5527 47.7851C19.7367 48.105 18.9314 48.4724 18.1673 48.897C17.0374 49.5235 15.8322 49.5509 14.7076 49.135C13.7447 48.7792 13.0059 47.9977 12.7569 46.9092C12.5919 46.1986 12.8194 45.6749 13.4642 45.3302C15.8046 44.0783 18.1552 42.8414 20.4982 41.5945C20.7745 41.4468 21.0482 41.2916 21.3143 41.1289C22.6795 40.2951 24.2244 39.8501 25.647 39.1484C26.9625 38.4988 28.2966 37.9141 29.7141 37.5139C30.4541 37.3032 31.1541 36.9526 31.8754 36.6719C32.5842 36.3965 33.3204 36.2612 34.0839 36.2562C34.8574 36.2484 35.6335 36.2481 36.4037 36.1952C37.5352 36.1188 38.556 36.4837 39.536 36.9673C40.6883 37.536 41.0305 38.9395 40.3197 40.0061C40.1236 40.3007 39.8997 40.5807 39.6578 40.8384C38.7073 41.8412 37.7875 42.8762 36.7783 43.8172C35.628 44.8886 34.3408 45.7287 32.637 45.5258C32.1815 45.4705 31.7171 45.4857 31.2595 45.4556C30.6987 45.4197 30.1881 45.2246 29.7872 44.8269C28.9012 43.9498 27.9477 43.8576 26.8882 44.493C26.55 44.697 26.1704 44.8339 25.8116 45.0056C25.7169 45.0499 25.6171 45.0942 25.5404 45.1608C24.6536 45.9114 24.7264 46.6737 25.7752 47.2115C25.8309 47.2407 25.8916 47.2648 25.9521 47.2764C27.4015 47.5915 28.4073 48.5696 29.3861 49.5832C29.6467 49.8527 29.8926 50.1425 30.136 50.4273C30.6251 50.9969 31.2296 51.2482 31.9787 51.1353C32.104 51.1157 32.2295 51.1111 32.3522 51.0865C34.1543 50.7075 35.9463 50.3188 37.6601 49.6022C39.6307 48.7785 41.6805 48.1845 43.781 47.7705C45.2582 47.4799 46.7246 47.1492 48.1989 46.841C48.4041 46.7974 48.6095 46.7614 48.8177 46.7429C51.2179 46.5324 53.5728 46.6166 55.8609 47.5207C56.675 47.8438 57.3597 48.2394 57.8117 48.993C58.318 49.8386 58.3421 50.6922 57.8363 51.5445C57.7093 51.7601 57.5416 51.9488 57.3968 52.1546C56.8886 52.8688 56.3881 53.5879 55.8723 54.2947C55.6268 54.6328 55.3583 54.9537 55.0822 55.2697C53.8002 56.7326 52.5489 58.2227 51.2159 59.6362C50.1841 60.7283 49.0527 61.7266 47.9519 62.7545C47.5562 63.1252 47.1093 63.4415 46.7186 63.8172C46.3206 64.2005 45.8626 64.4518 45.3224 64.4431C44.1315 64.4226 42.9402 64.3795 41.7532 64.2861C41.4186 64.2589 41.0789 64.0661 40.7844 63.8801C40.2971 63.5742 40.2205 63.0429 40.5645 62.5751C40.7119 62.3768 40.8895 62.1829 41.0932 62.0439C42.0194 61.4007 42.6904 60.5105 43.4049 59.6673C44.0135 58.9515 44.5635 58.1863 45.1822 57.4778C45.8971 56.6598 46.6834 55.9058 47.3907 55.0828C47.9057 54.4841 48.3697 53.8359 48.8059 53.1756C49.1612 52.6373 48.8615 52.1298 48.2245 52.1881C47.2088 52.2827 46.1865 52.282 45.1926 52.6325C44.1288 53.0093 43.0122 53.2262 41.9404 53.5779C39.7345 54.3026 37.5392 55.0572 35.3517 55.8293C34.8223 56.0164 34.3454 56.3407 33.824 56.5578C32.4545 57.1305 31.0615 57.6483 29.7024 58.241C27.9393 59.0085 26.1345 59.6839 24.4677 60.6558C24.0746 60.8859 23.7154 61.1882 23.3866 61.5051C23.033 61.845 23.1346 62.0618 23.5964 62.1949C25.3227 62.6938 27.049 63.1953 28.7634 63.7371C29.1952 63.8731 29.6259 64.0996 29.9772 64.3827C31.772 65.8349 33.4405 67.3973 34.5226 69.5018C35.1636 70.7496 35.8743 71.9586 36.2411 73.3265C36.3161 73.609 36.3885 73.8917 36.4586 74.1769C36.7493 75.3551 37.0525 76.5281 37.3207 77.7092C37.4506 78.2772 37.533 78.8561 37.6104 79.435C37.6767 79.9538 37.6704 80.4814 37.7567 80.9949C38.3189 84.3136 38.196 87.6688 38.3291 91.0098C38.3985 92.7769 38.2037 94.5182 37.9788 96.2601C37.9232 96.6955 37.9305 97.14 37.8623 97.5706C37.6805 98.7265 36.7716 99.3569 35.6696 98.9431C34.7016 98.5798 33.6894 98.4257 32.7271 98.1051C31.6638 97.7509 30.6505 97.2276 29.64 96.7269C29.3361 96.5762 29.1148 96.2583 28.8572 96.0189C28.5536 95.7351 28.277 95.4131 27.9416 95.1776C26.3887 94.078 25.0236 92.7869 23.99 91.1889C23.4591 90.3688 23.0797 89.4507 22.6581 88.5635C22.5254 88.2819 22.4774 87.9612 22.7881 87.6094L22.7829 87.6045Z" fill="#727171"/>
<path d="M36.3428 10.3103C36.3307 9.57709 36.3111 8.84649 36.3065 8.11314C36.3041 7.35966 36.4991 7.15047 37.2539 7.08023C37.8483 7.0252 38.4147 7.10124 38.9474 7.41646C39.2873 7.61932 39.6518 7.7866 40.0209 7.93121C40.7667 8.22783 41.1682 8.80895 41.4037 9.53597C41.5519 9.99317 41.6927 10.453 41.8509 10.9075C42.0883 11.5968 42.4286 11.8223 43.1324 11.7027C43.4981 11.6389 43.855 11.5024 44.2045 11.3685C44.6113 11.2136 45.0049 11.0187 45.4117 10.8562C45.9931 10.6231 46.5797 10.4024 47.1638 10.1818C48.0823 9.83253 48.9929 9.45831 49.9246 9.14402C53.6688 7.87652 57.4288 6.65649 61.1625 5.36405C63.2154 4.65699 65.3223 4.47398 67.4645 4.45868C68.2406 4.4534 68.8247 4.8406 69.2765 5.43093C69.6873 5.96919 69.6181 7.25384 69.1538 7.73622C69.0032 7.89193 68.7817 8.01615 68.5692 8.07492C66.1663 8.73251 63.8557 9.66235 61.511 10.4948C58.949 11.4062 56.3738 12.2776 53.8171 13.204C53.0156 13.4935 52.2562 13.9004 51.4759 14.2549C51.1718 14.393 50.8755 14.5512 50.5635 14.6718C48.5943 15.4353 46.6121 16.1688 44.6535 16.9572C43.84 17.2846 43.0633 17.7069 42.2813 18.1066C41.7358 18.3844 41.3795 18.865 41.1575 19.4162C40.9307 19.975 40.7117 20.5564 40.616 21.1457C40.3582 22.7248 39.8658 24.235 39.3859 25.7499C38.808 27.5629 38.1948 29.3664 37.306 31.0615C37.0625 31.5251 36.7962 31.9741 36.5602 32.4402C36.1954 33.1646 35.5809 33.5188 34.806 33.5919C34.2668 33.641 33.7187 33.6124 33.1763 33.6163C33.0934 33.6177 33.0102 33.5965 32.9295 33.5777C31.8428 33.3294 31.4786 32.5693 31.9163 31.5423C32.2354 30.7936 32.5369 30.0351 32.7929 29.2648C33.2547 27.8757 33.7039 26.4818 34.1051 25.0736C34.3045 24.3721 34.4231 23.6417 34.499 22.9171C34.5857 22.0867 34.1832 21.7418 33.3618 21.891C32.7232 22.007 32.1241 22.2279 31.5467 22.5539C30.8201 22.9628 30.0494 23.292 29.2865 23.6361C28.5435 23.9724 27.7901 24.2838 27.0394 24.6051C25.9844 25.0571 25.6758 25.5344 25.6948 26.6844C25.6965 26.7899 25.6907 26.8955 25.7125 26.9981C25.9925 28.2845 26.2624 29.5711 26.5674 30.8521C26.7024 31.42 26.95 31.9635 27.0624 32.5343C27.153 33 27.1762 33.4944 27.1262 33.9649C27.0523 34.6619 26.5664 35.0492 25.8956 34.8845C24.6144 34.5666 23.4304 34.0536 22.7616 32.7962C22.5646 32.4278 22.3701 32.0567 22.1781 31.6856C21.9575 31.2573 21.727 30.8341 21.5288 30.3953C21.3933 30.0936 21.28 29.7765 21.2043 29.4537C20.9718 28.4529 20.3688 27.9856 19.3811 28.2531C18.6659 28.4458 17.9939 28.8211 17.3238 29.1562C16.3896 29.6237 15.4918 30.161 14.5524 30.6161C13.0099 31.3624 11.4415 32.0564 9.89644 32.7953C9.38805 33.0373 8.92643 33.374 8.43104 33.6434C6.90014 34.4799 5.26723 34.9189 3.51802 35.008C2.20548 35.0749 0.509451 33.822 0.441166 32.2733C0.416723 31.7061 0.583307 31.299 1.10665 31.0492C2.27541 30.4898 3.44413 29.928 4.60767 29.3562C5.88333 28.7298 7.15891 28.0984 8.42683 27.4595C9.90151 26.7168 11.3632 25.9492 12.8431 25.2189C14.6793 24.312 16.5232 23.4175 18.3724 22.5405C19.0528 22.2178 19.442 21.7517 19.3512 20.9721C19.2867 20.413 19.2622 19.8432 19.1252 19.303C18.8509 18.2099 18.4966 17.1332 18.2073 16.0428C18.111 15.6852 18.0695 15.3016 18.0759 14.9298C18.0918 14.068 18.8511 13.5079 19.6815 13.7504C20.2822 13.9263 20.8711 14.1477 21.4552 14.3817C22.0595 14.6229 22.4893 15.098 22.8494 15.612C23.3408 16.3172 23.7352 17.0793 23.96 17.917C24.3161 19.2474 24.7226 19.3763 26.0262 19.0734C26.2664 19.0167 26.5059 18.9173 26.725 18.8007C27.7209 18.2693 28.7352 17.7854 29.7934 17.376C31.1935 16.833 32.5411 16.1501 33.9071 15.5222C34.3259 15.3294 34.7318 15.1143 35.1506 14.9215C35.8186 14.614 36.2143 14.0851 36.2905 13.378C36.3794 12.5276 36.3878 11.6684 36.4215 10.8139C36.4288 10.648 36.3984 10.4802 36.388 10.3121C36.373 10.3123 36.3579 10.3126 36.3428 10.3128L36.3428 10.3103Z" fill="#727171"/>
<path d="M132.642 74.572C132.686 75.679 132.696 76.789 132.782 77.8927C132.865 78.9337 133.043 79.9656 133.145 81.0063C133.242 82.0044 133.304 83.0081 133.363 84.0093C133.38 84.2777 133.36 84.5569 133.311 84.8214C133.143 85.7309 132.752 86.0865 131.826 86.127C131.158 86.1556 130.487 86.1315 129.819 86.1275C129.317 86.1232 128.811 86.0763 128.314 86.1172C126.889 86.2311 125.531 85.9245 124.164 85.5904C123.069 85.3222 121.967 85.0566 120.854 84.8916C119.623 84.711 118.458 84.3108 117.277 83.9611C116.495 83.7304 115.722 83.492 114.907 83.3874C113.323 83.185 111.901 82.5454 110.554 81.7061C109.96 81.3366 109.408 80.9464 109.002 80.3704C108.441 79.5759 108.629 78.9323 109.535 78.6008C110.145 78.3773 110.77 78.4046 111.393 78.5375C111.965 78.6612 112.537 78.7848 113.105 78.9312C113.9 79.1366 114.696 79.2842 115.522 79.263C115.748 79.2593 115.982 79.3006 116.204 79.3522C117.815 79.7149 119.414 80.1456 121.037 80.4353C122.679 80.7296 124.347 80.8854 126.003 81.0967C126.187 81.1213 126.38 81.1005 126.566 81.0874C126.94 81.0561 127.182 80.8461 127.302 80.5C127.357 80.3434 127.402 80.1744 127.405 80.0111C127.418 78.3606 127.483 76.7043 127.132 75.0725C126.844 73.736 126.779 72.3757 126.789 71.0142C126.8 69.7305 126.619 68.4726 126.435 67.2097C126.341 66.5707 126.325 65.918 126.229 65.279C125.789 62.32 125.255 59.3775 124.447 56.4948C124.345 56.1323 124.231 55.7674 124.055 55.4363C123.446 54.2935 122.817 53.161 122.175 52.0363C122.033 51.7875 121.784 51.6007 121.616 51.3649C121.426 51.0967 121.208 50.8215 121.113 50.5142C120.89 49.792 121.173 49.3075 121.879 49.0321C122.773 48.6833 123.629 48.7998 124.499 49.1496C125.955 49.7334 126.967 50.7591 127.65 52.1418C128.287 53.4349 128.926 54.7279 129.548 56.0287C130.229 57.4592 130.491 59.0147 130.821 60.5489C131.104 61.878 131.372 63.2098 131.61 64.5471C131.773 65.4713 131.877 66.4064 132 67.3388C132.069 67.8576 132.09 68.3822 132.192 68.8929C132.422 70.047 132.544 71.2079 132.541 72.3835C132.538 73.1144 132.562 73.8475 132.574 74.5782C132.6 74.5778 132.625 74.5773 132.65 74.5769L132.642 74.572Z" fill="#727171"/>
<path d="M212.977 29.5556C211.82 29.7204 210.845 29.2818 209.979 28.5602C209.297 27.9913 208.868 27.2524 208.733 26.3755C208.612 25.5963 208.888 25.1447 209.635 24.8636C210.473 24.5483 211.333 24.2804 212.172 23.9652C213.442 23.487 214.7 22.9765 215.968 22.4909C217.587 21.8713 219.21 21.2618 220.833 20.6548C221.362 20.4577 221.904 20.3005 222.428 20.0884C224.125 19.4023 225.929 19.1062 227.673 18.6052C229.158 18.1813 230.633 17.7224 232.115 17.2835C232.475 17.1771 232.834 17.0405 233.203 16.9917C234.446 16.8305 235.689 16.6668 236.938 16.5759C238.077 16.4917 238.996 17.0693 239.804 17.7944C240.358 18.2901 240.535 19.4728 240.225 20.1435C240.038 20.5459 239.718 20.7823 239.285 20.9025C237.758 21.3271 236.233 21.7717 234.708 22.2064C233.886 22.441 233.055 22.6556 232.235 22.9053C230.376 23.471 228.511 24.0167 226.67 24.6399C225.507 25.0334 224.382 25.5518 223.24 26.0127C223.085 26.0756 222.933 26.1484 222.775 26.2013C220.617 26.9352 218.528 27.8388 216.414 28.6825C215.314 29.1226 214.228 29.673 212.977 29.5556Z" fill="#727171"/>
<path d="M131.426 16.797C131.658 16.8383 131.917 16.8466 132.147 16.9332C132.812 17.1785 133.472 17.4464 134.124 17.7244C135.169 18.1693 135.894 20.2496 134.703 21.3067C133.973 21.9542 133.33 22.7158 132.72 23.4819C131.657 24.8157 130.389 25.9342 129.112 27.0454C128.673 27.4269 128.166 27.7317 127.682 28.0612C127.138 28.4294 126.533 28.4544 125.934 28.2659C125.275 28.0582 124.641 28.0009 123.969 28.218C123.662 28.316 123.307 28.2716 122.973 28.2771C122.619 28.283 122.308 28.16 122.105 27.8595C121.713 27.2782 121.17 27.2193 120.552 27.3752C120.449 27.402 120.344 27.4138 120.249 27.4531C119.391 27.7988 118.53 27.6899 117.66 27.4908C117.171 27.3783 116.723 27.1873 116.418 26.8106C115.972 26.2628 115.541 25.6898 115.199 25.0725C114.831 24.4054 115.074 23.7333 115.739 23.3656C116.157 23.1327 116.611 22.9619 117.037 22.7389C117.776 22.3499 118.498 21.9235 119.245 21.5495C120.067 21.1391 120.9 20.751 121.743 20.383C123.156 19.7643 124.571 19.1507 126 18.567C126.811 18.2371 127.646 17.9721 128.472 17.6822C129.161 17.4422 129.851 17.1972 130.548 16.9773C130.825 16.8898 131.118 16.8623 131.429 16.8019L131.426 16.797Z" fill="#727171"/>
<path d="M283.289 30.3204C283.284 30.3782 283.28 30.5466 283.257 30.7102C283.17 31.3597 282.884 31.6759 282.238 31.8121C281.412 31.9865 280.618 31.7912 279.83 31.5681C279.53 31.4826 279.239 31.3644 278.941 31.2688C278.259 31.0465 277.622 30.7556 277.103 30.2317C276.751 29.8758 276.364 29.5532 275.986 29.2229C275.247 28.572 274.565 27.8724 273.989 27.0631C273.665 26.6063 273.261 26.201 272.875 25.7905C272.333 25.2142 271.998 24.5114 271.72 23.7926C271.371 22.8866 271.852 22.0749 272.794 21.8057C273.484 21.6084 274.17 21.6247 274.823 21.8952C275.657 22.2406 276.438 22.6849 277.008 23.4214C277.532 24.0985 278.083 24.7575 278.591 25.4449C279.367 26.497 280.367 27.2642 281.529 27.8377C282.018 28.0783 282.47 28.3572 282.812 28.8137C283.13 29.2405 283.281 29.6926 283.286 30.3179L283.289 30.3204Z" fill="#727171"/>
<path d="M222.495 6.78007C223.801 6.80621 224.885 7.47401 225.807 8.43333C225.979 8.61134 226.026 8.91447 226.101 9.17195C226.138 9.30697 226.118 9.46303 226.106 9.60892C225.965 10.9801 225.845 12.3535 225.661 13.7204C225.599 14.1836 225.382 14.6293 225.232 15.0789C225.164 15.2759 225.09 15.473 225.008 15.6628C224.882 15.9487 224.781 16.2568 224.602 16.5084C224.094 17.2276 223.457 17.738 222.497 17.5654C221.943 17.4666 221.389 17.3577 220.844 17.2235C220.072 17.0328 219.686 16.4766 219.649 15.7212C219.622 15.2067 219.714 14.6852 219.771 14.1694C219.826 13.6712 219.926 13.1797 219.96 12.6818C220.06 11.2862 220.117 9.88619 220.232 8.49278C220.318 7.44648 220.758 7.01222 221.787 6.84199C221.993 6.80846 222.204 6.80497 222.495 6.78258L222.495 6.78007Z" fill="#727171"/>
<path d="M188.272 47.787C187.621 47.7978 187.276 47.5573 187.275 47.0676C187.278 46.1758 187.329 45.2783 187.424 44.3926C187.474 43.9246 187.745 43.8674 188.114 44.1903C188.285 44.3407 188.458 44.4961 188.6 44.6746C189.005 45.1853 189.491 45.6018 190.023 45.9723C190.142 46.0557 190.249 46.1569 190.344 46.2684C190.557 46.5185 190.56 46.7069 190.289 46.9022C189.639 47.3726 188.892 47.6211 188.272 47.787Z" fill="white"/>
<path d="M88.9916 34.0404C88.9843 33.6009 88.9469 33.1595 88.9774 32.7245C89.0339 31.8921 89.4657 31.4229 90.2927 31.3087C90.9543 31.2174 91.5049 30.9471 92.0563 30.5688C93.0399 29.8969 94.0955 29.3345 95.11 28.7099C96.9424 27.5769 99.0102 27.0052 101.002 26.254C101.407 26.1016 101.855 26.0465 102.286 25.9841C102.72 25.9192 103.159 25.9019 103.598 25.862C104.18 25.8097 104.487 26.0105 104.544 26.5948C104.584 27.0036 104.566 27.4359 104.469 27.8344C104.232 28.8078 103.918 29.7624 103.671 30.7335C103.553 31.1976 103.506 31.6807 103.436 32.154C103.298 33.0781 102.876 33.3865 101.956 33.1832C101.098 32.9939 100.248 32.7417 99.3552 32.8343C98.964 32.8759 98.5735 32.9527 98.1881 33.0395C97.8828 33.1098 97.591 33.2327 97.2858 33.3056C96.6554 33.4617 96.0517 33.4113 95.4565 33.1122C94.7651 32.7645 94.0686 32.4168 93.3434 32.155C92.9037 31.9965 92.4055 31.9419 91.9334 31.9447C91.185 31.9521 90.7256 32.4268 90.718 33.178C90.7143 33.5673 90.7938 33.9679 90.9005 34.3429C91.0363 34.8129 91.046 35.2472 90.7893 35.6709C90.5521 36.0617 90.0536 36.2934 89.6702 36.1993C89.3197 36.1122 89.0605 35.7774 89.0223 35.2907C88.9903 34.8743 89.0034 34.4546 88.9965 34.0353C88.994 34.0353 88.9915 34.0354 88.9865 34.0354L88.9916 34.0404Z" fill="white"/>
<path d="M100.452 41.2958C100.084 41.3647 99.7129 41.4135 99.3528 41.5049C98.6173 41.6878 98.1609 41.4266 98.0555 40.6748C98.0014 40.2864 98.0299 39.8841 98.056 39.4893C98.0904 38.9813 98.3934 38.6222 98.8374 38.4365C99.5882 38.1177 100.363 37.8638 101.2 37.9002C101.863 37.9294 102.157 38.2134 102.148 38.8766C102.14 39.3339 102.097 39.7943 102.03 40.2475C101.903 41.0709 101.598 41.3221 100.779 41.3457C100.674 41.3474 100.571 41.3491 100.465 41.3509C100.463 41.3333 100.46 41.3158 100.457 41.2983L100.452 41.2958Z" fill="white"/>
<path d="M89.141 42.7813C89.1348 42.4046 89.0934 42.026 89.1299 41.6537C89.199 40.9668 89.5824 40.7646 90.2196 41.0228C90.5104 41.1411 90.8109 41.2341 91.1016 41.3498C91.7894 41.6248 92.204 42.0902 92.1617 42.8745C92.1461 43.1461 92.148 43.4173 92.1349 43.6888C92.0955 44.4932 91.6518 45.0029 90.9332 45.2961C90.2047 45.5919 89.5924 45.3232 89.3315 44.579C89.2365 44.3068 89.1915 44.0112 89.1616 43.7203C89.1313 43.4094 89.1462 43.0926 89.141 42.7788L89.141 42.7813Z" fill="white"/>
</g>
<defs>
<clipPath id="clip0_1_37">
<rect width="337.376" height="94.082" fill="white" transform="translate(0 5.57324) rotate(-0.946534)"/>
</clipPath>
</defs>
</svg>
