<svg width="441" height="146" viewBox="0 0 441 146" fill="none" xmlns="http://www.w3.org/2000/svg">
<g clip-path="url(#clip0_1_143)">
<path d="M102.667 55.5914C98.691 60.0858 94.6703 66.6101 90.6137 75.0126C87.6878 80.9706 81.9186 93.6125 73.2655 106.562C78.653 107.574 83.9055 109.288 89.0694 111.741L88.3375 113.29C83.088 110.844 77.7231 109.075 72.2554 108.134C60.4609 125.249 43.8594 142.358 22.735 144.135C14.2595 144.848 9.09022 142.33 8.6419 137.001C7.77226 126.663 27.3441 107.968 55.5957 105.591C60.9249 105.143 66.1816 105.369 71.4245 106.199C80.1418 93.2447 86.0446 80.3976 89.0221 74.2844C92.8615 66.3743 96.6273 60.1517 100.462 55.5182C96.9553 55.3391 93.3338 54.566 89.4287 53.7522C83.7664 52.5473 77.403 51.2074 70.081 51.2845C30.5584 51.3762 23.2812 76.5816 53.0096 74.0808C60.1366 73.4812 70.5657 68.8319 73.9627 65.3992L75.2087 66.6307C71.1878 70.5901 60.0899 75.231 53.1554 75.8144C20.3665 78.5727 28.5398 49.6708 70.085 49.5383C77.605 49.5092 84.0968 50.8382 89.8233 52.0377C94.2529 52.9368 98.1634 53.8149 101.852 53.8494C107.268 48.0268 112.701 45.479 118.16 46.5717L118.627 48.0197C113.392 53.6977 108.244 55.5318 102.69 55.611L102.667 55.5914ZM70.3251 107.736C65.5051 107.064 60.6605 106.868 55.7165 107.284C28.0642 109.61 9.52789 127.292 10.3291 136.816C10.682 141.011 14.9448 143.002 22.5427 142.362C42.7469 140.663 58.8157 124.395 70.3019 107.716L70.3251 107.736ZM104.388 53.7654C108.455 53.4233 112.287 51.8292 116.195 48.0733C112.282 47.9283 108.35 49.8756 104.388 53.7654Z" fill="#AA9479" stroke="#AA9479" stroke-width="0.2" stroke-miterlimit="10"/>
<path d="M113.204 108.849C109.009 109.202 105.737 108.744 103.569 107.569C103.004 108.026 102.437 108.461 101.808 108.924C96.2887 112.751 92.805 110.285 95.4119 104.634C96.3254 102.682 97.5761 100.895 98.7062 99.9813L99.7722 101.379C98.8863 102.122 97.7478 103.705 96.9607 105.366C95.1409 109.355 96.8931 110.2 100.886 107.45C101.336 107.153 101.783 106.835 102.204 106.455C101.333 105.58 100.825 104.416 100.714 103.089C100.382 99.1505 102.44 95.6797 105.372 95.433C107.362 95.2656 108.899 96.6235 109.072 98.6782C109.234 100.604 107.463 103.642 104.949 106.289C106.697 107.09 109.396 107.402 113.078 107.092C119.413 106.559 126.036 103.049 130.72 100.564L131.519 102.114C126.835 104.599 119.944 108.26 113.223 108.826L113.204 108.849ZM103.442 105.295C105.793 103.006 107.443 100.324 107.319 98.8472C107.223 97.7129 106.568 97.0998 105.498 97.1898C103.636 97.3465 102.168 99.884 102.428 102.966C102.507 103.908 102.83 104.678 103.442 105.295Z" fill="#AA9479" stroke="#AA9479" stroke-width="0.2" stroke-miterlimit="10"/>
<path d="M174.497 98.5198C167.908 102.437 157.041 106.498 148.908 107.182C140.775 107.866 136.29 106.303 135.948 102.237C135.863 101.231 136.037 100.225 136.487 99.1739C135.008 100.031 133.214 101.001 131.028 102.177L130.23 100.627C135.7 97.753 138.566 95.9599 139.623 94.9442L139.682 94.8746L140.928 96.1061C138.385 98.6695 137.53 100.293 137.681 102.091C137.917 104.895 141.443 106.064 148.762 105.448C156.617 104.787 167.109 100.887 173.549 96.983L174.476 98.5216L174.497 98.5198ZM145.425 92.1714L144.359 90.7738L147.636 88.2134L148.702 89.611L145.425 92.1714Z" fill="#AA9479" stroke="#AA9479" stroke-width="0.2" stroke-miterlimit="10"/>
<path d="M230.08 93.844C223.48 97.6324 215.171 101.608 207.016 102.294C201.152 102.787 197.898 101.509 197.624 98.2556C197.478 96.5219 198.625 94.27 199.555 92.5106C200.24 91.1812 200.474 90.6228 200.522 90.4247C199.933 90.6036 198.79 91.3679 196.758 92.8321C191.692 96.4052 186.066 103.065 186.066 103.065L184.767 101.967L184.884 101.828C187.334 98.9272 190.778 91.1797 190.123 90.5667C189.473 90.0178 187.662 90.7737 174.005 98.5613L173.206 97.0119C187.23 88.9779 189.537 87.7061 191.219 89.2459C192.315 90.2314 191.486 93.1894 190.122 96.1924C191.854 94.4948 193.861 92.7309 195.749 91.3435C197.218 90.3578 199.491 88.6793 200.69 88.5785C203.087 88.3768 202.649 90.3535 201.087 93.3085C200.158 95.0679 199.233 96.8916 199.334 98.0901C199.504 100.102 201.925 100.954 206.847 100.54C214.723 99.8778 222.658 96.0634 229.108 92.2876L230.035 93.8262L230.08 93.844Z" fill="#AA9479" stroke="#AA9479" stroke-width="0.2" stroke-miterlimit="10"/>
<path d="M349.285 105.499L348.821 107.155C334.848 103.761 328.467 90.9343 330.815 71.1871C330.923 70.165 331.223 68.868 331.623 67.2178L330.868 68.4884C316.974 92.4184 303.256 106.397 292.319 107.317C278.729 108.46 288.806 90.4125 298.678 72.7267C306.157 59.4021 313.802 45.7403 313.189 38.4634C312.696 32.5991 307.052 29.3019 298.384 30.0311C269.533 32.4582 253.96 73.3201 281.829 70.2428L282.039 71.971C250.929 75.4718 267.632 30.8722 298.238 28.2975C307.848 27.4891 314.345 31.4473 314.923 38.3176C315.58 46.1295 307.633 60.291 300.239 73.6084C290.389 91.2924 281.857 106.451 292.195 105.582C302.532 104.712 315.86 90.9602 329.355 67.6673C330.828 65.194 332.173 62.7314 333.507 60.3991C337.798 46.0711 345.861 24.5715 349.328 24.2798C354.251 23.8657 348.553 37.3636 334.929 61.4218C333.719 65.4896 332.877 69.0522 332.623 71.4229C330.309 90.2836 336.233 102.287 349.326 105.474L349.285 105.499ZM337.612 52.8331C345.96 37.2801 350.911 25.9356 349.456 26.058C347.722 26.2038 341.963 39.9872 337.612 52.8331Z" fill="#AA9479" stroke="#AA9479" stroke-width="0.2" stroke-miterlimit="10"/>
<path d="M367.429 88.7989C364.904 89.0114 362.51 88.4799 360.349 87.6486C359.075 89.1569 357.073 90.209 354.547 90.4215C351.016 90.7186 347.722 87.4392 346.562 83.3769C346.043 83.6145 345.531 83.9378 345.012 84.1754L344.214 82.626C344.856 82.3134 345.49 81.9151 346.13 81.5811C346.029 80.3825 346.062 79.2374 346.309 78.0742C346.841 75.6801 348.454 76.4066 351.06 78.6876C353.479 77.2124 355.848 75.6552 358.321 74.0461C358.775 72.2621 360.968 71.9483 360.968 71.9483L361.032 71.9429C362.103 71.8528 362.612 73.2972 361.724 73.7599C361.154 74.1527 360.64 74.4546 360.134 74.842C360.104 75.2541 360.219 75.848 360.628 76.611C362.535 80.0717 362.693 83.4855 361.366 86.162C363.174 86.8937 365.143 87.2453 367.284 87.0653C374.475 86.4603 382.409 82.646 388.881 78.8684L389.808 80.407C383.208 84.1953 374.878 88.1723 367.429 88.7989ZM347.819 80.6415C348.396 80.3343 348.967 79.9414 349.543 79.6128C348.022 78.1888 348.091 78.2476 347.981 78.4724C347.844 79.1521 347.756 79.8924 347.819 80.6415ZM358.75 86.8348C355.528 85.166 352.906 82.6923 350.938 80.8317L348.123 82.4695C348.956 85.956 351.617 88.9005 354.421 88.6646C356.219 88.5134 357.715 87.8487 358.772 86.833L358.75 86.8348ZM358.44 75.976C356.401 77.3546 354.442 78.6618 352.456 79.9066C354.421 81.7458 356.888 83.9092 359.771 85.391C360.867 83.2943 360.747 80.3299 359.098 77.3864C358.796 76.8729 358.607 76.4146 358.439 75.9546L358.44 75.976Z" fill="#AA9479" stroke="#AA9479" stroke-width="0.2" stroke-miterlimit="10"/>
<path d="M404.217 86.1783L405.244 83.2684L406.847 83.8664L405.878 86.7068L404.217 86.1783ZM407.76 74.7368L429.811 1.21428L431.536 1.73733L409.399 75.2671L407.738 74.7386L407.76 74.7368Z" fill="#AA9479" stroke="#AA9479" stroke-width="0.2" stroke-miterlimit="10"/>
</g>
<defs>
<clipPath id="clip0_1_143">
<rect width="433.26" height="108.788" fill="white" transform="translate(0 37.0916) rotate(-4.80864)"/>
</clipPath>
</defs>
</svg>
