<svg width="314" height="138" viewBox="0 0 314 138" fill="none" xmlns="http://www.w3.org/2000/svg">
<g clip-path="url(#clip0_1_54)">
<path d="M139.512 77.677C126.667 86.9284 121.531 89.9702 119.426 89.065C116.845 87.9315 117.625 84.4631 121.621 76.1179C123.304 72.6187 124.119 70.3258 124.106 70.26C122.623 69.5526 114.574 78.1976 107.506 88.2012L107.307 88.5677L107.258 88.5778L106.702 88.2117L106.098 87.8557C108.202 84.3215 113.496 73.9445 115.661 66.7807C117.531 60.5175 118.156 55.795 117.606 55.7022C115.664 55.3461 111.842 59.61 106.719 67.9804C103.2 73.7248 99.0288 81.4715 94.2542 91.039L93.0263 90.4852L93.0162 90.4358C93.1339 90.2574 93.2153 90.0693 93.3229 89.8415C96.3098 83.092 100.232 70.9565 102.773 60.4415C105.451 49.2639 105.884 42.0097 104.208 41.4449C102.934 41.0032 100.33 44.4345 93.6002 56.34C91.2393 60.4584 88.9234 65.0475 86.5102 69.9138C82.0586 78.8836 77.1203 88.6562 71.0009 97.3509C73.0121 97.7956 75.1029 98.3782 77.2102 98.9574L76.8546 100.316C74.5296 99.6786 72.3266 99.0504 70.1307 98.5408C62.1221 109.474 51.996 118.442 37.9639 121.32C-3.73769 129.873 -1.72198 80.1071 69.5896 96.989C75.8211 88.3398 80.7392 78.4685 85.3215 69.3004C87.7314 64.4177 90.0372 59.7793 92.4015 55.6773C99.6467 42.8603 102.281 39.3202 104.699 40.1614C107.453 41.1392 107.04 48.2351 104.068 60.7414C102.6 66.871 100.663 73.5594 98.6598 79.4215C101.219 74.6797 103.475 70.6343 105.552 67.2254C111.12 58.1809 115.031 53.8474 117.81 54.3575C120.084 54.7482 119.086 60.0784 116.901 67.1435C115.676 71.286 113.374 76.5238 111.287 80.8944C117.315 73.0926 122.629 67.9915 124.716 69.0549C126.208 69.8117 124.877 72.4331 122.873 76.7013C119.28 84.175 118.553 87.1525 119.966 87.7713C121.27 88.3611 126.708 85.2057 138.7 76.5579L139.512 77.677ZM68.7029 98.1822C0.224564 82.1592 -1.62568 128.051 37.6742 119.991C51.0976 117.238 60.8866 108.716 68.7063 98.1987L68.7029 98.1822Z" fill="#AA9479" stroke="#AA9479" stroke-width="0.2" stroke-miterlimit="10"/>
<path d="M167.28 71.9819C161.808 76.3099 153.073 82.1127 146.931 82.0868C142.988 82.0896 140.777 79.6633 140.378 76.968L140.358 76.8693C140.064 74.101 141.726 71.0861 145.674 70.2763C147.204 69.9626 148.597 70.7396 148.881 72.1214C149.647 75.8556 145.391 79.0941 142.633 78.854C143.495 79.9629 144.938 80.7298 146.904 80.7037C152.615 80.7153 160.996 75.1908 166.451 70.8663L167.264 71.9853L167.28 71.9819ZM141.711 76.6947C142.341 79.0168 148.297 76.0466 147.548 72.3947C147.424 71.786 146.77 71.4401 145.947 71.6088C142.822 72.2498 141.476 74.5486 141.711 76.6947Z" fill="#AA9479" stroke="#AA9479" stroke-width="0.2" stroke-miterlimit="10"/>
<path d="M183.006 73.9337C181.065 74.3318 179.157 74.1403 177.403 73.6944C176.553 74.983 175.095 75.9847 173.154 76.3828C170.44 76.9395 167.58 74.6975 166.304 71.6508C165.923 71.8832 165.556 72.1814 165.175 72.4138L164.412 71.2846C164.881 70.9826 165.337 70.6148 165.803 70.2964C165.614 69.3752 165.534 68.4831 165.619 67.5572C165.81 65.6494 167.129 66.0645 169.363 67.5949C171.105 66.2262 172.801 64.7985 174.572 63.3209C174.76 61.894 176.434 61.4478 176.434 61.4478L176.483 61.4377C177.306 61.269 177.851 62.3399 177.188 62.7845C176.781 63.1422 176.41 63.4239 176.053 63.7715C176.068 64.0942 176.212 64.5446 176.6 65.0993C178.4 67.6099 178.838 70.2458 178.055 72.4463C179.526 72.8475 181.087 72.9386 182.732 72.6012C188.26 71.4676 194.068 67.7737 198.743 64.2434L199.605 65.3523C194.831 68.9029 188.73 72.7596 183.006 73.9337ZM167.027 69.4111C167.447 69.1192 167.854 68.7615 168.274 68.4697C166.962 67.5045 167.021 67.5438 166.94 67.7319C166.897 68.2722 166.896 68.8551 167.014 69.4309L167.027 69.4111ZM176.086 73.2101C173.43 72.212 171.166 70.5336 169.47 69.2872L167.436 70.8186C168.404 73.4486 170.742 75.4889 172.897 75.047C174.279 74.7635 175.379 74.1094 176.103 73.2067L176.086 73.2101ZM174.843 64.8082C173.387 66.0668 171.986 67.2626 170.559 68.4124C172.258 69.6753 174.37 71.1108 176.749 72.0114C177.406 70.2824 177.039 67.992 175.487 65.859C175.205 65.4882 175.016 65.1499 174.843 64.8082Z" fill="#AA9479" stroke="#AA9479" stroke-width="0.2" stroke-miterlimit="10"/>
<path d="M215.199 67.331C213.258 67.7291 211.35 67.5376 209.596 67.0917C208.746 68.3802 207.289 69.382 205.347 69.7801C202.633 70.3368 199.773 68.0948 198.497 65.0481C198.116 65.2805 197.749 65.5787 197.368 65.8111L196.605 64.6819C197.074 64.3799 197.53 64.0121 197.996 63.6937C197.807 62.7725 197.727 61.8804 197.812 60.9545C198.003 59.0467 199.323 59.4618 201.557 60.9922C203.299 59.6235 204.994 58.1957 206.765 56.7182C206.953 55.2913 208.627 54.8451 208.627 54.8451L208.676 54.835C209.499 54.6663 210.044 55.7372 209.381 56.1818C208.974 56.5395 208.604 56.8212 208.246 57.1688C208.261 57.4914 208.405 57.9419 208.793 58.4966C210.594 61.0072 211.031 63.6431 210.248 65.8436C211.719 66.2448 213.281 66.3359 214.926 65.9985C220.453 64.8649 226.261 61.171 230.937 57.6406L231.798 58.7496C227.024 62.3001 220.924 66.1569 215.199 67.331ZM199.221 62.8084C199.641 62.5165 200.047 62.1588 200.467 61.8669C199.155 60.9018 199.215 60.9411 199.133 61.1292C199.09 61.6695 199.089 62.2524 199.207 62.8282L199.221 62.8084ZM208.279 66.6074C205.623 65.6093 203.359 63.9309 201.664 62.6844L199.629 64.2159C200.597 66.8459 202.936 68.8862 205.091 68.4442C206.472 68.1608 207.572 67.5066 208.296 66.604L208.279 66.6074ZM207.036 58.2055C205.58 59.4641 204.18 60.6599 202.753 61.8097C204.452 63.0726 206.563 64.508 208.942 65.4087C209.599 63.6797 209.232 61.3893 207.68 59.2562C207.399 58.8855 207.209 58.5472 207.036 58.2055Z" fill="#AA9479" stroke="#AA9479" stroke-width="0.2" stroke-miterlimit="10"/>
<path d="M259.221 53.1254C253.887 56.7907 246.375 61.5369 242.888 62.2522C240.634 62.7144 239.093 61.9678 238.725 60.1747C238.526 59.2041 238.645 57.9455 238.886 56.7817C236.947 59.528 234.193 62.8184 232.153 63.2368C231.133 63.4459 230.275 62.4391 230.015 61.1724C229.384 58.0962 232.087 53.8049 235.163 53.174C236.644 52.8703 238.086 53.3803 238.845 54.493L240.153 52.5106L240.886 52.9945L241.352 53.1733C240.971 54.1599 239.659 57.9603 240.057 59.9014C240.266 60.9213 241.035 61.2436 242.615 60.9197C245.181 60.3934 251.02 57.1044 258.462 52.0126L259.225 53.1418L259.221 53.1254ZM231.876 61.8878C233.571 61.5403 236.121 58.3432 237.982 55.7158C237.635 54.7756 236.565 54.2407 235.43 54.4735C233.127 54.9459 230.869 58.5632 231.341 60.8662C231.456 61.4255 231.758 61.895 231.873 61.8714L231.876 61.8878Z" fill="#AA9479" stroke="#AA9479" stroke-width="0.2" stroke-miterlimit="10"/>
<path d="M261.009 63.7641C254.871 78.0511 247.839 92.7443 241.908 90.9093C237.469 89.5741 236.961 79.3244 252.238 68.3914L259.865 62.8673C260.523 61.3952 261.142 59.9826 261.75 58.5207C262.33 57.1676 262.857 55.8938 263.447 54.59C262.16 56.0882 260.803 57.3266 259.47 57.5998C258.45 57.809 257.592 56.8022 257.333 55.5355C256.702 52.4593 259.404 48.168 262.481 47.537C263.714 47.284 264.869 47.7328 265.935 48.7486L266.33 48.0847L266.369 48.0252L266.924 48.3913L267.519 48.698C266.134 51.8104 264.571 55.3881 262.982 59.091C262.656 59.8435 262.334 60.6124 261.998 61.3156C269.218 56.1492 276.546 50.755 281.176 47.3369L281.939 48.4661C276.938 52.1659 268.708 58.1738 260.992 63.7675L261.009 63.7641ZM258.826 65.3259C256.831 66.798 254.816 68.1713 253.014 69.5007C238.397 79.9727 238.768 88.5534 242.301 89.646C246.958 91.0394 253.019 78.6365 258.826 65.3259ZM259.217 56.2804C261.158 55.8823 263.598 52.3992 265.183 49.9313C264.414 49.0261 263.646 48.7038 262.774 48.8826C260.471 49.3549 258.213 52.9722 258.685 55.2753C258.8 55.8346 259.102 56.3041 259.217 56.2804Z" fill="#AA9479" stroke="#AA9479" stroke-width="0.2" stroke-miterlimit="10"/>
<path d="M306.927 43.3411C301.455 47.6691 292.72 53.4719 286.577 53.446C282.635 53.4488 280.423 51.0225 280.025 48.3272L280.005 48.2285C279.711 45.4602 281.389 42.4419 285.321 41.6355C286.851 41.3217 288.244 42.0988 288.528 43.4806C289.294 47.2148 285.038 50.4532 282.28 50.2132C283.142 51.3221 284.585 52.089 286.551 52.0629C292.262 52.0745 300.643 46.55 306.098 42.2254L306.911 43.3445L306.927 43.3411ZM281.357 48.0539C281.988 50.376 287.944 47.4058 287.195 43.7539C287.07 43.1452 286.417 42.7993 285.594 42.968C282.469 43.609 281.123 45.9078 281.357 48.0539Z" fill="#AA9479" stroke="#AA9479" stroke-width="0.2" stroke-miterlimit="10"/>
</g>
<defs>
<clipPath id="clip0_1_54">
<rect width="304.469" height="78.3382" fill="white" transform="translate(0 61.1717) rotate(-11.5903)"/>
</clipPath>
</defs>
</svg>
