<svg width="230" height="125" viewBox="0 0 230 125" fill="none" xmlns="http://www.w3.org/2000/svg">
<g clip-path="url(#clip0_1_93)">
<path d="M18.1585 93.8079C15.5836 99.6738 14.8023 104.815 15.7298 108.949C17.461 116.665 25.6227 120.466 35.7537 118.193C44.1041 116.32 52.7536 111.563 58.8273 105.579C64.6968 99.8334 67.6347 93.4775 67.0925 87.5156C66.3175 78.9832 56.9216 74.6636 48.6118 69.6275C43.1014 66.242 37.9862 62.5098 36.9398 56.9834C35.2727 48.3072 46.2802 37.3893 59.3994 34.446C69.2234 32.2419 78.3208 35.2311 79.6662 41.2278C80.1943 43.5815 79.4242 46.3769 77.4691 49.3522L76.052 48.4018C77.8099 45.7932 78.4355 43.5032 78.0084 41.5998C76.8926 36.6263 68.572 34.1293 59.7713 36.1038C47.5322 38.8497 37.0736 48.9565 38.6067 56.6524C39.5108 61.5443 44.0472 64.8044 49.4824 68.1424C57.6966 73.1355 67.9374 77.8674 68.8054 87.3892C69.3872 93.8152 66.2434 100.69 59.9582 106.787C53.7211 113.001 44.7785 117.888 36.1006 119.835C25.0941 122.326 16.0328 118.06 14.072 109.321C13.071 104.859 13.9129 99.3178 16.6123 93.1444L18.1585 93.8079Z" fill="#AA9479" stroke="#AA9479" stroke-width="0.2" stroke-miterlimit="10"/>
<path d="M114.284 83.42L115.385 84.7851C115.385 84.7851 96.2675 100.468 88.9405 102.112C78.175 104.527 77.3489 94.3292 86.7775 77.8109C88.0358 75.6583 89.3509 73.4715 90.7934 71.2777L89.6473 71.5348C85.6972 72.421 83.4072 71.7955 82.8929 69.5032L84.5507 69.1313C84.8078 70.2774 86.2054 70.5658 89.2754 69.877C90.2373 69.6612 91.2468 69.3702 92.3178 69.0654C94.5816 65.7414 97.0776 62.4943 99.5991 59.4565L100.907 60.4958C98.9053 62.8796 96.929 65.4727 95.1097 68.0951L97.765 67.0909C100.748 66.0133 103.715 64.9607 106.13 64.4189C109.691 63.6199 111.769 64.164 112.224 66.1902L110.566 66.5621C110.364 65.6616 109.121 65.4889 106.502 66.0767C104.209 66.5909 101.37 67.6365 98.3825 68.6936C96.7184 69.3249 95.0451 69.9153 93.4286 70.4715C91.5617 73.169 89.8451 75.9618 88.299 78.6518C81.1351 91.1795 78.3715 102.72 88.5639 100.433C95.5021 98.8766 114.263 83.4246 114.263 83.4246L114.284 83.42Z" fill="#AA9479" stroke="#AA9479" stroke-width="0.2" stroke-miterlimit="10"/>
<path d="M191.603 67.6851C185.722 72.2291 175.778 77.7277 168 79.4726C160.919 81.0614 158.067 74.0053 162.99 67.8706C162.914 67.823 162.853 67.8368 162.792 67.8506C162.054 67.8225 160.985 67.8474 159.799 67.6405C159.395 68.8062 158.601 70.0591 157.604 71.2715C151.194 78.5353 142.291 83.8863 133.245 85.9159C129.111 86.8435 125.823 86.8501 123.603 85.865C121.902 87.5793 120.017 88.9482 118.298 89.3339C116.763 89.6783 115.605 88.9276 115.247 87.3312C114.733 85.0389 116.016 81.4621 118.059 79.2625L119.276 80.4727C117.589 82.2484 116.505 85.1787 116.905 86.9593C117.061 87.6551 117.291 87.8185 117.926 87.6761C119.195 87.3914 120.696 86.3236 122.063 84.9421C121.227 84.1839 120.67 83.2341 120.399 82.0265C119.554 78.2607 121.082 74.6288 123.886 73.9997C125.789 73.5726 127.457 74.6818 127.898 76.6466C128.339 78.6114 126.912 81.8336 124.781 84.5043C126.593 85.1081 129.328 85.032 132.889 84.233C141.628 82.2723 150.17 77.1314 156.38 70.1273C157.234 69.1405 157.803 68.1315 158.206 67.2456C154.341 66.1136 153.335 60.7714 157.031 61.1461C159.634 61.4434 160.758 63.3841 160.328 65.9741C161.302 66.0995 162.162 66.1 162.824 66.0805C165.368 66.1117 165.925 67.0616 164.395 68.8666C160.39 73.7207 162.241 79.002 167.665 77.7852C175.176 76.1 184.78 70.8067 190.518 66.2949L191.619 67.66L191.603 67.6851ZM123.223 83.693C125.177 81.3843 126.573 78.599 126.229 77.064C125.985 75.9793 125.27 75.4734 124.247 75.703C122.466 76.1025 121.384 78.7529 122.045 81.7001C122.229 82.5188 122.635 83.18 123.228 83.7135L123.223 83.693ZM158.676 65.6999C158.871 64.1729 158.273 63.0388 156.841 62.887C155.471 62.7214 156.878 65.1575 158.676 65.6999Z" fill="#AA9479" stroke="#AA9479" stroke-width="0.2" stroke-miterlimit="10"/>
<path d="M225.189 60.1499C218.455 65.6807 207.679 73.1286 200.008 73.2375C195.084 73.3316 192.266 70.3524 191.707 66.9955L191.679 66.8727C191.249 63.4222 193.255 59.6187 198.167 58.5167C200.07 58.0896 201.828 59.0279 202.214 60.7471C203.256 65.3931 198.016 69.5353 194.567 69.2989C195.668 70.664 197.488 71.5886 199.943 71.5108C207.075 71.3939 217.414 64.3018 224.128 58.7756L225.169 60.1544L225.189 60.1499ZM193.364 66.6236C194.205 69.509 201.576 65.6627 200.556 61.1191C200.386 60.3618 199.562 59.9449 198.539 60.1745C194.65 61.0469 193.022 63.9487 193.364 66.6236Z" fill="#AA9479" stroke="#AA9479" stroke-width="0.2" stroke-miterlimit="10"/>
</g>
<defs>
<clipPath id="clip0_1_93">
<rect width="217.243" height="78.658" fill="white" transform="translate(0 47.5576) rotate(-12.6453)"/>
</clipPath>
</defs>
</svg>
