<svg width="200" height="49" viewBox="0 0 200 49" fill="none" xmlns="http://www.w3.org/2000/svg">
<g clip-path="url(#clip0_1_171)">
<path d="M93.69 39.4466H3.49997C1.83997 39.4466 0.499969 37.7135 0.499969 35.5666V4.52661C0.499969 2.37967 1.83997 0.646606 3.49997 0.646606H196.5C198.16 0.646606 199.5 2.37967 199.5 4.52661V35.5666C199.5 37.7135 198.16 39.4466 196.5 39.4466H102.87L97 47.8533" fill="white"/>
<path d="M93.69 39.4466H3.49997C1.83997 39.4466 0.499969 37.7135 0.499969 35.5666V4.52661C0.499969 2.37967 1.83997 0.646606 3.49997 0.646606H196.5C198.16 0.646606 199.5 2.37967 199.5 4.52661V35.5666C199.5 37.7135 198.16 39.4466 196.5 39.4466H102.87L97 47.8533" stroke="#727171" stroke-linecap="round" stroke-linejoin="round"/>
<path d="M38.764 28.918C38.656 28.858 38.5 28.78 38.296 28.684C38.104 28.6 37.912 28.516 37.72 28.432C37.54 28.36 37.402 28.312 37.306 28.288C37.882 27.376 38.32 26.26 38.62 24.94C38.92 23.608 39.07 22.084 39.07 20.368V15.13H45.496V12.952H47.242V15.13H53.65V16.642H40.69V20.404C40.69 22.216 40.528 23.842 40.204 25.282C39.88 26.722 39.4 27.934 38.764 28.918ZM46.558 29.026C45.91 29.026 45.454 28.924 45.19 28.72C44.938 28.528 44.812 28.192 44.812 27.712V20.026H46.45V26.938C46.45 27.118 46.492 27.25 46.576 27.334C46.672 27.418 46.834 27.46 47.062 27.46H48.718C49.03 27.46 49.27 27.406 49.438 27.298C49.618 27.19 49.75 26.986 49.834 26.686C49.93 26.374 50.002 25.924 50.05 25.336C50.23 25.432 50.482 25.534 50.806 25.642C51.142 25.75 51.418 25.834 51.634 25.894C51.526 26.782 51.37 27.454 51.166 27.91C50.974 28.354 50.71 28.648 50.374 28.792C50.038 28.948 49.606 29.026 49.078 29.026H46.558ZM41.878 27.604C41.722 27.484 41.494 27.34 41.194 27.172C40.894 27.004 40.66 26.896 40.492 26.848C40.768 26.38 41.032 25.816 41.284 25.156C41.536 24.484 41.758 23.8 41.95 23.104C42.142 22.396 42.274 21.754 42.346 21.178L43.912 21.574C43.816 22.198 43.666 22.87 43.462 23.59C43.27 24.298 43.036 25 42.76 25.696C42.484 26.392 42.19 27.028 41.878 27.604ZM52.804 26.938C52.6 26.338 52.348 25.714 52.048 25.066C51.76 24.406 51.46 23.782 51.148 23.194C50.836 22.606 50.542 22.126 50.266 21.754L51.724 21.034C52.024 21.442 52.336 21.952 52.66 22.564C52.996 23.176 53.308 23.806 53.596 24.454C53.896 25.09 54.136 25.66 54.316 26.164C54.196 26.2 54.04 26.266 53.848 26.362C53.656 26.458 53.464 26.56 53.272 26.668C53.08 26.776 52.924 26.866 52.804 26.938ZM48.862 21.466C48.622 21.142 48.322 20.794 47.962 20.422C47.614 20.038 47.248 19.666 46.864 19.306C46.48 18.946 46.12 18.652 45.784 18.424L46.882 17.29C47.218 17.53 47.578 17.818 47.962 18.154C48.346 18.49 48.724 18.838 49.096 19.198C49.48 19.558 49.816 19.912 50.104 20.26C49.984 20.344 49.84 20.464 49.672 20.62C49.504 20.776 49.342 20.932 49.186 21.088C49.042 21.244 48.934 21.37 48.862 21.466ZM61.714 29.44C61.666 29.284 61.576 29.062 61.444 28.774C61.324 28.498 61.21 28.282 61.102 28.126C62.386 27.982 63.4 27.736 64.144 27.388C64.9 27.04 65.482 26.548 65.89 25.912H63.244V25.102C62.728 25.438 62.188 25.744 61.624 26.02C61.06 26.284 60.484 26.518 59.896 26.722C59.86 26.626 59.788 26.494 59.68 26.326C59.572 26.158 59.458 25.996 59.338 25.84C59.23 25.684 59.14 25.576 59.068 25.516C59.824 25.312 60.574 25.018 61.318 24.634C62.074 24.238 62.764 23.788 63.388 23.284H59.536V22.06H64.648C64.768 21.928 64.882 21.79 64.99 21.646C65.098 21.502 65.2 21.358 65.296 21.214H62.326V16.354H64.486V15.382H59.77V14.14H64.486V12.88H66.034V14.14H69.184V12.88H70.75V14.14H75.358V15.382H70.75V16.354H72.982V21.214H66.934C66.85 21.358 66.766 21.502 66.682 21.646C66.598 21.79 66.508 21.928 66.412 22.06H75.682V23.284H71.668C72.304 23.788 73.03 24.244 73.846 24.652C74.674 25.06 75.472 25.384 76.24 25.624C76.156 25.708 76.048 25.834 75.916 26.002C75.796 26.17 75.682 26.338 75.574 26.506C75.466 26.674 75.388 26.812 75.34 26.92C74.824 26.716 74.284 26.476 73.72 26.2C73.156 25.924 72.61 25.618 72.082 25.282C71.998 26.146 71.896 26.848 71.776 27.388C71.656 27.928 71.494 28.342 71.29 28.63C71.098 28.918 70.84 29.116 70.516 29.224C70.204 29.332 69.808 29.386 69.328 29.386H68.086C68.062 29.206 68.02 28.96 67.96 28.648C67.9 28.336 67.84 28.108 67.78 27.964H68.986C69.298 27.964 69.538 27.916 69.706 27.82C69.886 27.724 70.024 27.532 70.12 27.244C70.216 26.944 70.294 26.5 70.354 25.912H67.6C67.12 26.932 66.406 27.73 65.458 28.306C64.51 28.882 63.262 29.26 61.714 29.44ZM63.784 24.706H66.448C66.508 24.538 66.562 24.358 66.61 24.166C66.658 23.962 66.7 23.758 66.736 23.554L68.266 23.644C68.23 23.836 68.194 24.022 68.158 24.202C68.122 24.37 68.08 24.538 68.032 24.706H71.272C70.984 24.478 70.714 24.25 70.462 24.022C70.21 23.782 69.982 23.536 69.778 23.284H65.422C64.93 23.8 64.384 24.274 63.784 24.706ZM63.964 18.262H71.362V17.488H63.964V18.262ZM63.964 20.062H71.362V19.324H63.964V20.062ZM66.034 16.354H69.184V15.382H66.034V16.354Z" fill="#BDAD97"/>
<path d="M89.956 28.792C88.936 28.792 88.138 28.552 87.562 28.072C86.986 27.592 86.698 26.974 86.698 26.218C86.698 25.45 86.968 24.838 87.508 24.382C88.06 23.926 88.888 23.698 89.992 23.698C90.22 23.698 90.448 23.71 90.676 23.734C90.916 23.758 91.162 23.794 91.414 23.842C91.402 23.134 91.378 22.324 91.342 21.412C91.318 20.5 91.294 19.594 91.27 18.694C90.274 18.706 89.314 18.724 88.39 18.748C87.478 18.772 86.752 18.79 86.212 18.802C86.212 18.694 86.206 18.532 86.194 18.316C86.182 18.088 86.17 17.866 86.158 17.65C86.158 17.434 86.152 17.278 86.14 17.182C86.668 17.206 87.394 17.218 88.318 17.218C89.242 17.206 90.214 17.188 91.234 17.164C91.21 16.324 91.18 15.586 91.144 14.95C91.108 14.302 91.078 13.858 91.054 13.618C91.186 13.63 91.372 13.642 91.612 13.654C91.852 13.654 92.086 13.66 92.314 13.672C92.554 13.672 92.734 13.672 92.854 13.672C92.842 13.888 92.836 14.308 92.836 14.932C92.836 15.556 92.842 16.288 92.854 17.128C93.754 17.104 94.576 17.074 95.32 17.038C96.076 16.99 96.64 16.948 97.012 16.912C97 17.032 96.988 17.206 96.976 17.434C96.976 17.65 96.976 17.866 96.976 18.082C96.976 18.286 96.982 18.448 96.994 18.568C96.622 18.568 96.064 18.58 95.32 18.604C94.576 18.616 93.76 18.634 92.872 18.658C92.896 19.654 92.92 20.656 92.944 21.664C92.98 22.672 93.004 23.53 93.016 24.238C93.76 24.466 94.51 24.76 95.266 25.12C96.022 25.468 96.742 25.858 97.426 26.29C97.294 26.458 97.132 26.698 96.94 27.01C96.748 27.322 96.604 27.574 96.508 27.766C95.968 27.358 95.404 26.998 94.816 26.686C94.24 26.362 93.664 26.086 93.088 25.858C93.136 26.842 92.908 27.574 92.404 28.054C91.9 28.546 91.084 28.792 89.956 28.792ZM82.594 28.936C82.498 28.336 82.408 27.616 82.324 26.776C82.252 25.924 82.198 24.994 82.162 23.986C82.126 22.966 82.114 21.91 82.126 20.818C82.15 19.918 82.204 19.024 82.288 18.136C82.372 17.248 82.468 16.414 82.576 15.634C82.696 14.842 82.804 14.164 82.9 13.6C83.032 13.624 83.206 13.66 83.422 13.708C83.65 13.744 83.878 13.78 84.106 13.816C84.334 13.84 84.514 13.858 84.646 13.87C84.502 14.422 84.358 15.088 84.214 15.868C84.082 16.636 83.968 17.452 83.872 18.316C83.776 19.18 83.722 20.038 83.71 20.89C83.698 21.934 83.71 22.948 83.746 23.932C83.782 24.916 83.842 25.816 83.926 26.632C84.01 27.436 84.106 28.102 84.214 28.63C84.094 28.63 83.926 28.648 83.71 28.684C83.506 28.72 83.296 28.762 83.08 28.81C82.876 28.858 82.714 28.9 82.594 28.936ZM89.848 27.28C90.52 27.28 90.964 27.178 91.18 26.974C91.408 26.758 91.51 26.398 91.486 25.894C91.474 25.834 91.468 25.762 91.468 25.678C91.468 25.582 91.462 25.474 91.45 25.354C91.174 25.282 90.91 25.234 90.658 25.21C90.406 25.174 90.166 25.156 89.938 25.156C89.338 25.156 88.906 25.252 88.642 25.444C88.378 25.624 88.246 25.888 88.246 26.236C88.246 26.56 88.39 26.818 88.678 27.01C88.978 27.19 89.368 27.28 89.848 27.28ZM109.36 27.892C108.004 27.868 106.942 27.586 106.174 27.046C105.418 26.494 104.878 25.624 104.554 24.436C104.758 24.364 105.004 24.256 105.292 24.112C105.58 23.968 105.808 23.824 105.976 23.68C106.18 24.496 106.534 25.12 107.038 25.552C107.542 25.972 108.316 26.194 109.36 26.218C110.344 26.23 111.322 26.2 112.294 26.128C113.278 26.056 114.19 25.954 115.03 25.822C115.87 25.69 116.56 25.552 117.1 25.408C117.064 25.552 117.034 25.75 117.01 26.002C116.986 26.242 116.968 26.476 116.956 26.704C116.944 26.932 116.944 27.106 116.956 27.226C116.068 27.406 114.958 27.568 113.626 27.712C112.306 27.856 110.884 27.916 109.36 27.892ZM115.606 16.462C114.946 16.546 114.202 16.612 113.374 16.66C112.546 16.696 111.694 16.708 110.818 16.696C109.954 16.672 109.114 16.63 108.298 16.57C107.482 16.498 106.75 16.402 106.102 16.282C106.102 16.258 106.108 16.222 106.12 16.174C106.144 15.934 106.168 15.664 106.192 15.364C106.228 15.052 106.234 14.794 106.21 14.59C106.822 14.71 107.548 14.806 108.388 14.878C109.228 14.938 110.098 14.98 110.998 15.004C111.91 15.016 112.78 15.004 113.608 14.968C114.448 14.92 115.168 14.854 115.768 14.77C115.744 14.89 115.72 15.064 115.696 15.292C115.672 15.52 115.648 15.748 115.624 15.976C115.612 16.192 115.606 16.354 115.606 16.462ZM129.484 28.972C129.448 28.84 129.4 28.666 129.34 28.45C129.28 28.234 129.214 28.018 129.142 27.802C129.082 27.586 129.022 27.418 128.962 27.298C130.846 27.454 132.376 27.43 133.552 27.226C134.728 27.01 135.586 26.65 136.126 26.146C136.666 25.63 136.93 25 136.918 24.256C136.906 23.584 136.636 23.026 136.108 22.582C135.592 22.126 134.89 21.898 134.002 21.898C132.946 21.898 131.962 22.108 131.05 22.528C130.138 22.948 129.364 23.512 128.728 24.22C128.644 24.136 128.524 24.028 128.368 23.896C128.224 23.752 128.074 23.614 127.918 23.482C127.762 23.338 127.63 23.23 127.522 23.158C128.218 22.474 128.782 21.67 129.214 20.746C129.646 19.81 129.976 18.796 130.204 17.704C129.22 17.728 128.32 17.758 127.504 17.794C126.7 17.818 126.076 17.842 125.632 17.866C125.644 17.758 125.644 17.59 125.632 17.362C125.62 17.122 125.608 16.888 125.596 16.66C125.584 16.42 125.566 16.246 125.542 16.138C126.034 16.162 126.718 16.18 127.594 16.192C128.47 16.192 129.43 16.186 130.474 16.174C130.534 15.682 130.588 15.178 130.636 14.662C130.684 14.146 130.714 13.63 130.726 13.114C130.846 13.126 131.014 13.144 131.23 13.168C131.458 13.192 131.686 13.21 131.914 13.222C132.142 13.234 132.322 13.24 132.454 13.24C132.418 13.696 132.376 14.17 132.328 14.662C132.28 15.142 132.214 15.634 132.13 16.138C133.006 16.114 133.864 16.09 134.704 16.066C135.544 16.042 136.306 16.018 136.99 15.994C137.674 15.958 138.226 15.928 138.646 15.904C138.646 16.012 138.64 16.168 138.628 16.372C138.628 16.576 138.628 16.786 138.628 17.002C138.64 17.206 138.652 17.374 138.664 17.506C138.232 17.506 137.65 17.512 136.918 17.524C136.198 17.536 135.4 17.554 134.524 17.578C133.648 17.602 132.754 17.626 131.842 17.65C131.698 18.262 131.53 18.874 131.338 19.486C131.146 20.086 130.912 20.674 130.636 21.25C131.152 21.01 131.686 20.83 132.238 20.71C132.802 20.59 133.39 20.53 134.002 20.53C134.938 20.53 135.748 20.692 136.432 21.016C137.116 21.328 137.644 21.766 138.016 22.33C138.4 22.882 138.598 23.524 138.61 24.256C138.634 25.348 138.346 26.26 137.746 26.992C137.146 27.712 136.174 28.24 134.83 28.576C133.486 28.924 131.704 29.056 129.484 28.972ZM152.326 29.062C152.278 28.942 152.206 28.774 152.11 28.558C152.026 28.354 151.936 28.156 151.84 27.964C151.744 27.76 151.66 27.61 151.588 27.514C153.712 27.49 155.368 27.202 156.556 26.65C157.756 26.098 158.356 25.312 158.356 24.292C158.356 23.548 158.074 22.966 157.51 22.546C156.946 22.114 156.184 21.898 155.224 21.898C154.708 21.898 154.168 21.97 153.604 22.114C153.052 22.258 152.512 22.468 151.984 22.744C151.468 23.02 151.012 23.35 150.616 23.734C150.232 24.118 149.956 24.55 149.788 25.03L149.752 25.012C149.56 24.928 149.302 24.85 148.978 24.778C148.654 24.706 148.408 24.652 148.24 24.616C148.348 24.304 148.462 23.89 148.582 23.374C148.714 22.846 148.84 22.276 148.96 21.664C149.08 21.04 149.188 20.416 149.284 19.792C149.392 19.168 149.482 18.586 149.554 18.046C149.638 17.506 149.698 17.068 149.734 16.732C149.854 16.756 150.022 16.792 150.238 16.84C150.454 16.876 150.676 16.912 150.904 16.948C151.132 16.984 151.312 17.014 151.444 17.038C151.384 17.41 151.3 17.884 151.192 18.46C151.096 19.024 150.982 19.63 150.85 20.278C150.73 20.926 150.604 21.562 150.472 22.186C151.132 21.658 151.888 21.238 152.74 20.926C153.604 20.602 154.462 20.44 155.314 20.44C156.85 20.44 158.026 20.8 158.842 21.52C159.658 22.228 160.066 23.152 160.066 24.292C160.066 25.192 159.802 25.99 159.274 26.686C158.746 27.37 157.912 27.916 156.772 28.324C155.632 28.732 154.15 28.978 152.326 29.062ZM155.566 17.146C155.326 16.93 155.026 16.69 154.666 16.426C154.318 16.162 153.946 15.898 153.55 15.634C153.154 15.358 152.758 15.106 152.362 14.878C151.978 14.65 151.63 14.464 151.318 14.32C151.45 14.188 151.63 13.996 151.858 13.744C152.086 13.48 152.278 13.27 152.434 13.114C152.878 13.306 153.358 13.564 153.874 13.888C154.402 14.212 154.912 14.554 155.404 14.914C155.908 15.274 156.334 15.604 156.682 15.904C156.586 16 156.46 16.132 156.304 16.3C156.16 16.456 156.016 16.618 155.872 16.786C155.74 16.942 155.638 17.062 155.566 17.146Z" fill="#727171"/>
</g>
<defs>
<clipPath id="clip0_1_171">
<rect width="200" height="48.5" fill="white"/>
</clipPath>
</defs>
</svg>
