<svg width="343" height="156" viewBox="0 0 343 156" fill="none" xmlns="http://www.w3.org/2000/svg">
<g clip-path="url(#clip0_1_99)">
<path d="M117.61 52.1226C109.621 54.7984 99.3826 55.6184 88.9087 56.4327C88.3188 56.5054 87.7726 56.5106 87.1826 56.5834L87.26 56.9328C84.0734 57.6384 77.8752 62.1363 75.1782 71.1452C71.2918 84.1409 63.2492 118.45 30.4508 125.712C19.9031 128.047 12.5605 125.699 10.7235 119.257L12.2085 118.812C13.8169 124.398 20.3932 126.376 30.1396 124.218C61.9503 117.174 69.7621 83.7658 73.7044 70.7576C75.7802 63.6227 80.1808 59.0405 83.7305 56.8847C74.1691 57.6706 64.7287 58.7384 56.5965 61.3879C19.2216 73.8501 18.9178 112.561 44.1519 104.157L44.6495 105.609C16.9152 114.818 17.0835 72.9344 56.0762 59.9211C65.8927 56.6671 77.5587 55.7625 88.7466 54.9059C99.2764 54.0792 109.272 53.3129 117.094 50.6742L117.592 52.1267L117.61 52.1226Z" fill="#AA9479" stroke="#AA9479" stroke-width="0.2" stroke-miterlimit="10"/>
<path d="M114.367 94.8608C105.802 101.561 93.6456 102.459 92.314 96.4446C92.1226 95.5802 92.1275 94.8074 92.2831 94.0977C89.9825 95.8033 88.0181 99.5566 86.6443 102.446C86.1175 103.952 85.5565 105.214 85.2168 105.888L85.0327 106.469L84.9768 106.481L83.5118 105.956C83.5118 105.956 83.7081 105.431 83.9854 104.829C84.2255 104.236 84.4784 103.524 84.8641 102.705C86.0078 99.9246 87.3579 96.1336 87.028 94.6439L87.0158 94.5888C86.5063 94.7595 85.4649 95.5302 82.7291 98.0074C81.0063 99.5851 78.8704 101.505 76.5139 103.223L75.6308 101.971C77.8877 100.333 79.9676 98.4259 81.6719 96.8524C84.725 94.1313 85.8101 93.293 86.7419 93.0867C87.6737 92.8804 88.3339 93.3901 88.5375 94.3097C88.6393 94.7695 88.6415 95.3092 88.5377 95.9881C90.0744 93.8344 91.8724 92.0664 93.7919 91.6414C95.7113 91.2164 97.2817 91.7755 97.6482 93.4307L96.1388 93.7649C96.0003 93.1396 95.4571 92.8933 94.5131 93.0445C93.7512 93.7534 93.489 94.7761 93.7822 96.1002C94.8084 100.735 105.855 99.5044 113.334 93.6424L114.329 94.869L114.367 94.8608Z" fill="#AA9479" stroke="#AA9479" stroke-width="0.2" stroke-miterlimit="10"/>
<path d="M145.432 87.9823C139.427 92.2058 130.964 97.6875 127.013 98.5622C124.46 99.1276 122.698 98.3215 122.255 96.3169C122.014 95.2318 122.131 93.8168 122.388 92.5059C120.225 95.6279 117.146 99.3774 114.835 99.889C113.679 100.145 112.69 99.0327 112.377 97.6165C111.615 94.1774 114.622 89.3057 118.107 88.5341C119.784 88.1627 121.429 88.7053 122.308 89.9383L123.765 87.6865L124.605 88.2143L125.136 88.4054C124.718 89.5205 123.283 93.8125 123.764 95.9826C124.016 97.1229 124.876 97.4728 126.684 97.0726C129.591 96.4289 136.175 92.6171 144.553 86.7492L145.436 88.0007L145.432 87.9823ZM114.501 98.381C116.42 97.9559 119.27 94.3153 121.345 91.3284C120.937 90.2804 119.715 89.7023 118.429 89.987C115.82 90.5647 113.308 94.6708 113.878 97.2455C114.017 97.8708 114.366 98.3914 114.497 98.3626L114.501 98.381Z" fill="#AA9479" stroke="#AA9479" stroke-width="0.2" stroke-miterlimit="10"/>
<path d="M181.137 80.0763C175.791 84.2699 166.695 89.1007 159.613 90.6687C152.532 92.2366 148.401 91.4149 147.627 87.9206C147.436 87.0562 147.472 86.1607 147.747 85.1932C146.543 86.1156 145.077 87.1734 143.289 88.4568L142.406 87.2054C146.888 84.0521 149.204 82.1502 150.016 81.1407L150.06 81.0732L151.3 81.9947C149.359 84.5275 148.795 86.0415 149.137 87.5864C149.67 89.9956 152.91 90.5902 159.283 89.179C166.123 87.6646 174.908 83.0184 180.124 78.8538L181.119 80.0804L181.137 80.0763ZM154.803 78.0359L153.702 76.9484L156.289 74.3305L157.39 75.4179L154.803 78.0359Z" fill="#AA9479" stroke="#AA9479" stroke-width="0.2" stroke-miterlimit="10"/>
<path d="M227.223 69.872C221.852 73.9552 214.979 78.4094 207.916 79.9733C202.81 81.1039 199.796 80.3822 199.177 77.5867C198.847 76.097 199.596 74.0021 200.21 72.3612C200.659 71.1235 200.799 70.6101 200.819 70.4322C200.321 70.658 199.404 71.4592 197.785 72.9753C193.739 76.6879 189.559 83.1504 189.559 83.1504L188.288 82.3516L188.375 82.2165C190.196 79.4018 192.327 72.2544 191.679 71.7998C191.044 71.4004 189.536 72.2744 178.417 80.6787L177.533 79.4273C188.948 70.7648 190.831 69.3831 192.491 70.5205C193.57 71.2461 193.184 73.9168 192.332 76.6907C193.66 75.0076 195.223 73.234 196.723 71.802C197.902 70.7692 199.709 69.0381 200.752 68.807C202.839 68.3449 202.684 70.1156 201.652 72.8715C201.038 74.5123 200.436 76.2083 200.664 77.2382C201.043 78.9486 203.278 79.4184 207.564 78.4694C214.422 76.9509 220.964 72.6854 226.205 68.6311L227.2 69.8577L227.223 69.872Z" fill="#AA9479" stroke="#AA9479" stroke-width="0.2" stroke-miterlimit="10"/>
<path d="M262.388 62.0857C257.041 66.2793 247.945 71.1101 240.864 72.6781C233.782 74.246 229.652 73.4243 228.878 69.93C228.686 69.0656 228.723 68.1701 228.997 67.2026C227.794 68.1249 226.327 69.1828 224.539 70.4662L223.656 69.2148C228.139 66.0615 230.454 64.1596 231.267 63.1501L231.311 63.0826L232.551 64.0041C230.609 66.5369 230.045 68.0509 230.387 69.5958C230.921 72.005 234.161 72.5996 240.534 71.1884C247.373 69.674 256.158 65.0278 261.374 60.8632L262.369 62.0898L262.388 62.0857ZM236.053 60.0453L234.952 58.9578L237.539 56.3399L238.64 57.4273L236.053 60.0453Z" fill="#AA9479" stroke="#AA9479" stroke-width="0.2" stroke-miterlimit="10"/>
<path d="M308.473 51.8814C303.102 55.9646 296.248 60.4147 289.167 61.9827C284.061 63.1133 281.047 62.3916 280.428 59.5961C280.098 58.1064 280.846 56.0115 281.46 54.3706C281.91 53.1329 282.05 52.6195 282.069 52.4416C281.572 52.6674 280.655 53.4686 279.035 54.9847C274.99 58.6973 270.81 65.1598 270.81 65.1598L269.538 64.361L269.626 64.2259C271.446 61.4112 273.578 54.2638 272.93 53.8093C272.294 53.4098 270.787 54.2838 259.667 62.6881L258.784 61.4367C270.198 52.7742 272.082 51.3925 273.741 52.5299C274.821 53.2555 274.435 55.9263 273.583 58.7001C274.911 57.017 276.473 55.2434 277.974 53.8114C279.153 52.7786 280.959 51.0475 282.003 50.8164C284.09 50.3543 283.935 52.125 282.903 54.8809C282.288 56.5217 281.687 58.2177 281.915 59.2476C282.293 60.958 284.528 61.4278 288.814 60.4788C295.654 58.9644 302.215 54.6948 307.456 50.6405L308.451 51.8671L308.473 51.8814Z" fill="#AA9479" stroke="#AA9479" stroke-width="0.2" stroke-miterlimit="10"/>
<path d="M310.659 63.7835C303.896 79.9436 296.123 96.5781 289.361 94.6414C284.299 93.2348 283.572 81.7427 300.765 69.1577L309.347 62.8007C310.073 61.1352 310.755 59.5371 311.425 57.8839C312.064 56.3534 312.644 54.913 313.295 53.4377C311.855 55.1456 310.331 56.5634 308.822 56.8976C307.666 57.1534 306.677 56.0413 306.364 54.6251C305.602 51.186 308.609 46.3143 312.094 45.5427C313.492 45.2332 314.81 45.713 316.035 46.8309L316.474 46.0776L316.518 46.0101L317.154 46.4095L317.833 46.7414C316.306 50.2628 314.583 54.3101 312.832 58.4985C312.473 59.3497 312.118 60.2192 311.747 61.0152C319.872 55.0681 328.117 48.8632 333.326 44.9316L334.209 46.183C328.583 50.4385 319.322 57.3508 310.64 63.7876L310.659 63.7835ZM308.203 65.5814C305.958 67.2745 303.689 68.8574 301.662 70.3866C285.212 82.4407 285.759 92.0625 289.788 93.2156C295.098 94.683 301.802 80.6389 308.203 65.5814ZM308.514 55.4222C310.713 54.9353 313.434 50.976 315.198 48.1737C314.312 47.1737 313.434 46.8279 312.446 47.0466C309.837 47.6243 307.326 51.7304 307.896 54.3052C308.034 54.9305 308.384 55.4511 308.514 55.4222Z" fill="#AA9479" stroke="#AA9479" stroke-width="0.2" stroke-miterlimit="10"/>
</g>
<defs>
<clipPath id="clip0_1_99">
<rect width="332.11" height="85.5374" fill="white" transform="translate(0 71.7974) rotate(-12.4851)"/>
</clipPath>
</defs>
</svg>
